<svg width="500" height="373" viewBox="0 0 500 373" fill="none" xmlns="http://www.w3.org/2000/svg">
<path d="M73.2226 332.558C170.842 383.561 329.132 383.561 426.773 332.558C524.414 281.555 524.403 198.863 426.773 147.86C329.143 96.8572 170.864 96.8572 73.2226 147.86C-24.4185 198.863 -24.3966 281.598 73.2226 332.558Z" fill="#F5F5F5"/>
<path d="M67.6794 247.237C81.5285 247.237 92.7553 241.887 92.7553 235.288C92.7553 228.689 81.5285 223.339 67.6794 223.339C53.8304 223.339 42.6035 228.689 42.6035 235.288C42.6035 241.887 53.8304 247.237 67.6794 247.237Z" fill="#EBEBEB"/>
<path d="M353.834 263.185C372.317 263.185 387.301 256.043 387.301 247.232C387.301 238.421 372.317 231.278 353.834 231.278C335.351 231.278 320.367 238.421 320.367 247.232C320.367 256.043 335.351 263.185 353.834 263.185Z" fill="#EBEBEB"/>
<path d="M453.892 181.597C453.892 181.597 456.478 173.609 464.891 165.098C468.602 161.344 471.024 158.725 470.249 156.488C469.551 154.513 467.194 153.487 463.822 155.08C459.032 157.35 455.802 161.562 453.892 170.019V181.597Z" fill="#E1A945"/>
<path opacity="0.1" d="M453.892 181.597C453.892 181.597 456.478 173.609 464.891 165.098C468.602 161.344 471.024 158.725 470.249 156.488C469.551 154.513 467.194 153.487 463.822 155.08C459.032 157.35 455.802 161.562 453.892 170.019V181.597Z" fill="black"/>
<path d="M453.354 176.576H453.255C453.15 176.548 453.06 176.479 453.005 176.385C452.95 176.292 452.934 176.18 452.961 176.074C455.962 164.486 463.72 157.305 467.005 155.647C467.104 155.6 467.216 155.594 467.32 155.628C467.424 155.663 467.51 155.736 467.561 155.832C467.607 155.929 467.613 156.041 467.579 156.143C467.544 156.244 467.471 156.329 467.376 156.378C464.2 157.982 456.682 164.966 453.757 176.281C453.731 176.368 453.678 176.443 453.605 176.496C453.532 176.55 453.444 176.578 453.354 176.576Z" fill="white"/>
<path d="M453.892 191.513C453.892 191.513 457.482 184.475 461.814 180.732C466.146 176.99 471.711 173.17 466.997 170.246C462.283 167.321 454.525 173.061 453.903 178.725L453.892 191.513Z" fill="#E1A945"/>
<path d="M453.355 186.506H453.268C453.163 186.48 453.072 186.414 453.015 186.322C452.958 186.231 452.939 186.12 452.962 186.015C455.003 177.285 462.325 172.353 464.758 171.535C464.858 171.514 464.963 171.531 465.051 171.582C465.14 171.634 465.206 171.717 465.237 171.814C465.269 171.912 465.262 172.018 465.22 172.111C465.178 172.204 465.103 172.279 465.009 172.32C462.827 173.062 455.69 177.918 453.759 186.2C453.735 186.289 453.682 186.367 453.609 186.422C453.536 186.477 453.447 186.507 453.355 186.506V186.506Z" fill="white"/>
<path d="M134.755 262.26C134.755 262.26 133.097 258.572 126.168 257.012C119.424 255.495 116.074 257.012 111.524 256.226C106.973 255.44 108.163 246.94 120.406 247.824C131.613 248.631 134.755 257.448 134.755 257.448V262.26Z" fill="#E1A945"/>
<path d="M135.421 260.226C135.342 260.224 135.265 260.199 135.199 260.155C135.133 260.11 135.082 260.048 135.05 259.975C133.959 257.367 129.922 253.111 124.237 251.813C117.176 250.209 113.423 251.813 113.39 251.813C113.292 251.846 113.186 251.841 113.092 251.8C112.997 251.758 112.921 251.684 112.879 251.59C112.837 251.496 112.831 251.389 112.863 251.291C112.895 251.193 112.962 251.111 113.052 251.06C113.215 250.994 117.1 249.303 124.411 250.972C130.729 252.413 134.756 257.039 135.803 259.626C135.825 259.675 135.836 259.728 135.837 259.782C135.837 259.836 135.827 259.889 135.807 259.939C135.786 259.989 135.756 260.034 135.718 260.072C135.68 260.11 135.635 260.14 135.585 260.16L135.421 260.226Z" fill="white"/>
<path d="M134.756 258.058C133.375 255.585 131.607 253.349 129.518 251.435C122.971 245.084 114.241 243.087 109.877 239.617C105.075 235.874 110.891 231.553 117.068 231.826C120.603 231.989 124.335 234.325 126.387 236.005C133.61 241.908 134.8 251.435 134.8 251.435L134.756 258.058Z" fill="#E1A945"/>
<path opacity="0.5" d="M134.756 258.058C133.375 255.585 131.607 253.349 129.518 251.435C122.971 245.084 114.241 243.087 109.877 239.617C105.075 235.874 110.891 231.553 117.068 231.826C120.603 231.989 124.335 234.325 126.387 236.005C133.61 241.908 134.8 251.435 134.8 251.435L134.756 258.058Z" fill="white"/>
<path d="M135.421 257.413C135.323 257.412 135.229 257.376 135.155 257.312C135.082 257.248 135.033 257.16 135.017 257.064C134.157 252.476 132.076 248.205 128.994 244.7C123.843 238.841 115.037 235.698 114.939 235.665C114.839 235.628 114.758 235.554 114.711 235.459C114.664 235.363 114.656 235.254 114.688 235.152C114.705 235.101 114.732 235.053 114.768 235.013C114.804 234.972 114.848 234.939 114.897 234.916C114.946 234.892 114.999 234.879 115.053 234.876C115.107 234.874 115.161 234.882 115.212 234.901C115.583 235.021 124.312 238.175 129.605 244.155C132.814 247.77 134.97 252.198 135.836 256.955C135.843 257.008 135.84 257.063 135.826 257.116C135.812 257.169 135.787 257.218 135.753 257.261C135.72 257.303 135.678 257.339 135.63 257.365C135.582 257.391 135.53 257.408 135.475 257.413H135.421Z" fill="white"/>
<path d="M284.512 325.879C284.512 325.879 286.367 322.278 293.372 321.089C300.181 319.932 303.444 321.58 308.038 321.089C312.632 320.598 311.89 311.988 299.614 312.217C288.385 312.425 284.774 321.056 284.774 321.056L284.512 325.879Z" fill="#E1A945"/>
<path opacity="0.1" d="M284.512 325.879C284.512 325.879 286.367 322.278 293.372 321.089C300.181 319.932 303.444 321.58 308.038 321.089C312.632 320.598 311.89 311.988 299.614 312.217C288.385 312.425 284.774 321.056 284.774 321.056L284.512 325.879Z" fill="black"/>
<path d="M283.977 324.153C283.892 324.149 283.809 324.123 283.737 324.077C283.693 324.046 283.655 324.007 283.626 323.962C283.598 323.917 283.578 323.866 283.569 323.813C283.56 323.761 283.561 323.706 283.573 323.654C283.585 323.602 283.607 323.553 283.639 323.509C286.247 319.777 290.993 316.962 296.351 316.023C303.237 314.79 307.263 316.973 307.438 317.115C307.485 317.14 307.526 317.175 307.559 317.217C307.592 317.258 307.616 317.306 307.631 317.357C307.646 317.409 307.65 317.462 307.644 317.515C307.638 317.568 307.622 317.619 307.596 317.666C307.57 317.712 307.536 317.753 307.494 317.786C307.452 317.82 307.405 317.844 307.353 317.859C307.302 317.874 307.249 317.878 307.196 317.872C307.143 317.866 307.092 317.85 307.045 317.824C307.045 317.824 303.084 315.696 296.493 316.875C291.354 317.791 286.792 320.465 284.315 324.022C284.272 324.067 284.219 324.102 284.16 324.124C284.102 324.147 284.04 324.157 283.977 324.153V324.153Z" fill="white"/>
<path d="M285.004 320.825C286.588 318.831 288.389 317.02 290.372 315.423C297.28 309.443 306.02 308.472 310.647 305.242C315.645 301.761 310.069 297.135 303.881 297.08C300.346 297.08 296.494 299.186 294.344 300.757C289.764 304.189 286.338 308.936 284.523 314.365L285.004 320.825Z" fill="#E1A945"/>
<path opacity="0.5" d="M285.004 320.825C286.588 318.831 288.389 317.02 290.372 315.423C297.28 309.443 306.02 308.472 310.647 305.242C315.645 301.761 310.069 297.135 303.881 297.08C300.346 297.08 296.494 299.186 294.344 300.757C289.764 304.189 286.338 308.936 284.523 314.365L285.004 320.825Z" fill="white"/>
<path d="M283.977 320.734H283.824C283.724 320.697 283.641 320.623 283.593 320.528C283.544 320.434 283.533 320.324 283.562 320.221C285.267 315.537 287.962 311.276 291.462 307.727C295.259 303.811 300.191 301.189 305.561 300.23C305.613 300.223 305.667 300.226 305.718 300.239C305.769 300.253 305.817 300.277 305.859 300.309C305.901 300.342 305.935 300.383 305.961 300.429C305.987 300.475 306.003 300.527 306.008 300.579C306.016 300.633 306.012 300.688 305.998 300.741C305.984 300.793 305.959 300.842 305.926 300.885C305.892 300.928 305.85 300.964 305.802 300.99C305.755 301.016 305.702 301.032 305.648 301.038C300.478 302.019 295.731 304.554 292.041 308.305C288.65 311.757 286.045 315.9 284.402 320.45C284.373 320.538 284.315 320.614 284.238 320.665C284.161 320.717 284.069 320.741 283.977 320.734V320.734Z" fill="white"/>
<path d="M179.073 263.175V180.734H134.759V263.186C134.759 266.46 136.941 269.733 141.306 272.221C149.959 277.219 163.992 277.219 172.645 272.221C177.01 269.722 179.127 266.46 179.138 263.186L179.073 263.175Z" fill="#37474F"/>
<path d="M141.252 190.334C132.588 185.336 132.588 177.24 141.252 172.231C149.916 167.222 163.938 167.233 172.591 172.231C181.245 177.229 181.245 185.325 172.591 190.334C163.938 195.343 149.905 195.321 141.252 190.334Z" fill="#455A64"/>
<path d="M232.268 293.89V233.874H187.943V293.89C187.943 297.164 190.126 300.438 194.491 302.926C203.144 307.923 217.177 307.923 225.83 302.926C230.195 300.438 232.323 297.164 232.323 293.89H232.268Z" fill="#37474F"/>
<path d="M194.433 243.49C185.78 238.492 185.78 230.395 194.433 225.387C203.087 220.378 217.119 220.389 225.773 225.387C234.426 230.384 234.437 238.481 225.773 243.49C217.109 248.498 203.076 248.531 194.433 243.49Z" fill="#455A64"/>
<path d="M285.464 324.597V277.991H241.14V324.608C241.14 327.881 243.322 331.155 247.687 333.654C256.34 338.651 270.373 338.651 279.026 333.654C283.391 331.155 285.508 327.881 285.519 324.608L285.464 324.597Z" fill="#37474F"/>
<path d="M263.302 291.327C275.542 291.327 285.464 285.597 285.464 278.527C285.464 271.458 275.542 265.728 263.302 265.728C251.062 265.728 241.14 271.458 241.14 278.527C241.14 285.597 251.062 291.327 263.302 291.327Z" fill="#455A64"/>
<path d="M131.921 292.245L121.457 286.211L127.251 278.703C127.993 277.743 127.644 277.219 126.476 277.514L112.596 281.093L102.131 275.048C101.252 274.601 100.28 274.368 99.2943 274.368C98.3083 274.368 97.3362 274.601 96.4572 275.048L79.969 284.541C78.3977 285.447 78.3977 286.909 79.969 287.815L109.759 305.012C110.638 305.459 111.61 305.692 112.596 305.692C113.582 305.692 114.554 305.459 115.433 305.012L131.921 295.486C133.482 294.613 133.482 293.151 131.921 292.245Z" fill="#E1A945"/>
<path d="M115.185 288.545C115.356 288.528 115.527 288.528 115.698 288.545C115.867 288.566 116.031 288.622 116.178 288.709L117.673 289.571C117.774 289.62 117.852 289.706 117.891 289.811C117.891 289.898 117.891 289.974 117.738 290.029C117.703 290.039 117.665 290.039 117.629 290.029C117.576 290.041 117.52 290.041 117.466 290.029L96.7328 291.666H96.1435C95.9734 291.64 95.8102 291.581 95.6634 291.491L94.1684 290.629C94.0676 290.58 93.9894 290.494 93.9502 290.389C93.9502 290.302 93.9502 290.225 94.103 290.171C94.1387 290.161 94.1764 290.161 94.2121 290.171H94.3758L115.185 288.545ZM108.507 287.159C108.063 287.455 107.6 287.721 107.121 287.956C106.734 288.152 106.328 288.309 105.91 288.425C105.471 288.536 105.02 288.591 104.568 288.588C103.558 288.591 102.566 288.319 101.698 287.803C101.284 287.6 100.913 287.318 100.607 286.974C100.408 286.747 100.296 286.457 100.29 286.155C100.294 285.87 100.398 285.596 100.585 285.38C100.802 285.099 101.068 284.858 101.37 284.671C101.577 284.521 101.792 284.383 102.014 284.256C102.222 284.136 102.473 284.005 102.745 283.875C103.138 283.677 103.552 283.523 103.978 283.416C104.885 283.191 105.833 283.191 106.739 283.416C107.243 283.553 107.727 283.755 108.18 284.016C108.573 284.222 108.922 284.504 109.205 284.846C109.406 285.072 109.522 285.361 109.533 285.664C109.519 285.947 109.415 286.218 109.238 286.439C109.038 286.72 108.791 286.963 108.507 287.159V287.159ZM110.569 295.692C110.147 296.008 109.702 296.292 109.238 296.543C108.848 296.739 108.438 296.893 108.016 297.002C107.579 297.122 107.127 297.181 106.674 297.176C106.191 297.174 105.71 297.108 105.244 296.98C104.739 296.852 104.254 296.653 103.804 296.391C103.414 296.179 103.067 295.898 102.778 295.561C102.577 295.332 102.465 295.037 102.462 294.732C102.47 294.45 102.57 294.178 102.745 293.957C102.967 293.679 103.237 293.443 103.542 293.259C103.745 293.103 103.96 292.964 104.186 292.844C104.421 292.701 104.665 292.574 104.917 292.462C105.306 292.265 105.716 292.111 106.139 292.004C106.579 291.896 107.029 291.838 107.481 291.829C108.488 291.829 109.475 292.1 110.34 292.615C110.756 292.815 111.128 293.097 111.431 293.444C111.624 293.665 111.73 293.948 111.73 294.241C111.73 294.534 111.624 294.817 111.431 295.038C111.183 295.303 110.892 295.524 110.569 295.692ZM103.618 285.871C103.401 285.994 103.224 286.176 103.105 286.395C103.105 286.548 103.105 286.701 103.422 286.853C103.658 286.997 103.933 287.061 104.208 287.039C104.524 286.989 104.831 286.886 105.113 286.733C105.527 286.535 105.924 286.305 106.303 286.046C106.525 285.926 106.707 285.744 106.826 285.522C106.826 285.369 106.772 285.217 106.51 285.064C106.271 284.919 105.991 284.858 105.713 284.889C105.4 284.934 105.097 285.033 104.819 285.184C104.402 285.366 104 285.581 103.618 285.828V285.871ZM105.692 294.405C105.469 294.524 105.287 294.706 105.168 294.928C105.168 295.07 105.168 295.223 105.484 295.376C105.72 295.528 106.002 295.594 106.281 295.561C106.593 295.512 106.895 295.412 107.176 295.267C107.594 295.071 107.995 294.841 108.376 294.579C108.596 294.46 108.774 294.278 108.889 294.055C108.889 293.903 108.889 293.75 108.572 293.597C108.337 293.454 108.062 293.389 107.787 293.412C107.473 293.46 107.17 293.564 106.892 293.717C106.475 293.899 106.074 294.114 105.692 294.361V294.405Z" fill="white"/>
<path d="M189.557 325.503L179.071 319.457L184.865 311.961C185.596 311.001 185.247 310.466 184.079 310.771L170.199 314.34L159.735 308.305C158.857 307.859 157.887 307.626 156.903 307.626C155.919 307.626 154.948 307.859 154.071 308.305L137.605 317.821C136.044 318.726 136.044 320.199 137.605 321.094L167.395 338.302C168.275 338.744 169.247 338.974 170.232 338.974C171.217 338.974 172.189 338.744 173.069 338.302L189.557 328.776C191.129 327.871 191.129 326.408 189.557 325.503Z" fill="#E1A945"/>
<path d="M172.821 321.805H173.344C173.514 321.832 173.677 321.891 173.824 321.979L175.309 322.841C175.439 322.918 175.516 322.994 175.527 323.081C175.538 323.169 175.527 323.234 175.385 323.3C175.349 323.308 175.312 323.308 175.276 323.3H175.112L154.379 324.936C154.205 324.953 154.03 324.953 153.855 324.936C153.685 324.912 153.521 324.853 153.375 324.762L151.891 323.911C151.76 323.834 151.684 323.747 151.673 323.671C151.669 323.622 151.681 323.574 151.707 323.533C151.732 323.492 151.77 323.46 151.815 323.441H151.924H152.088L172.821 321.805ZM166.142 320.419C165.704 320.717 165.245 320.984 164.767 321.215C164.378 321.411 163.968 321.565 163.545 321.674C163.108 321.793 162.656 321.852 162.203 321.848C161.72 321.846 161.239 321.78 160.774 321.652C160.268 321.524 159.783 321.325 159.333 321.063C158.941 320.85 158.59 320.569 158.297 320.233C158.099 320.013 157.989 319.727 157.989 319.431C157.989 319.135 158.099 318.85 158.297 318.629C158.517 318.354 158.783 318.118 159.082 317.931C159.288 317.78 159.503 317.641 159.726 317.516C159.966 317.376 160.214 317.248 160.468 317.134C160.857 316.937 161.267 316.783 161.69 316.676C162.396 316.496 163.131 316.458 163.852 316.562C164.573 316.667 165.266 316.914 165.891 317.287C166.286 317.496 166.638 317.777 166.928 318.116C167.129 318.342 167.241 318.633 167.245 318.935C167.236 319.219 167.132 319.492 166.95 319.71C166.726 319.993 166.453 320.234 166.142 320.419ZM168.216 328.952C167.772 329.249 167.309 329.515 166.83 329.749C166.445 329.946 166.038 330.1 165.619 330.207C165.18 330.318 164.729 330.373 164.276 330.371C163.266 330.373 162.275 330.101 161.407 329.585C161.013 329.38 160.661 329.102 160.37 328.767C160.169 328.537 160.056 328.243 160.053 327.937C160.066 327.654 160.169 327.382 160.348 327.162C160.568 326.883 160.834 326.644 161.134 326.453C161.352 326.3 161.57 326.169 161.778 326.039C161.985 325.908 162.236 325.788 162.509 325.657C162.902 325.459 163.315 325.305 163.742 325.198C164.182 325.098 164.632 325.043 165.084 325.035C165.563 325.033 166.04 325.096 166.502 325.22C167.009 325.35 167.494 325.552 167.943 325.82C168.338 326.029 168.689 326.31 168.98 326.65C169.177 326.868 169.286 327.152 169.286 327.446C169.286 327.74 169.177 328.024 168.98 328.243C168.766 328.52 168.508 328.76 168.216 328.952V328.952ZM161.265 319.131C161.043 319.251 160.86 319.433 160.741 319.655C160.741 319.797 160.795 319.95 161.057 320.102C161.293 320.255 161.575 320.32 161.854 320.288C162.166 320.237 162.468 320.137 162.749 319.993C163.169 319.798 163.571 319.564 163.949 319.295C164.167 319.179 164.346 319 164.462 318.782C164.462 318.629 164.407 318.476 164.145 318.324C163.912 318.175 163.635 318.11 163.36 318.138C163.042 318.187 162.736 318.29 162.454 318.444C162.041 318.626 161.643 318.841 161.265 319.088V319.131ZM163.327 327.664C163.114 327.787 162.937 327.964 162.814 328.177C162.814 328.33 162.869 328.483 163.131 328.636C163.364 328.784 163.641 328.849 163.916 328.821C164.232 328.772 164.538 328.672 164.822 328.526C165.235 328.323 165.632 328.089 166.011 327.828C166.23 327.709 166.411 327.531 166.535 327.315C166.59 327.162 166.535 327.01 166.219 326.857C165.981 326.709 165.701 326.644 165.422 326.671C165.11 326.722 164.808 326.822 164.527 326.966C164.114 327.158 163.713 327.377 163.327 327.621V327.664Z" fill="white"/>
<path d="M247.153 358.739L236.689 352.705L242.494 345.186C243.225 344.237 242.876 343.702 241.708 344.008L227.828 347.576L217.363 341.542C216.484 341.095 215.512 340.862 214.526 340.862C213.54 340.862 212.568 341.095 211.689 341.542L195.201 351.101C193.641 352.006 193.641 353.48 195.201 354.374L224.991 371.583C225.872 372.024 226.843 372.254 227.828 372.254C228.813 372.254 229.785 372.024 230.665 371.583L247.153 362.013C248.725 361.14 248.725 359.678 247.153 358.739Z" fill="#E1A945"/>
<path d="M230.416 355.073H230.928C231.099 355.098 231.262 355.158 231.409 355.247L232.904 356.109C233.035 356.186 233.111 356.262 233.122 356.35C233.133 356.437 233.122 356.502 232.98 356.568H232.871H232.707L211.974 358.205C211.804 358.221 211.632 358.221 211.461 358.205C211.29 358.182 211.127 358.123 210.981 358.03L209.497 357.179C209.366 357.102 209.29 357.015 209.279 356.939C209.275 356.89 209.287 356.842 209.313 356.801C209.338 356.76 209.376 356.728 209.421 356.71H209.53C209.584 356.697 209.64 356.697 209.694 356.71L230.416 355.073ZM223.737 353.687C223.297 353.988 222.833 354.254 222.352 354.484C221.966 354.681 221.56 354.835 221.14 354.942C220.703 355.062 220.251 355.12 219.798 355.116C219.312 355.114 218.827 355.048 218.358 354.92C217.856 354.792 217.374 354.594 216.928 354.331C216.536 354.119 216.185 353.838 215.892 353.501C215.69 353.272 215.578 352.978 215.575 352.672C215.588 352.389 215.691 352.117 215.87 351.897C216.093 351.621 216.358 351.382 216.656 351.188C216.874 351.035 217.092 350.904 217.299 350.784C217.507 350.664 217.758 350.533 218.03 350.392C218.833 349.998 219.712 349.786 220.606 349.77C221.612 349.773 222.598 350.044 223.465 350.555C223.859 350.764 224.211 351.045 224.501 351.385C224.699 351.612 224.81 351.902 224.818 352.203C224.804 352.486 224.701 352.757 224.523 352.978C224.306 353.259 224.04 353.5 223.737 353.687V353.687ZM225.8 362.22C225.359 362.515 224.9 362.781 224.425 363.017C224.039 363.213 223.633 363.366 223.214 363.475C222.301 363.707 221.344 363.707 220.431 363.475C219.929 363.343 219.448 363.141 219.002 362.875C218.585 362.675 218.214 362.393 217.91 362.046C217.708 361.821 217.596 361.53 217.594 361.227C217.6 360.945 217.7 360.672 217.878 360.452C218.105 360.176 218.373 359.937 218.674 359.743C218.881 359.593 219.096 359.455 219.318 359.329C219.525 359.208 219.776 359.078 220.049 358.947C220.846 358.537 221.729 358.323 222.624 358.325C223.103 358.323 223.58 358.386 224.043 358.51C224.545 358.642 225.026 358.844 225.472 359.11C225.889 359.31 226.26 359.592 226.564 359.94C226.766 360.164 226.879 360.456 226.88 360.758C226.874 361.041 226.774 361.313 226.596 361.533C226.373 361.807 226.103 362.039 225.8 362.22V362.22ZM218.849 352.399C218.632 352.522 218.454 352.704 218.336 352.923C218.336 353.065 218.391 353.218 218.652 353.37C218.887 353.517 219.163 353.582 219.438 353.556C219.754 353.507 220.06 353.407 220.344 353.261C220.763 353.064 221.165 352.83 221.544 352.563C221.762 352.447 221.941 352.268 222.057 352.05C222.112 351.897 222.057 351.745 221.741 351.592C221.503 351.444 221.223 351.379 220.944 351.406C220.631 351.457 220.328 351.56 220.049 351.712C219.633 351.896 219.232 352.111 218.849 352.356V352.399ZM220.922 360.933C220.706 361.056 220.526 361.232 220.398 361.445C220.398 361.598 220.398 361.751 220.726 361.904C220.959 362.052 221.236 362.117 221.511 362.089C221.824 362.04 222.126 361.94 222.406 361.795C222.823 361.591 223.224 361.358 223.606 361.096C223.825 360.977 224.006 360.799 224.13 360.583C224.188 360.431 224.079 360.278 223.803 360.125C223.569 359.977 223.293 359.912 223.017 359.94C222.705 359.989 222.403 360.088 222.122 360.234C221.706 360.434 221.305 360.664 220.922 360.922V360.933Z" fill="white"/>
<path d="M396.277 178.725L378.544 168.489V117.301L396.277 127.536V178.725Z" fill="#37474F"/>
<path d="M396.278 178.725L414.01 168.489V117.301L396.278 127.536V178.725Z" fill="#455A64"/>
<path d="M378.544 117.299L396.277 127.534L414.009 117.299L396.277 107.063L378.544 117.299Z" fill="#455A64"/>
<path d="M356.383 155.69L338.651 145.455V43.0889L356.383 53.3244V155.69Z" fill="#37474F"/>
<path d="M356.384 155.69L374.116 145.455V43.0889L356.384 53.3244V155.69Z" fill="#455A64"/>
<path d="M338.651 43.0871L356.383 53.3226L374.115 43.0871L356.383 32.8516L338.651 43.0871Z" fill="#455A64"/>
<path d="M316.487 132.656L298.755 122.42V86.5962L316.487 96.8317V132.656Z" fill="#37474F"/>
<path d="M316.488 132.656L334.22 122.42V86.5962L316.488 96.8317V132.656Z" fill="#455A64"/>
<path d="M298.755 86.5939L316.487 96.8294L334.219 86.5939L316.487 76.3584L298.755 86.5939Z" fill="#455A64"/>
<path d="M436.173 201.76L418.44 191.513V94.2759L436.162 104.511L436.173 201.76Z" fill="#37474F"/>
<path d="M436.162 201.76L453.894 191.513V94.2759L436.162 104.511V201.76Z" fill="#455A64"/>
<path d="M418.44 94.2728L436.162 104.508L453.894 94.2728L436.173 84.0264L418.44 94.2728Z" fill="#455A64"/>
<g opacity="0.3">
<path opacity="0.3" d="M312.198 194.337L312.012 80.9824C311.974 80.3262 311.782 79.6882 311.453 79.1197C311.123 78.5511 310.664 78.0678 310.114 77.7087L176.376 0.833294C175.284 0.233131 174.488 0.724174 174.488 1.9245L174.706 115.235C174.742 115.892 174.932 116.531 175.262 117.1C175.592 117.669 176.052 118.152 176.605 118.509L310.354 195.439C311.369 196.039 312.198 195.548 312.198 194.337Z" fill="white"/>
</g>
<path d="M311.169 196.233C310.783 196.218 310.408 196.105 310.077 195.905L176.328 118.975C175.69 118.573 175.158 118.023 174.778 117.371C174.398 116.72 174.181 115.986 174.146 115.232L173.939 1.92156C173.893 1.58925 173.947 1.25087 174.094 0.949438C174.241 0.648003 174.475 0.397128 174.765 0.228697C175.055 0.0602658 175.389 -0.0181156 175.723 0.00352406C176.058 0.0251638 176.379 0.145842 176.645 0.35022L310.394 77.2148C311.031 77.618 311.562 78.1685 311.942 78.8199C312.322 79.4713 312.539 80.2045 312.576 80.9576L312.762 194.312C312.788 194.643 312.726 194.975 312.582 195.274C312.439 195.573 312.218 195.828 311.943 196.014C311.709 196.155 311.442 196.23 311.169 196.233V196.233ZM175.532 1.07042C175.46 1.05145 175.385 1.05145 175.314 1.07042C175.207 1.16217 175.125 1.27917 175.076 1.41071C175.026 1.54226 175.01 1.68414 175.03 1.82335L175.215 115.178C175.246 115.751 175.414 116.309 175.704 116.804C175.995 117.3 176.4 117.719 176.885 118.026L310.634 194.956C310.961 195.141 311.245 195.196 311.42 195.087C311.594 194.978 311.703 194.716 311.703 194.334L311.518 80.9794C311.483 80.4207 311.319 79.8776 311.038 79.3929C310.758 78.9083 310.37 78.4951 309.903 78.1859L176.099 1.25592C175.929 1.14686 175.734 1.08301 175.532 1.07042Z" fill="#E1A945"/>
<path d="M299.494 169.324C295.948 166.803 293.874 164.523 292.467 146.998L292.347 145.503C291.026 129.037 290.164 118.168 282.657 113.683C279.056 111.501 276.175 113.683 273.13 116.051C270.37 118.157 267.533 120.318 264.335 118.496C258.716 115.222 257.788 108.74 256.042 96.9116C255.824 95.4494 255.606 93.9108 255.355 92.2958C254.973 89.7751 254.645 87.429 254.34 85.2247C252.616 72.8068 251.568 65.2993 245.217 61.4692C244.592 61.026 243.872 60.735 243.114 60.6194C242.356 60.5039 241.582 60.5669 240.853 60.8036C236.04 62.484 232.276 72.665 228.293 83.457C227.987 84.2536 227.693 85.0938 227.376 85.934C224.484 93.8889 221.211 102.913 216.682 104.583C216.042 104.817 215.357 104.904 214.679 104.836C214 104.767 213.346 104.547 212.765 104.19C208.258 101.636 207.451 94.6528 206.676 87.8873C205.901 81.1218 205.148 74.3236 200.893 71.7593C200.532 71.5259 200.119 71.385 199.691 71.3488C199.263 71.3127 198.832 71.3824 198.437 71.5519C193.156 73.6034 188.475 89.2295 188.431 89.3822L187.34 89.0767C187.536 88.4111 192.218 72.785 197.99 70.5262C198.541 70.2979 199.139 70.2055 199.734 70.2568C200.328 70.308 200.902 70.5015 201.405 70.8208C206.109 73.6361 206.927 80.8054 207.724 87.7345C208.52 94.6637 209.24 100.938 213.278 103.219C213.718 103.498 214.217 103.672 214.736 103.727C215.254 103.782 215.779 103.716 216.268 103.535C220.316 102.04 223.644 92.8959 226.318 85.5412C226.634 84.6901 226.929 83.8608 227.234 83.0533C231.49 71.541 235.167 61.6002 240.46 59.7451C241.337 59.4607 242.268 59.3827 243.18 59.5171C244.092 59.6515 244.961 59.9946 245.719 60.5199C252.507 64.6228 253.587 72.3158 255.355 85.0611C255.66 87.2435 255.988 89.6005 256.37 92.1103C256.62 93.7361 256.839 95.2748 257.057 96.7261C258.727 108.227 259.654 114.556 264.815 117.524C267.38 118.998 269.704 117.219 272.399 115.167C275.455 112.832 278.947 110.202 283.148 112.723C291.124 117.503 292.019 128.6 293.361 145.394L293.481 146.889C294.922 164.763 297.082 166.29 300.029 168.418L299.494 169.324Z" fill="#E1A945"/>
<g opacity="0.4">
<path opacity="0.4" d="M299.494 169.324C295.948 166.803 293.874 164.523 292.467 146.998L292.347 145.503C291.026 129.037 290.164 118.168 282.657 113.683C279.056 111.501 276.175 113.683 273.13 116.051C270.37 118.157 267.533 120.318 264.335 118.496C258.716 115.222 257.788 108.74 256.042 96.9116C255.824 95.4494 255.606 93.9108 255.355 92.2958C254.973 89.7751 254.645 87.429 254.34 85.2247C252.616 72.8068 251.568 65.2993 245.217 61.4692C244.592 61.026 243.872 60.735 243.114 60.6194C242.356 60.5039 241.582 60.5669 240.853 60.8036C236.04 62.484 232.276 72.665 228.293 83.457C227.987 84.2536 227.693 85.0938 227.376 85.934C224.484 93.8889 221.211 102.913 216.682 104.583C216.042 104.817 215.357 104.904 214.679 104.836C214 104.767 213.346 104.547 212.765 104.19C208.258 101.636 207.451 94.6528 206.676 87.8873C205.901 81.1218 205.148 74.3236 200.893 71.7593C200.532 71.5259 200.119 71.385 199.691 71.3488C199.263 71.3127 198.832 71.3824 198.437 71.5519C193.156 73.6034 188.475 89.2295 188.431 89.3822L187.34 89.0767C187.536 88.4111 192.218 72.785 197.99 70.5262C198.541 70.2979 199.139 70.2055 199.734 70.2568C200.328 70.308 200.902 70.5015 201.405 70.8208C206.109 73.6361 206.927 80.8054 207.724 87.7345C208.52 94.6637 209.24 100.938 213.278 103.219C213.718 103.498 214.217 103.672 214.736 103.727C215.254 103.782 215.779 103.716 216.268 103.535C220.316 102.04 223.644 92.8959 226.318 85.5412C226.634 84.6901 226.929 83.8608 227.234 83.0533C231.49 71.541 235.167 61.6002 240.46 59.7451C241.337 59.4607 242.268 59.3827 243.18 59.5171C244.092 59.6515 244.961 59.9946 245.719 60.5199C252.507 64.6228 253.587 72.3158 255.355 85.0611C255.66 87.2435 255.988 89.6005 256.37 92.1103C256.62 93.7361 256.839 95.2748 257.057 96.7261C258.727 108.227 259.654 114.556 264.815 117.524C267.38 118.998 269.704 117.219 272.399 115.167C275.455 112.832 278.947 110.202 283.148 112.723C291.124 117.503 292.019 128.6 293.361 145.394L293.481 146.889C294.922 164.763 297.082 166.29 300.029 168.418L299.494 169.324Z" fill="black"/>
</g>
<path d="M281.043 108.86C281.854 109.391 282.53 110.105 283.017 110.945C283.504 111.784 283.788 112.725 283.847 113.694C283.847 115.472 282.592 116.192 281.053 115.309C280.238 114.781 279.559 114.068 279.072 113.228C278.585 112.388 278.303 111.444 278.249 110.475C278.249 108.74 279.46 108.019 281.043 108.86Z" fill="#E1A945"/>
<g opacity="0.2">
<path opacity="0.2" d="M281.043 108.86C281.854 109.391 282.53 110.105 283.017 110.945C283.504 111.784 283.788 112.725 283.847 113.694C283.847 115.472 282.592 116.192 281.053 115.309C280.238 114.781 279.559 114.068 279.072 113.228C278.585 112.388 278.303 111.444 278.249 110.475C278.249 108.74 279.46 108.019 281.043 108.86Z" fill="black"/>
</g>
<path d="M245.503 57.7815C246.316 58.3113 246.992 59.025 247.478 59.8648C247.963 60.7047 248.244 61.647 248.297 62.6155C248.297 64.3942 247.053 65.1144 245.514 64.2305C244.699 63.7032 244.019 62.9903 243.532 62.1502C243.044 61.31 242.763 60.3664 242.71 59.3965C242.71 57.5742 243.954 56.8976 245.503 57.7815Z" fill="#E1A945"/>
<g opacity="0.5">
<path opacity="0.5" d="M245.503 57.7815C246.316 58.3113 246.992 59.025 247.478 59.8648C247.963 60.7047 248.244 61.647 248.297 62.6155C248.297 64.3942 247.053 65.1144 245.514 64.2305C244.699 63.7032 244.019 62.9903 243.532 62.1502C243.044 61.31 242.763 60.3664 242.71 59.3965C242.71 57.5742 243.954 56.8976 245.503 57.7815Z" fill="white"/>
</g>
<path d="M201.187 68.0923C202.002 68.6172 202.682 69.3281 203.169 70.1665C203.657 71.0049 203.939 71.947 203.991 72.9154C203.991 74.705 202.747 75.4252 201.198 74.5413C200.386 74.0109 199.71 73.297 199.225 72.4573C198.74 71.6176 198.459 70.6756 198.404 69.7073C198.393 67.9286 199.648 67.1975 201.187 68.0923Z" fill="#E1A945"/>
<path opacity="0.65" d="M241.126 189.334V75.9796C241.09 75.3242 240.9 74.6865 240.572 74.1179C240.244 73.5493 239.787 73.0657 239.238 72.706L123.341 5.79326C122.25 5.19309 121.454 5.68413 121.454 6.88446V120.239C121.489 120.894 121.678 121.533 122.006 122.101C122.334 122.67 122.792 123.153 123.341 123.513L239.238 190.425C240.286 191.036 241.126 190.545 241.126 189.334Z" fill="white"/>
<path d="M240.09 191.234C239.704 191.219 239.328 191.107 238.998 190.907L123.069 123.994C122.432 123.588 121.901 123.035 121.522 122.382C121.142 121.729 120.924 120.995 120.886 120.24V6.88597C120.843 6.55455 120.899 6.21778 121.047 5.9182C121.195 5.61862 121.429 5.36964 121.719 5.20269C122.008 5.03575 122.341 4.95832 122.674 4.98019C123.008 5.00205 123.327 5.12223 123.592 5.32554L239.489 72.2383C240.126 72.6422 240.656 73.1929 241.036 73.8441C241.416 74.4954 241.634 75.2282 241.672 75.9811V189.336C241.698 189.666 241.636 189.998 241.492 190.297C241.349 190.596 241.128 190.852 240.853 191.038C240.62 191.169 240.357 191.237 240.09 191.234V191.234ZM122.501 6.08938C122.43 6.0709 122.355 6.0709 122.283 6.08938C122.176 6.18113 122.095 6.29813 122.045 6.42968C121.996 6.56122 121.98 6.7031 121.999 6.84232V120.24C122.033 120.801 122.197 121.346 122.477 121.832C122.757 122.319 123.147 122.734 123.614 123.045L239.511 189.958C239.622 190.045 239.753 190.102 239.893 190.125C240.032 190.148 240.175 190.135 240.308 190.088C240.482 189.99 240.581 189.717 240.581 189.336V75.9811C240.547 75.4219 240.384 74.8783 240.103 74.3933C239.823 73.9084 239.433 73.4956 238.966 73.1876L123.069 6.2858C122.902 6.16855 122.705 6.1005 122.501 6.08938Z" fill="#E1A945"/>
<path d="M221.188 163.571V88.9762C221.169 88.648 221.074 88.3288 220.909 88.0445C220.744 87.7601 220.514 87.5186 220.239 87.3393L208.836 80.7921C208.312 80.4866 207.886 80.7266 207.886 81.3377V155.889C207.902 156.218 207.997 156.538 208.162 156.823C208.327 157.107 208.558 157.348 208.836 157.526L220.239 164.073C220.762 164.422 221.188 164.171 221.188 163.571Z" fill="#E1A945"/>
<g opacity="0.3">
<path opacity="0.3" d="M221.188 163.571V88.9762C221.169 88.648 221.074 88.3288 220.909 88.0445C220.744 87.7601 220.514 87.5186 220.239 87.3393L208.836 80.7921C208.312 80.4866 207.886 80.7266 207.886 81.3377V155.889C207.902 156.218 207.997 156.538 208.162 156.823C208.327 157.107 208.558 157.348 208.836 157.526L220.239 164.073C220.762 164.422 221.188 164.171 221.188 163.571Z" fill="black"/>
</g>
<path d="M199.026 150.776V112.016C199.007 111.688 198.911 111.369 198.747 111.085C198.582 110.8 198.352 110.559 198.077 110.379L186.663 103.832C186.15 103.538 185.724 103.832 185.724 104.378V143.148C185.743 143.475 185.838 143.793 186.001 144.077C186.164 144.361 186.39 144.604 186.663 144.785L198.077 151.332C198.6 151.627 199.026 151.42 199.026 150.776Z" fill="#E1A945"/>
<g opacity="0.2">
<path opacity="0.2" d="M199.026 150.776V112.016C199.007 111.688 198.911 111.369 198.747 111.085C198.582 110.8 198.352 110.559 198.077 110.379L186.663 103.832C186.15 103.538 185.724 103.832 185.724 104.378V143.148C185.743 143.475 185.838 143.793 186.001 144.077C186.164 144.361 186.39 144.604 186.663 144.785L198.077 151.332C198.6 151.627 199.026 151.42 199.026 150.776Z" fill="white"/>
</g>
<path d="M176.887 137.988V78.7462C176.869 78.418 176.773 78.0988 176.608 77.8145C176.443 77.5301 176.213 77.2886 175.938 77.1094L164.524 70.5621C164.011 70.2566 163.585 70.4967 163.585 71.1077V130.338C163.603 130.666 163.697 130.984 163.86 131.268C164.023 131.553 164.25 131.795 164.524 131.975L175.938 138.522C176.44 138.828 176.887 138.588 176.887 137.988Z" fill="#E1A945"/>
<g opacity="0.2">
<path opacity="0.2" d="M176.887 137.988V78.7462C176.869 78.418 176.773 78.0988 176.608 77.8145C176.443 77.5301 176.213 77.2886 175.938 77.1094L164.524 70.5621C164.011 70.2566 163.585 70.4967 163.585 71.1077V130.338C163.603 130.666 163.697 130.984 163.86 131.268C164.023 131.553 164.25 131.795 164.524 131.975L175.938 138.522C176.44 138.828 176.887 138.588 176.887 137.988Z" fill="black"/>
</g>
<path d="M154.693 125.228V40.3545C154.676 40.0271 154.582 39.7082 154.419 39.4238C154.256 39.1394 154.028 38.8975 153.754 38.7177L142.34 32.1705C141.827 31.8649 141.402 32.1705 141.402 32.7161V117.546C141.421 117.873 141.516 118.191 141.679 118.475C141.841 118.759 142.068 119.002 142.34 119.183L153.754 125.73C154.278 126.036 154.693 125.785 154.693 125.228Z" fill="#E1A945"/>
<path d="M390.358 138.793C390.205 137.975 386.2 128.656 384.552 124.99L376.205 128.896L379.402 136.218L388.044 142.907C388.885 142.651 389.595 142.081 390.026 141.314C390.457 140.548 390.575 139.645 390.358 138.793V138.793Z" fill="#FFA8A7"/>
<path d="M373.731 236.399H367.292V245.784H373.731V236.399Z" fill="#FFA8A7"/>
<path d="M351.05 224.808L344.615 225.03L344.938 234.409L351.372 234.187L351.05 224.808Z" fill="#FFA8A7"/>
<path d="M352.659 102.005C350.329 102.059 348.051 102.702 346.036 103.873C344.021 105.045 342.335 106.707 341.136 108.705C337.578 113.997 331.315 123.043 331.315 123.043L343.045 126.764L352.659 102.005Z" fill="#E1A945"/>
<g opacity="0.7">
<path opacity="0.7" d="M352.659 102.005C350.329 102.059 348.051 102.702 346.036 103.873C344.021 105.045 342.335 106.707 341.136 108.705C337.578 113.997 331.315 123.043 331.315 123.043L343.045 126.764L352.659 102.005Z" fill="white"/>
</g>
<path d="M373.304 144.869C373.304 151.023 374.101 190.819 374.101 190.819C374.253 192.587 375.912 195.85 375.552 202.648C375.061 211.891 374.264 237.567 374.264 237.567C374.264 237.567 371.242 240.567 366.975 237.567C366.975 237.567 361.137 202.703 359.991 193.547C358.976 185.56 357.274 163.867 357.274 163.867L351.305 189.412C351.305 189.412 352.397 195.413 352.582 199.647C352.768 203.881 351.491 228.368 351.491 228.368C350.446 229.02 349.25 229.389 348.019 229.437C346.788 229.484 345.566 229.21 344.474 228.641C344.474 228.641 339.302 192.871 338.636 189.041C337.971 185.211 343.176 144.869 343.176 144.869H373.304Z" fill="#E1A945"/>
<path opacity="0.2" d="M373.304 144.869C373.304 151.023 374.101 190.819 374.101 190.819C374.253 192.587 375.912 195.85 375.552 202.648C375.061 211.891 374.264 237.567 374.264 237.567C374.264 237.567 371.242 240.567 366.975 237.567C366.975 237.567 361.137 202.703 359.991 193.547C358.976 185.56 357.274 163.867 357.274 163.867L351.305 189.412C351.305 189.412 352.397 195.413 352.582 199.647C352.768 203.881 351.491 228.368 351.491 228.368C350.446 229.02 349.25 229.389 348.019 229.437C346.788 229.484 345.566 229.21 344.474 228.641C344.474 228.641 339.302 192.871 338.636 189.041C337.971 185.211 343.176 144.869 343.176 144.869H373.304Z" fill="black"/>
<path d="M363.618 102.202C369.39 103.588 376.712 105.923 379.287 111.248C381.863 116.573 385.835 125.204 385.835 125.204L376.276 130.857L373.308 125.75V144.868C368.79 149.778 353.033 152.07 343.168 144.868V113.398C343.168 108.389 345.962 102.355 353.655 101.907L363.618 102.202Z" fill="#E1A945"/>
<path opacity="0.7" d="M363.618 102.202C369.39 103.588 376.712 105.923 379.287 111.248C381.863 116.573 385.835 125.204 385.835 125.204L376.276 130.857L373.308 125.75V144.868C368.79 149.778 353.033 152.07 343.168 144.868V113.398C343.168 108.389 345.962 102.355 353.655 101.907L363.618 102.202Z" fill="white"/>
<path d="M365.785 76.5166C366.303 76.457 366.828 76.5164 367.32 76.6904C367.811 76.8644 368.257 77.1483 368.622 77.5205C369.844 78.7645 369.593 81.0778 368.622 86.3811L364.847 86.8176L365.785 76.5166Z" fill="#263238"/>
<path d="M343.842 75.0293C343.032 75.0393 342.229 74.8795 341.485 74.5601C340.328 73.8945 340.023 75.2039 340.656 76.3497C341.075 77.1669 341.696 77.8635 342.46 78.3734C343.223 78.8833 344.105 79.1896 345.02 79.2632C345.02 79.0995 346.112 76.3169 346.112 76.3169L343.842 75.0293Z" fill="#263238"/>
<path d="M364.02 86.8152C364.576 87.1534 365.373 86.0732 366.06 85.353C366.332 85.0432 366.678 84.8074 367.065 84.6678C367.453 84.5282 367.87 84.4892 368.276 84.5547C368.683 84.6201 369.067 84.7878 369.391 85.0419C369.715 85.296 369.97 85.6283 370.131 86.0077C371.276 88.4192 368.679 91.6383 367.152 92.6968C366.724 93.0657 366.192 93.2906 365.63 93.3396C365.068 93.3885 364.504 93.2591 364.02 92.9696L363.616 102.201C362.942 103.681 361.911 104.969 360.616 105.952C359.321 106.935 357.802 107.581 356.196 107.832C350.74 108.563 351.886 104.1 353.664 101.907V98.5456C352.31 98.8391 350.917 98.9128 349.539 98.7639C348.83 98.5784 347.15 96.5815 346.059 94.2572C344.836 91.6928 342.785 87.1425 344.618 79.4495C346.56 71.1891 355.432 70.9381 360.735 74.2663C366.039 77.5945 364.02 86.8152 364.02 86.8152Z" fill="#FFA8A7"/>
<path d="M364.016 87.7545C364.289 87.7545 365.369 85.9867 366.057 85.3538C367.028 84.4699 365.784 76.515 365.784 76.515C365.784 76.515 366.755 73.5033 364.846 71.4955C362.936 69.4877 359.248 69.8368 356.541 69.7386C353.22 69.7554 349.93 69.0944 346.873 67.7963C343.032 66.1267 342.749 65.9303 342.268 67.6217C341.788 69.3131 341.614 73.165 343.905 75.7512L345.815 76.4605C345.815 76.4605 346.841 77.3662 350.42 77.8026C353.728 78.054 357.053 77.9919 360.35 77.6171C361.386 77.4753 361.605 78.4792 362.161 81.229C362.663 83.6515 363.067 87.7435 364.016 87.7545Z" fill="#263238"/>
<path d="M365.772 77.1339L369.155 75.3116C369.047 75.0844 368.895 74.8815 368.706 74.7152C368.518 74.5488 368.297 74.4225 368.059 74.3439C367.82 74.2653 367.567 74.2361 367.317 74.258C367.067 74.28 366.823 74.3526 366.602 74.4714C366.147 74.7233 365.808 75.1406 365.653 75.6365C365.499 76.1323 365.542 76.6687 365.772 77.1339V77.1339Z" fill="#263238"/>
<path d="M353.661 98.5466C355.975 98.1105 358.243 97.4602 360.437 96.6043C361.47 96.0697 362.316 95.232 362.86 94.2036C362.596 95.232 362.129 96.1969 361.485 97.0407C360.197 98.6775 353.661 99.8888 353.661 99.8888V98.5466Z" fill="#F28F8F"/>
<path d="M354.882 85.5594C354.878 85.6939 354.9 85.828 354.949 85.9536C354.997 86.0792 355.071 86.1938 355.164 86.2905C355.258 86.3872 355.37 86.4641 355.494 86.5166C355.618 86.5691 355.751 86.5961 355.886 86.596C356.107 86.6135 356.328 86.5633 356.52 86.452C356.711 86.3407 356.865 86.1737 356.959 85.9732C357.054 85.7727 357.085 85.5481 357.049 85.3294C357.012 85.1107 356.91 84.9083 356.756 84.7491C356.602 84.5898 356.403 84.4813 356.185 84.438C355.968 84.3947 355.742 84.4186 355.539 84.5066C355.336 84.5946 355.164 84.7425 355.046 84.9305C354.929 85.1186 354.872 85.3379 354.882 85.5594V85.5594Z" fill="#263238"/>
<path d="M355.939 81.765L358.122 82.9544C358.273 82.6588 358.305 82.3165 358.212 81.9979C358.119 81.6792 357.907 81.4085 357.62 81.2412C357.477 81.159 357.318 81.1072 357.154 81.0892C356.989 81.0712 356.823 81.0872 356.665 81.1364C356.508 81.1856 356.362 81.2668 356.237 81.3749C356.112 81.4831 356.011 81.6159 355.939 81.765V81.765Z" fill="#263238"/>
<path d="M354.965 92.3799L352.662 93.2419C352.714 93.3951 352.795 93.5364 352.902 93.6578C353.008 93.7793 353.138 93.8784 353.283 93.9494C353.428 94.0205 353.586 94.062 353.747 94.0717C353.908 94.0814 354.07 94.059 354.223 94.0058C354.531 93.8813 354.78 93.6433 354.918 93.3408C355.056 93.0383 355.073 92.6944 354.965 92.3799V92.3799Z" fill="#F28F8F"/>
<path d="M345.913 82.6034L347.866 81.0866C347.774 80.9545 347.656 80.8424 347.519 80.7572C347.383 80.672 347.23 80.6155 347.071 80.591C346.912 80.5665 346.749 80.5746 346.594 80.6148C346.438 80.6549 346.291 80.7264 346.164 80.8247C345.901 81.0317 345.728 81.3323 345.681 81.6637C345.634 81.995 345.717 82.3317 345.913 82.6034V82.6034Z" fill="#263238"/>
<path d="M346.512 85.2769C346.512 85.4087 346.538 85.5393 346.589 85.6611C346.639 85.7829 346.713 85.8935 346.806 85.9868C346.9 86.08 347.01 86.1539 347.132 86.2044C347.254 86.2548 347.384 86.2808 347.516 86.2808C347.648 86.2808 347.779 86.2548 347.9 86.2044C348.022 86.1539 348.133 86.08 348.226 85.9868C348.319 85.8935 348.393 85.7829 348.444 85.6611C348.494 85.5393 348.52 85.4087 348.52 85.2769C348.524 85.1423 348.502 85.0082 348.453 84.8826C348.405 84.757 348.332 84.6425 348.238 84.5458C348.144 84.449 348.032 84.3721 347.908 84.3197C347.784 84.2672 347.651 84.2402 347.516 84.2402C347.246 84.246 346.989 84.3581 346.801 84.5522C346.613 84.7463 346.509 85.0067 346.512 85.2769V85.2769Z" fill="#263238"/>
<path d="M351.631 84.3164L351.303 90.3726L348.15 89.2923L351.631 84.3164Z" fill="#F28F8F"/>
<path d="M325.356 120.761L351.087 127.538L358.681 159.477L334.217 152.373L325.356 120.761Z" fill="#E1A945"/>
<path d="M336.573 141.901C336.12 142.71 335.435 143.363 334.606 143.778C333.777 144.192 332.843 144.348 331.924 144.226L331.553 142.905L336.573 141.901Z" fill="#E1A945"/>
<path d="M342.325 142.904C342.434 143.755 344.191 145.327 347.148 146.309C350.509 147.4 355.67 146.844 355.67 146.844L355.212 145.25L342.325 142.904Z" fill="#E1A945"/>
<path opacity="0.43" d="M332.931 125.391L332.713 124.409C332.603 123.863 334.109 123.841 336.095 124.354L339.882 125.336C341.868 125.86 343.559 126.711 343.679 127.257L343.897 128.239L332.931 125.391Z" fill="#455A64"/>
<path d="M331.098 121.693C331.033 121.355 331.644 121.268 332.473 121.497L334.022 121.955C334.022 121.955 333.575 119.773 336.914 120.569C337.805 120.701 338.647 121.06 339.358 121.613C340.069 122.165 340.626 122.892 340.973 123.723L342.578 124.181C343.461 124.432 344.258 124.902 344.367 125.273L344.553 125.884L331.294 122.392L331.098 121.693Z" fill="#37474F"/>
<path d="M332.93 122.75C334.141 123.045 334.643 123.209 334.828 124.038C335.014 124.867 335.123 125.697 335.123 125.697L340.983 127.246C340.983 127.246 340.699 126.035 340.612 125.566C340.525 125.097 340.721 124.813 341.703 125.053L341.779 124.682L332.581 122.347L332.93 122.75Z" fill="#37474F"/>
<path d="M332.723 125.486L332.515 124.504C332.395 123.958 333.901 123.936 335.887 124.449L339.674 125.431C341.66 125.944 343.362 126.795 343.482 127.341L343.689 128.323L332.723 125.486Z" fill="#37474F"/>
<path d="M388.045 142.905L379.402 136.216C379.402 136.216 361.288 139.62 359.248 139.784C357.207 139.948 355.592 137.929 354.817 135.921C354.043 133.913 352.471 134.164 352.471 134.164C352.471 134.164 353.071 136.718 353.268 137.525C353.464 138.333 348.739 138.998 346.022 138.082C343.305 137.165 339.366 138.496 341.799 142.207C344.233 145.917 348.99 146.331 352.286 146.342C353.665 146.329 355.042 146.234 356.41 146.058C357.502 145.928 358.593 145.818 359.608 145.742C366.351 145.262 384.978 143.865 388.045 142.905Z" fill="#FFA8A7"/>
<path d="M327.962 130.103L329.108 134.173C329.326 134.959 332.316 136.356 334.215 136.901C336.114 137.447 338.176 137.992 337.281 140.688C336.452 143.121 333.342 143.678 331.76 143.612C330.694 143.432 329.699 142.961 328.884 142.25C328.069 141.539 327.467 140.617 327.144 139.586C326.053 136.476 326.642 133.147 326.206 131.325C325.769 129.503 327.024 129.023 327.962 130.103Z" fill="#F28F8F"/>
<path d="M367.292 242.61V241.682C366.681 241.955 365.241 247.422 362.687 249.746C360.658 251.601 357.886 253.751 357.231 255.813C356.577 257.876 361.094 259.152 362.993 258.814C365.175 258.421 369.027 256.872 369.987 255.431C370.948 253.991 371.395 251.863 372.17 250.805C372.945 249.746 374.745 248.622 375.171 247.357C375.297 246.215 375.171 245.06 374.8 243.974C374.505 242.828 374.178 241.584 373.796 241.682C373.796 241.824 373.796 242.391 373.796 242.391C372.86 243.116 371.706 243.501 370.522 243.483C369.573 243.515 367.281 243.33 367.292 242.61Z" fill="#37474F"/>
<path d="M344.932 232.403C344.594 232.403 344.321 232.883 343.59 233.68C342.486 234.795 341.202 235.717 339.792 236.408C337.381 237.619 332.7 239.474 330.572 240.434C329.24 241.034 329.306 242.617 330.681 243.544C332.056 244.472 335.362 245.115 339.334 244.221C341.516 243.741 344.321 241.744 346.1 241.842C347.878 241.94 351.217 241.929 352.538 241.023C353.858 240.118 353.323 238.175 352.952 236.506C352.581 234.836 351.97 231.912 351.37 232.032V232.61C350.595 233.778 346.645 234.258 344.943 233.396L344.932 232.403Z" fill="#37474F"/>
<path d="M65.9246 228.49L69.9512 234.088C68.1155 234.936 66.1131 235.361 64.0914 235.332C60.4904 235.474 59.4974 234.241 59.3665 234.001C58.7554 232.702 59.7048 230.345 59.9667 228.315L65.9246 228.49Z" fill="#37474F"/>
<path d="M59.3652 222.856C59.3652 222.856 59.9763 227.941 60.02 229.032C60.0636 230.123 64.9849 230.483 65.9234 228.486L66.0652 222.267L59.3652 222.856Z" fill="#F28F8F"/>
<path d="M59.3646 122.674C56.0037 127.912 52.8174 132.495 52.119 138.409C50.6786 150.838 55.3926 165.045 56.4075 174.233C54.4994 176.855 53.396 179.976 53.2321 183.214C53.2321 187.011 59.3646 222.857 59.3646 222.857C59.3646 222.857 63.8168 224.221 66.0646 222.268L70.2767 156.327L68.0943 148.295L59.3646 122.674Z" fill="#E1A945"/>
<path opacity="0.5" d="M59.3646 122.674C56.0037 127.912 52.8174 132.495 52.119 138.409C50.6786 150.838 55.3926 165.045 56.4075 174.233C54.4994 176.855 53.396 179.976 53.2321 183.214C53.2321 187.011 59.3646 222.857 59.3646 222.857C59.3646 222.857 63.8168 224.221 66.0646 222.268L70.2767 156.327L68.0943 148.295L59.3646 122.674Z" fill="white"/>
<path d="M90.4314 98.1113L112.594 108.751L99.292 138.661L78.6245 126.734L90.4314 98.1113Z" fill="#E1A945"/>
<path d="M109.987 109.298L98.5079 134.789L82.5981 125.622L91.6224 100.536L109.987 109.298Z" fill="#E1A945"/>
<path d="M91.6199 100.536L109.985 109.298L97.5888 135.061L80.2168 125.142L91.6199 100.536Z" fill="white"/>
<path d="M95.6147 104.223L96.0403 103.306C96.2804 102.804 97.7972 103.012 99.434 103.786L102.566 105.27C104.203 106.034 105.326 107.082 105.097 107.584L104.661 108.5L95.6147 104.223Z" fill="#E0E0E0"/>
<path d="M51.8476 108.859C50.2326 113.464 47.0354 120.775 48.0611 122.248C49.0869 123.722 55.2413 123.405 58.6677 123.274C63.0325 123.111 66.6553 122.936 66.6553 122.936L65.9242 115.297H59.7261L62.4541 107.572L51.8476 108.859Z" fill="#F28F8F"/>
<path d="M58.0573 92.4912C55.7985 96.2013 51.2373 109.296 51.2373 109.296C52.5046 110.733 54.1855 111.743 56.0495 112.187C57.6774 112.687 59.4072 112.755 61.0691 112.384L66.1104 99.835L58.0573 92.4912Z" fill="#E1A945"/>
<path opacity="0.4" d="M58.0573 92.4912C55.7985 96.2013 51.2373 109.296 51.2373 109.296C52.5046 110.733 54.1855 111.743 56.0495 112.187C57.6774 112.687 59.4072 112.755 61.0691 112.384L66.1104 99.835L58.0573 92.4912Z" fill="black"/>
<path d="M80.611 94.8271C84.5721 96.0166 86.9837 96.2239 91.3594 102.957C95.7351 109.689 105.316 123.046 106.265 124.65C107.586 126.832 108.153 129.538 107.018 131.59C105.883 133.641 102.861 132.681 98.5177 128.851C94.1747 125.021 85.9907 114.753 85.9907 114.753C85.9907 114.753 77.4574 105.139 80.611 94.8271Z" fill="#FFA8A7"/>
<path d="M77.4433 86.0959L76.3739 95.5566L67.0332 96.6369L68.3863 84.0771L77.4433 86.0959Z" fill="#FFA8A7"/>
<path d="M57.4683 72.2726C58.243 63.5429 62.9243 59.931 66.6453 59.069C74.0328 57.323 80.6236 60.0074 83.6135 65.1906C84.3992 66.5546 85.7196 71.6615 83.0898 74.6732C80.46 77.6849 57.4683 72.2726 57.4683 72.2726" fill="#263238"/>
<path d="M84.3456 75.3506C84.3456 75.3506 86.2879 78.6242 85.9933 78.9952C85.4769 79.2952 84.9118 79.502 84.3237 79.6063L84.3456 75.3506Z" fill="#F28F8F"/>
<path d="M78.4529 64.8204C80.4607 66.0098 83.9089 68.1813 84.3782 75.8197C84.8692 83.6655 83.3742 86.077 82.1957 87.0373C81.4428 87.692 77.5799 87.4738 75.6485 86.7645C73.2806 85.8697 68.0101 83.4363 65.7404 79.2679C63.1215 74.3684 62.8923 68.0285 66.3623 65.7479C68.1315 64.5756 70.171 63.8751 72.2871 63.7127C74.4032 63.5504 76.5256 63.9317 78.4529 64.8204V64.8204Z" fill="#FFA8A7"/>
<path d="M79.0378 65.2106C79.0378 65.2106 80.4236 72.4235 78.023 76.7883C78.023 76.7883 76.9318 73.9403 74.4875 74.6059C72.0432 75.2715 72.0759 78.4797 73.8764 80.2256C74.3325 80.7224 74.9197 81.0802 75.5703 81.2579C76.2209 81.4355 76.9085 81.4256 77.5538 81.2295C77.2144 83.4761 76.167 85.5557 74.5639 87.1657C72.019 87.7544 69.3596 87.612 66.8922 86.7548C64.4248 85.8976 62.2499 84.3605 60.6182 82.3207C55.1622 75.839 56.5917 64.8614 65.245 62.5044C73.8982 60.1474 79.0378 65.2106 79.0378 65.2106Z" fill="#263238"/>
<path d="M69.7204 231.4C69.7204 231.4 74.609 231.084 77.9808 230.658C81.3526 230.233 84.0261 231.88 83.2295 233.277C82.4329 234.674 80.5779 235.82 77.6862 236.791C75.2091 237.631 72.2302 238.231 69.6549 238.973C67.0797 239.715 65.2901 240.675 63.7951 240.163C62.1256 239.584 61.4054 238.919 61.5472 237.696C61.9116 235.958 62.3632 234.239 62.9003 232.546L69.7204 231.4Z" fill="#37474F"/>
<path d="M64.3193 225.989L62.5625 233.704C62.5625 233.704 62.3988 234.643 66.4144 235.243C70.43 235.843 76.7372 233.148 77.8175 232.591C78.8978 232.035 79.0178 230.954 75.0677 231.172C71.1175 231.391 69.7208 231.402 69.7208 231.402L71.0411 227.975L64.3193 225.989Z" fill="#FFA8A7"/>
<path d="M70.2784 156.325L68.096 148.294C63.9174 147.194 59.8871 145.593 56.0928 143.525C56.0928 143.525 58.3625 147.661 64.8224 149.92L68.2161 160.243L68.5107 183.856L70.2784 156.325Z" fill="#E1A945"/>
<path d="M59.3634 122.674C57.5629 125.609 53.2635 130.64 54.1692 135.463C55.2605 141.323 58.4359 145.425 68.0603 148.295L77.0955 181.032C77.0955 181.032 72.3924 185.396 70.952 189.619C69.5116 193.842 64.3175 226.022 64.3175 226.022C64.3175 226.022 65.9215 228.641 70.9956 228.008C70.9956 228.008 88.6841 187.633 89.939 185.003C91.4361 182.356 91.9647 179.269 91.4339 176.274C90.8774 172.029 84.8867 125.686 84.8867 125.686L59.3634 122.674Z" fill="#E1A945"/>
<path opacity="0.5" d="M59.3634 122.674C57.5629 125.609 53.2635 130.64 54.1692 135.463C55.2605 141.323 58.4359 145.425 68.0603 148.295L77.0955 181.032C77.0955 181.032 72.3924 185.396 70.952 189.619C69.5116 193.842 64.3175 226.022 64.3175 226.022C64.3175 226.022 65.9215 228.641 70.9956 228.008C70.9956 228.008 88.6841 187.633 89.939 185.003C91.4361 182.356 91.9647 179.269 91.4339 176.274C90.8774 172.029 84.8867 125.686 84.8867 125.686L59.3634 122.674Z" fill="white"/>
<path d="M57.7277 93.1681C58.4261 91.313 60.6521 89.7635 62.66 90.3091C68.9562 92.0223 78.7443 94.2811 80.6103 94.8267C80.6103 94.8267 79.781 109.012 87.0266 113.246C86.6883 115.942 84.8442 125.61 84.8442 125.61C84.8442 125.61 76.1145 129.844 68.9562 127.792C61.7979 125.741 59.3645 122.707 59.3645 122.707L62.9546 116.858C62.1907 114.949 59.2227 108.5 57.313 102.498C56.6108 99.4072 56.754 96.1843 57.7277 93.1681V93.1681Z" fill="#E1A945"/>
<path opacity="0.2" d="M57.7277 93.1681C58.4261 91.313 60.6521 89.7635 62.66 90.3091C68.9562 92.0223 78.7443 94.2811 80.6103 94.8267C80.6103 94.8267 79.781 109.012 87.0266 113.246C86.6883 115.942 84.8442 125.61 84.8442 125.61C84.8442 125.61 76.1145 129.844 68.9562 127.792C61.7979 125.741 59.3645 122.707 59.3645 122.707L62.9546 116.858C62.1907 114.949 59.2227 108.5 57.313 102.498C56.6108 99.4072 56.754 96.1843 57.7277 93.1681V93.1681Z" fill="black"/>
<path opacity="0.25" d="M61.9731 114.524C64.9572 116.319 68.0852 117.863 71.3248 119.14C68.385 119.083 65.5068 118.288 62.9552 116.827L61.9731 114.524Z" fill="#E1A945"/>
<path d="M63.8296 61.0111C63.8296 61.0111 60.8397 55.9152 53.5177 57.2356C46.1957 58.5559 43.2276 66.3253 43.3367 71.2466C43.4459 76.168 45.0936 79.6053 40.6851 85.4323C39.8162 86.5814 39.2039 87.9036 38.8896 89.3095C38.5753 90.7155 38.5663 92.1725 38.8631 93.5823C39.1599 94.992 39.7558 96.3217 40.6103 97.4815C41.4649 98.6413 42.5584 99.6043 43.8169 100.305C49.6985 103.579 51.128 97.883 49.764 93.0162C48.1926 87.4401 54.0306 86.469 55.591 82.246C57.1514 78.023 54.0851 69.1515 56.0493 66.1398C58.2317 62.8662 61.178 63.3245 62.5965 64.4375L63.8296 61.0111Z" fill="#263238"/>
<path d="M80.6129 94.8271C82.5699 95.243 84.4813 95.8497 86.3199 96.6386C88.7206 97.8171 98.0831 112.516 98.0831 112.516C98.0831 112.516 97.4175 118.048 89.7572 120.241L85.2287 114.523C85.2287 114.523 78.5723 104.583 80.6129 94.8271Z" fill="#E1A945"/>
<path opacity="0.1" d="M80.6129 94.8271C82.5699 95.243 84.4813 95.8497 86.3199 96.6386C88.7206 97.8171 98.0831 112.516 98.0831 112.516C98.0831 112.516 97.4175 118.048 89.7572 120.241L85.2287 114.523C85.2287 114.523 78.5723 104.583 80.6129 94.8271Z" fill="black"/>
<path d="M86.5558 116.246C84.5437 113.904 83.0257 111.18 82.0928 108.237C82.0928 108.237 82.0928 114.588 86.2721 117.872L86.5558 116.246Z" fill="#E1A945"/>
<path opacity="0.4" d="M86.5558 116.246C84.5437 113.904 83.0257 111.18 82.0928 108.237C82.0928 108.237 82.0928 114.588 86.2721 117.872L86.5558 116.246Z" fill="black"/>
<path d="M96.4082 100.27C96.5501 99.9537 97.2157 99.9755 97.8923 100.27L99.1144 100.87C99.1144 100.87 100.064 98.8952 102.901 100.085C105.738 101.274 104.865 103.555 104.865 103.555L106.164 104.22C106.884 104.58 107.364 105.137 107.255 105.464L107.037 106.043L96.1245 100.805L96.4082 100.27Z" fill="#455A64"/>
<path d="M97.5228 101.516C98.5486 101.975 98.9414 102.193 98.614 102.979C98.2867 103.764 97.8175 104.517 97.8175 104.517L102.641 106.831C102.641 106.831 103.153 105.739 103.372 105.259C103.59 104.779 103.983 104.594 104.747 104.965L105.074 104.637L97.4355 101.091L97.5228 101.516Z" fill="#455A64"/>
<path d="M95.5264 103.949L95.9628 103.033C96.2029 102.52 97.7197 102.738 99.3565 103.513L102.488 104.997C104.114 105.761 105.249 106.797 105.009 107.31L104.572 108.227L95.5264 103.949Z" fill="#455A64"/>
</svg>
