<svg width="500" height="411" viewBox="0 0 500 411" fill="none" xmlns="http://www.w3.org/2000/svg">
<path d="M76.9998 372.783C173.771 423.334 330.656 423.334 427.427 372.783C524.198 322.232 524.186 240.267 427.427 189.716C330.667 139.164 173.771 139.164 76.9998 189.716C-19.7713 240.267 -19.7598 322.266 76.9998 372.783Z" fill="#F5F5F5"/>
<path d="M450.304 285.066C435.763 291.996 412.191 291.996 397.628 285.066C383.064 278.136 383.076 266.887 397.628 259.958C412.18 253.028 435.74 253.028 450.304 259.958C464.868 266.887 464.856 278.125 450.304 285.066Z" fill="#E0E0E0"/>
<path d="M140.565 156.399C122.144 167.035 107.222 192.894 107.222 214.145C107.222 235.395 122.144 244.023 140.565 233.397C158.986 222.772 173.907 196.902 173.907 175.651C173.907 154.401 158.974 145.762 140.565 156.399ZM137.747 216.882C135.475 218.315 132.875 219.145 130.194 219.296C123.726 219.296 123.022 211.662 123.022 208.382C123.022 195.562 132.4 179.335 143.498 172.926C145.765 171.49 148.361 170.659 151.04 170.512C157.519 170.512 158.212 178.146 158.212 181.426C158.154 194.234 148.788 210.472 137.747 216.882Z" fill="#455A64"/>
<path d="M151.907 170.582C151.6 170.54 151.292 170.517 150.983 170.513C149.36 170.568 147.763 170.924 146.271 171.564C146.418 172.6 146.491 173.646 146.49 174.694C146.49 187.502 137.112 203.74 126.013 210.138C125.107 210.665 124.161 211.12 123.184 211.501C123.396 213.43 124.078 215.278 125.17 216.883C125.738 217.66 126.487 218.287 127.353 218.708C128.219 219.129 129.174 219.331 130.136 219.297C132.819 219.152 135.42 218.321 137.689 216.883C148.788 210.473 158.155 194.235 158.155 181.427C158.155 178.308 157.519 171.275 151.907 170.582Z" fill="#263238"/>
<path d="M164.092 154.043L147.553 144.492C141.49 140.946 133.128 141.431 123.889 146.721C105.41 157.357 90.5464 183.216 90.5464 204.467C90.5464 214.977 94.196 222.38 100.109 225.914L100.271 226.029H100.363L116.671 235.442H116.752C113.914 233.674 111.638 231.134 110.192 228.12C108.924 225.526 108.078 222.746 107.685 219.885C107.384 217.944 107.23 215.982 107.223 214.018C107.223 192.756 122.145 166.897 140.566 156.272C142.27 155.295 144.046 154.449 145.879 153.742C148.553 152.653 151.383 151.994 154.264 151.791C157.681 151.522 161.102 152.261 164.104 153.916L164.092 154.043Z" fill="#37474F"/>
<path d="M137.286 73.602L121.729 64.6167L98.2955 78.1409L43.9102 271.279L59.4785 280.264L82.5886 266.913L137.286 73.602Z" fill="#37474F"/>
<path d="M82.5876 266.913L59.4775 280.264L113.944 87.08L137.285 73.6021L82.5876 266.913Z" fill="#455A64"/>
<path d="M59.4785 280.265L113.945 87.0807L98.2955 78.1416L43.9102 271.28L59.4785 280.265Z" fill="#263238"/>
<path d="M49.974 125.273C31.5645 135.91 16.6313 161.769 16.6313 183.02C16.6313 204.27 31.5876 212.909 49.974 202.284C68.3604 191.659 83.3167 165.788 83.3167 144.538C83.3167 123.287 68.4528 114.648 49.974 125.273ZM47.1329 185.757C44.8617 187.191 42.2619 188.022 39.5797 188.171C33.1006 188.171 32.4076 180.537 32.4076 177.257C32.4076 164.448 41.774 148.21 52.8729 141.8C55.1425 140.363 57.7432 139.531 60.4261 139.387C66.8936 139.387 67.5981 147.021 67.5981 150.301C67.5981 163.109 58.2202 179.347 47.1329 185.757Z" fill="#455A64"/>
<path d="M61.3503 139.456C61.0439 139.414 60.7354 139.391 60.4263 139.386C58.7991 139.441 57.1967 139.802 55.7027 140.449C55.8499 141.482 55.9232 142.524 55.9221 143.567C55.9221 156.375 46.5557 172.613 35.4569 179.012C34.5563 179.535 33.6182 179.99 32.6504 180.374C32.861 182.31 33.5474 184.163 34.6484 185.768C35.2172 186.543 35.9672 187.168 36.8329 187.586C37.6985 188.005 38.6536 188.206 39.6146 188.17C42.2968 188.022 44.8966 187.191 47.1678 185.756C58.2551 179.347 67.633 163.108 67.633 150.3C67.5984 147.182 66.9516 140.148 61.3503 139.456Z" fill="#263238"/>
<path d="M73.534 122.918L56.9955 113.367C50.9553 109.844 42.5936 110.329 33.3542 115.676C14.8754 126.302 0 152.16 0 173.423C0 183.932 3.66111 191.335 9.56277 194.87L9.72446 194.985H9.81685L26.1013 204.467H26.1937C23.3529 202.704 21.0734 200.168 19.6222 197.156C18.3556 194.558 17.5097 191.774 17.116 188.91C16.8144 186.969 16.66 185.008 16.654 183.043C16.654 161.781 31.5872 135.922 49.9967 125.297C51.7031 124.325 53.4788 123.479 55.3093 122.768C57.9875 121.678 60.8214 121.019 63.7056 120.816C67.1191 120.548 70.5361 121.287 73.534 122.941V122.918Z" fill="#37474F"/>
<path d="M310.351 340.328L321.265 360.943C329.953 359.566 338.329 356.661 346.004 352.362L319.614 346.437C316.923 347.973 313.735 339.739 310.351 340.328Z" fill="#E1A945"/>
<path opacity="0.2" d="M310.351 340.328L321.265 360.943C329.953 359.566 338.329 356.661 346.004 352.362L319.614 346.437C316.923 347.973 313.735 339.739 310.351 340.328Z" fill="black"/>
<path d="M287.98 328.144C293.258 325.095 300.488 323.905 307.325 324.529L313.157 291.036L307.325 280.642L277.228 284.591L244.89 331.943L245.894 333.387L281.535 335.974C282.113 333.11 284.192 330.35 287.98 328.144Z" fill="#E1A945"/>
<path opacity="0.7" d="M287.98 328.144C293.258 325.095 300.488 323.905 307.325 324.529L313.157 291.036L307.325 280.642L277.228 284.591L244.89 331.943L245.894 333.387L281.535 335.974C282.113 333.11 284.192 330.35 287.98 328.144Z" fill="black"/>
<path d="M313.158 268.272V262.359L307.325 283.586L307.337 289.5L313.158 268.272Z" fill="#E1A945"/>
<path opacity="0.7" d="M313.158 268.272V262.359L307.325 283.586L307.337 289.5L313.158 268.272Z" fill="black"/>
<path d="M287.981 287.201C293.259 284.164 300.489 282.963 307.326 283.587L313.158 262.359C280.613 259.391 250.053 272.199 244.902 290.99C244.752 291.521 244.59 292.248 244.498 292.78L281.548 295.032C282.114 292.168 284.193 289.396 287.981 287.201Z" fill="#E1A945"/>
<path opacity="0.6" d="M287.981 287.201C293.259 284.164 300.489 282.963 307.326 283.587L313.158 262.359C280.613 259.391 250.053 272.199 244.902 290.99C244.752 291.521 244.59 292.248 244.498 292.78L281.548 295.032C282.114 292.168 284.193 289.396 287.981 287.201Z" fill="black"/>
<path d="M281.548 319.182V295.032L244.498 292.78V316.93L281.548 319.182Z" fill="#E1A945"/>
<path opacity="0.8" d="M281.548 319.182V295.032L244.498 292.78V316.93L281.548 319.182Z" fill="black"/>
<path d="M319.648 293.115C324.129 295.713 326.301 299.12 326.174 302.516L363.466 302.897C363.997 285.515 342.897 270.998 313.158 268.249L307.325 289.476C311.644 289.805 315.844 291.045 319.648 293.115V293.115Z" fill="#E1A945"/>
<path opacity="0.8" d="M319.648 293.115C324.129 295.713 326.301 299.12 326.174 302.516L363.466 302.897C363.997 285.515 342.897 270.998 313.158 268.249L307.325 289.476C311.644 289.805 315.844 291.045 319.648 293.115V293.115Z" fill="white"/>
<path d="M326.172 302.516V328.236L363.465 328.617V302.897L326.172 302.516Z" fill="#E1A945"/>
<path opacity="0.6" d="M326.172 302.516V328.236L363.465 328.617V302.897L326.172 302.516Z" fill="white"/>
<path d="M326.184 302.516V328.04C326.184 324.737 324.013 321.422 319.647 318.893C316.183 316.883 311.84 325.002 307.336 324.587V289.5C317.522 290.366 326.369 295.506 326.184 302.516Z" fill="#E1A945"/>
<path opacity="0.6" d="M326.184 302.516V328.04C326.184 324.737 324.013 321.422 319.647 318.893C316.183 316.883 311.84 325.002 307.336 324.587V289.5C317.522 290.366 326.369 295.506 326.184 302.516Z" fill="white"/>
<path d="M326.197 313.973H281.433V344.07H326.197V313.973Z" fill="#E0E0E0"/>
<path d="M287.98 323.27C279.238 318.223 279.238 310.034 287.98 304.987C296.723 299.94 310.906 299.94 319.648 304.987C328.391 310.034 328.38 318.223 319.648 323.27C310.917 328.317 296.723 328.317 287.98 323.27Z" fill="#FAFAFA"/>
<path d="M326.174 328.236C326.058 331.459 323.864 343.966 319.648 346.415L346.038 352.34C357.588 345.687 363.224 338.007 363.501 328.594L326.174 328.236Z" fill="#37474F"/>
<path d="M363.466 308.532V328.616L346.004 352.362V332.289L363.466 308.532Z" fill="#37474F"/>
<path d="M326.174 308.152C326.058 311.374 323.864 314.573 319.648 317.033L346.038 332.267C357.588 325.614 363.224 317.934 363.501 308.521L326.174 308.152Z" fill="#455A64"/>
<path d="M346.005 332.289V352.362L319.615 337.128L319.649 317.033L346.005 332.289Z" fill="#263238"/>
<path d="M346.005 338.631L321.266 347.212V360.944L346.005 352.363V338.631Z" fill="#E1A945"/>
<path opacity="0.2" d="M346.005 338.631L321.266 347.212V360.944L346.005 352.363V338.631Z" fill="black"/>
<path d="M310.351 326.597L321.265 347.212C329.953 345.836 338.329 342.931 346.004 338.631L319.614 323.421C316.731 325.002 313.598 326.076 310.351 326.597V326.597Z" fill="#E1A945"/>
<path d="M310.34 326.597V332.856L321.265 360.944V347.212L310.34 326.597Z" fill="#E1A945"/>
<path opacity="0.4" d="M310.34 326.597V332.856L321.265 360.944V347.212L310.34 326.597Z" fill="black"/>
<path d="M293.258 344.208C288.315 341.344 280.889 339.738 281.547 336.008L244.162 318.072C244.162 318.072 244.162 326.965 244.162 328.2C244.243 345.524 266.995 360.458 297.589 362.305C305.505 362.85 313.458 362.408 321.265 360.989V350.929C313.608 352.223 299.31 347.672 293.258 344.208Z" fill="#E1A945"/>
<path opacity="0.5" d="M293.258 344.208C288.315 341.344 280.889 339.738 281.547 336.008L244.162 318.072C244.162 318.072 244.162 326.965 244.162 328.2C244.243 345.524 266.995 360.458 297.589 362.305C305.505 362.85 313.458 362.408 321.265 360.989V350.929C313.608 352.223 299.31 347.672 293.258 344.208Z" fill="black"/>
<path d="M287.98 327.046C283.037 324.194 280.889 320.325 281.547 316.594L244.497 314.342C241.033 333.26 264.824 350.214 297.624 352.201C305.54 352.74 313.492 352.297 321.3 350.884L310.386 330.269C302.694 331.608 294.032 330.546 287.98 327.046Z" fill="#E1A945"/>
<path opacity="0.3" d="M287.98 327.046C283.037 324.194 280.889 320.325 281.547 316.594L244.497 314.342C241.033 333.26 264.824 350.214 297.624 352.201C305.54 352.74 313.492 352.297 321.3 350.884L310.386 330.269C302.694 331.608 294.032 330.546 287.98 327.046Z" fill="black"/>
<path d="M152.763 274.915C153.727 267.756 153.304 260.478 151.516 253.479C149.598 245.845 145.741 240.533 141.179 237.738C136.617 234.943 128.313 237.876 134.943 246.804C141.572 255.731 148.305 267.096 149.021 275.677L152.763 274.915Z" fill="#37474F"/>
<path d="M151.48 275.745C151.404 275.744 151.329 275.727 151.26 275.697C151.19 275.667 151.127 275.623 151.075 275.568C151.022 275.513 150.981 275.449 150.953 275.378C150.926 275.308 150.912 275.232 150.914 275.156C151.237 259.369 143.834 243.488 137.055 239.839C136.919 239.767 136.816 239.644 136.771 239.496C136.726 239.349 136.74 239.19 136.812 239.053C136.884 238.917 137.008 238.815 137.155 238.77C137.302 238.724 137.461 238.739 137.598 238.811C144.724 242.622 152.45 258.987 152.115 275.179C152.116 275.26 152.099 275.34 152.066 275.413C152.034 275.487 151.986 275.553 151.926 275.606C151.866 275.66 151.795 275.7 151.718 275.724C151.641 275.748 151.56 275.755 151.48 275.745Z" fill="white"/>
<path d="M153.328 302.841C146.052 307.068 137.783 303.187 136.351 295.068C135.854 292.239 135.358 289.294 132.736 287.688C130.542 286.326 127.585 286.152 125.703 284.328C123.023 281.717 124.548 278.357 126.234 275.712C127.805 273.31 129.075 270.503 127.597 267.754C126.69 266.312 125.972 264.76 125.46 263.135C125.211 262.324 125.177 261.462 125.361 260.634C125.546 259.806 125.942 259.04 126.511 258.411C127.897 257.094 130.08 257.152 131.939 257.603C134.954 258.409 137.728 259.935 140.024 262.049C141.652 263.446 142.576 264.867 144.921 265.294C146.653 265.606 148.455 265.294 150.164 265.699C151.241 265.99 152.244 266.509 153.104 267.221C153.965 267.932 154.664 268.819 155.153 269.822C156.851 273.136 156.308 276.994 156.042 280.563C155.777 284.131 155.442 287.353 155.026 290.737C154.68 293.602 154.287 296.512 153.871 299.318C153.802 299.757 153.721 302.633 153.328 302.841Z" fill="#455A64"/>
<path d="M154.021 298.845C153.882 298.844 153.749 298.793 153.646 298.702C153.542 298.611 153.474 298.485 153.455 298.349C150.925 280.216 135.657 263.343 129.975 260.444C129.908 260.409 129.848 260.361 129.799 260.303C129.75 260.245 129.712 260.178 129.689 260.106C129.666 260.033 129.658 259.957 129.664 259.881C129.671 259.806 129.692 259.732 129.727 259.664C129.762 259.597 129.809 259.537 129.867 259.488C129.926 259.439 129.993 259.402 130.065 259.379C130.137 259.356 130.214 259.347 130.289 259.354C130.365 259.36 130.439 259.381 130.506 259.416C136.523 262.488 151.976 279.385 154.598 298.199C154.618 298.35 154.576 298.503 154.483 298.625C154.39 298.746 154.253 298.825 154.101 298.845H154.021Z" fill="white"/>
<path d="M131.455 279.21C131.302 279.241 131.143 279.209 131.013 279.123C130.883 279.036 130.793 278.901 130.762 278.748C130.731 278.595 130.763 278.436 130.849 278.306C130.936 278.176 131.071 278.086 131.224 278.055C135.804 276.28 140.736 275.6 145.626 276.069C145.701 276.074 145.775 276.095 145.842 276.13C145.909 276.165 145.969 276.213 146.017 276.271C146.066 276.329 146.102 276.396 146.124 276.469C146.146 276.541 146.153 276.617 146.146 276.692C146.138 276.768 146.116 276.842 146.08 276.909C146.044 276.977 145.995 277.036 145.936 277.085C145.877 277.133 145.809 277.169 145.736 277.191C145.663 277.213 145.586 277.22 145.51 277.212C140.799 276.806 136.058 277.485 131.651 279.199C131.586 279.21 131.521 279.214 131.455 279.21Z" fill="white"/>
<path d="M154.945 307.114C153.919 306.422 153.07 305.498 152.468 304.416C151.866 303.335 151.527 302.126 151.48 300.889V126.357C151.546 125.081 151.914 123.84 152.552 122.734C153.19 121.628 154.082 120.688 155.153 119.993L361.411 0.92049C362.503 0.342456 363.715 0.0278333 364.95 0.00176397C366.186 -0.0243054 367.41 0.238896 368.525 0.770345C369.553 1.45321 370.403 2.37079 371.005 3.44721C371.608 4.52364 371.945 5.72799 371.99 6.96074V181.551C371.924 182.826 371.557 184.068 370.918 185.174C370.28 186.28 369.389 187.219 368.317 187.914L162.06 306.987C160.967 307.564 159.753 307.876 158.518 307.898C157.282 307.92 156.058 307.652 154.945 307.114V307.114Z" fill="#E1A945"/>
<path d="M172.178 134.015L152.544 122.696C151.881 123.793 151.511 125.042 151.47 126.323V300.89C151.435 302.138 151.738 303.373 152.347 304.464C152.956 305.554 153.849 306.46 154.931 307.085C156.012 307.71 157.243 308.03 158.492 308.013C159.741 307.996 160.962 307.642 162.026 306.988L172.143 301.144L172.178 134.015Z" fill="#E1A945"/>
<path opacity="0.2" d="M172.178 134.015L152.544 122.696C151.881 123.793 151.511 125.042 151.47 126.323V300.89C151.435 302.138 151.738 303.373 152.347 304.464C152.956 305.554 153.849 306.46 154.931 307.085C156.012 307.71 157.243 308.03 158.492 308.013C159.741 307.996 160.962 307.642 162.026 306.988L172.143 301.144L172.178 134.015Z" fill="black"/>
<path d="M162.06 123.977L368.295 4.84681C370.327 3.69189 371.967 4.62737 371.967 6.96032V181.55C371.901 182.826 371.534 184.067 370.896 185.173C370.257 186.279 369.366 187.219 368.295 187.914L162.06 306.987C160.039 308.141 158.399 307.206 158.399 304.861V130.341C158.464 129.067 158.829 127.826 159.465 126.72C160.102 125.613 160.991 124.674 162.06 123.977Z" fill="#E1A945"/>
<g opacity="0.5">
<path opacity="0.5" d="M162.06 123.977L368.295 4.84681C370.327 3.69189 371.967 4.62737 371.967 6.96032V181.55C371.901 182.826 371.534 184.067 370.896 185.173C370.257 186.279 369.366 187.219 368.295 187.914L162.06 306.987C160.039 308.141 158.399 307.206 158.399 304.861V130.341C158.464 129.067 158.829 127.826 159.465 126.72C160.102 125.613 160.991 124.674 162.06 123.977Z" fill="white"/>
</g>
<path opacity="0.4" d="M179.06 265.341C179.27 252.753 180.153 240.185 181.705 227.691C183.31 214.12 186.602 191.218 199.699 183.665C212.795 176.112 217.704 189.763 219.586 196.496C222.046 205.216 234.843 199.695 236.633 185.305C238.423 170.914 239.567 125.122 254.904 116.263C270.241 107.405 275.207 128.725 276.951 134.673C280.416 146.361 290.464 143.139 293.756 135.389C297.047 127.639 305.998 125.757 309.382 136.648C312.766 147.539 314.868 160.047 325.839 153.625C335.46 147.989 331.036 137.722 340.426 132.837C343.163 131.428 348.614 132.213 349.839 140.251C350.957 148.75 351.448 157.32 351.305 165.891L179.06 265.341Z" fill="white"/>
<path d="M179.06 266.195C178.835 266.192 178.621 266.1 178.463 265.94C178.305 265.78 178.217 265.565 178.217 265.34C178.428 252.71 179.311 240.099 180.862 227.563C182.155 216.625 185.193 191.021 199.271 182.89C203.44 180.488 207.205 179.945 210.474 181.273C214.828 183.04 218.073 187.937 220.406 196.287C221.099 198.736 222.716 200.006 224.945 199.833C229.426 199.486 234.704 193.931 235.79 185.223C236.079 182.913 236.356 179.749 236.668 176.088C238.377 156.304 241.287 123.192 254.488 115.546C258.542 113.237 262.261 112.705 265.564 114.045C272.828 116.99 275.958 128.02 277.448 133.321C277.563 133.748 277.667 134.129 277.771 134.476C279.053 138.853 281.421 141.405 284.435 141.532C287.75 141.752 291.307 139.026 292.97 135.099C294.818 130.745 298.421 128.054 302.025 128.239C305.628 128.424 308.631 131.404 310.19 136.451C310.56 137.606 310.918 138.841 311.264 140.042C313.193 146.591 314.994 152.747 318.713 154.248C320.503 154.952 322.698 154.525 325.412 152.943C329.939 150.287 331.186 146.625 332.411 142.745C333.635 138.864 335.032 134.741 340.033 132.143C340.95 131.693 341.96 131.464 342.981 131.476C344.002 131.488 345.006 131.74 345.912 132.212C347.667 133.101 349.919 135.215 350.67 140.181C351.794 148.73 352.288 157.349 352.148 165.97C352.15 166.083 352.129 166.194 352.085 166.297C352.042 166.401 351.977 166.494 351.896 166.571C351.814 166.648 351.718 166.708 351.612 166.745C351.506 166.783 351.394 166.798 351.282 166.79C351.058 166.784 350.844 166.69 350.689 166.528C350.533 166.366 350.448 166.149 350.451 165.924C350.598 157.404 350.112 148.884 348.995 140.435C348.349 136.173 346.547 134.429 345.15 133.725C344.483 133.376 343.744 133.188 342.992 133.176C342.24 133.164 341.496 133.328 340.819 133.656C336.43 135.966 335.263 139.5 334.028 143.276C332.711 147.284 331.348 151.43 326.267 154.41C323.067 156.269 320.4 156.72 318.09 155.819C313.609 154.04 311.68 147.469 309.636 140.516C309.289 139.361 308.943 138.125 308.573 136.947C307.233 132.628 304.808 130.075 301.944 129.925C299.08 129.775 296.077 132.131 294.529 135.769C292.566 140.389 288.385 143.461 284.331 143.23C282.137 143.103 278.164 141.856 276.143 134.961C276.039 134.626 275.935 134.233 275.808 133.806C274.387 128.77 271.419 118.272 264.917 115.639C262.134 114.484 258.911 114.981 255.331 117.036C242.858 124.243 239.936 158.082 238.365 176.261C238.042 179.933 237.765 183.11 237.476 185.5C236.321 195.075 230.235 201.196 225.072 201.588C222.035 201.819 219.679 200.029 218.778 196.807C216.595 189.057 213.673 184.53 209.827 182.948C207.078 181.793 203.81 182.336 200.114 184.461C186.775 192.164 183.807 217.18 182.548 227.863C181.006 240.323 180.127 252.856 179.915 265.409C179.897 265.624 179.799 265.824 179.641 265.969C179.483 266.115 179.275 266.195 179.06 266.195V266.195Z" fill="#F5F5F5"/>
<path d="M203.476 183.503C203.332 183.503 203.194 183.445 203.093 183.344C202.991 183.242 202.934 183.104 202.934 182.96V181.897C202.922 181.82 202.928 181.741 202.949 181.667C202.971 181.592 203.009 181.522 203.06 181.463C203.111 181.404 203.174 181.357 203.245 181.325C203.316 181.292 203.393 181.275 203.471 181.275C203.549 181.275 203.626 181.292 203.696 181.325C203.767 181.357 203.83 181.404 203.881 181.463C203.932 181.522 203.97 181.592 203.992 181.667C204.014 181.741 204.019 181.82 204.008 181.897V182.96C204.008 183.102 203.952 183.238 203.853 183.339C203.753 183.441 203.618 183.499 203.476 183.503V183.503Z" fill="#F5F5F5"/>
<path d="M203.476 247.59C203.405 247.59 203.334 247.576 203.269 247.548C203.203 247.521 203.143 247.481 203.093 247.431C203.042 247.38 203.002 247.32 202.975 247.255C202.948 247.189 202.934 247.118 202.934 247.047V244.887C202.952 244.758 203.017 244.64 203.116 244.555C203.214 244.47 203.34 244.423 203.471 244.423C203.601 244.423 203.727 244.47 203.825 244.555C203.924 244.64 203.989 244.758 204.008 244.887V247.024C204.011 247.096 203.999 247.168 203.974 247.236C203.949 247.304 203.911 247.366 203.861 247.418C203.812 247.471 203.752 247.513 203.686 247.543C203.62 247.572 203.549 247.588 203.476 247.59V247.59ZM203.476 243.316C203.332 243.316 203.194 243.259 203.093 243.157C202.991 243.056 202.934 242.918 202.934 242.774V240.637C202.952 240.508 203.017 240.39 203.116 240.305C203.214 240.22 203.34 240.173 203.471 240.173C203.601 240.173 203.727 240.22 203.825 240.305C203.924 240.39 203.989 240.508 204.008 240.637V242.774C204.008 242.916 203.952 243.052 203.853 243.153C203.753 243.255 203.618 243.313 203.476 243.316V243.316ZM203.476 239.043C203.405 239.043 203.334 239.029 203.269 239.002C203.203 238.975 203.143 238.935 203.093 238.884C203.042 238.834 203.002 238.774 202.975 238.708C202.948 238.642 202.934 238.572 202.934 238.5V236.375C202.922 236.298 202.928 236.22 202.949 236.145C202.971 236.07 203.009 236 203.06 235.941C203.111 235.882 203.174 235.835 203.245 235.803C203.316 235.77 203.393 235.753 203.471 235.753C203.549 235.753 203.626 235.77 203.696 235.803C203.767 235.835 203.83 235.882 203.881 235.941C203.932 236 203.97 236.07 203.992 236.145C204.014 236.22 204.019 236.298 204.008 236.375V238.5C204.008 238.642 203.952 238.779 203.853 238.88C203.753 238.982 203.618 239.04 203.476 239.043V239.043ZM203.476 234.77C203.334 234.77 203.198 234.714 203.097 234.615C202.995 234.516 202.937 234.381 202.934 234.239V232.102C202.922 232.025 202.928 231.946 202.949 231.871C202.971 231.797 203.009 231.727 203.06 231.668C203.111 231.609 203.174 231.562 203.245 231.53C203.316 231.497 203.393 231.48 203.471 231.48C203.549 231.48 203.626 231.497 203.696 231.53C203.767 231.562 203.83 231.609 203.881 231.668C203.932 231.727 203.97 231.797 203.992 231.871C204.014 231.946 204.019 232.025 204.008 232.102V234.239C204.005 234.379 203.948 234.512 203.849 234.611C203.75 234.71 203.616 234.767 203.476 234.77V234.77ZM203.476 230.497C203.334 230.497 203.198 230.441 203.097 230.342C202.995 230.243 202.937 230.107 202.934 229.965V227.829C202.922 227.752 202.928 227.673 202.949 227.598C202.971 227.523 203.009 227.454 203.06 227.395C203.111 227.336 203.174 227.289 203.245 227.256C203.316 227.224 203.393 227.207 203.471 227.207C203.549 227.207 203.626 227.224 203.696 227.256C203.767 227.289 203.83 227.336 203.881 227.395C203.932 227.454 203.97 227.523 203.992 227.598C204.014 227.673 204.019 227.752 204.008 227.829V229.965C204.005 230.105 203.948 230.239 203.849 230.338C203.75 230.437 203.616 230.494 203.476 230.497V230.497ZM203.476 226.224C203.334 226.224 203.198 226.168 203.097 226.069C202.995 225.969 202.937 225.834 202.934 225.692V223.556C202.922 223.479 202.928 223.4 202.949 223.325C202.971 223.25 203.009 223.181 203.06 223.122C203.111 223.063 203.174 223.016 203.245 222.983C203.316 222.951 203.393 222.934 203.471 222.934C203.549 222.934 203.626 222.951 203.696 222.983C203.767 223.016 203.83 223.063 203.881 223.122C203.932 223.181 203.97 223.25 203.992 223.325C204.014 223.4 204.019 223.479 204.008 223.556V225.692C204.005 225.832 203.948 225.966 203.849 226.065C203.75 226.164 203.616 226.221 203.476 226.224V226.224ZM203.476 221.95C203.334 221.95 203.198 221.895 203.097 221.795C202.995 221.696 202.937 221.561 202.934 221.419V219.282C202.922 219.205 202.928 219.127 202.949 219.052C202.971 218.977 203.009 218.908 203.06 218.849C203.111 218.79 203.174 218.742 203.245 218.71C203.316 218.677 203.393 218.661 203.471 218.661C203.549 218.661 203.626 218.677 203.696 218.71C203.767 218.742 203.83 218.79 203.881 218.849C203.932 218.908 203.97 218.977 203.992 219.052C204.014 219.127 204.019 219.205 204.008 219.282V221.419C204.005 221.559 203.948 221.692 203.849 221.791C203.75 221.89 203.616 221.947 203.476 221.95V221.95ZM203.476 217.677C203.406 217.679 203.335 217.666 203.269 217.64C203.204 217.614 203.144 217.575 203.093 217.526C203.043 217.476 203.002 217.417 202.975 217.352C202.948 217.287 202.933 217.217 202.934 217.146V215.009C202.922 214.932 202.928 214.853 202.949 214.779C202.971 214.704 203.009 214.634 203.06 214.575C203.111 214.516 203.174 214.469 203.245 214.437C203.316 214.404 203.393 214.387 203.471 214.387C203.549 214.387 203.626 214.404 203.696 214.437C203.767 214.469 203.83 214.516 203.881 214.575C203.932 214.634 203.97 214.704 203.992 214.779C204.014 214.853 204.019 214.932 204.008 215.009V217.169C204.002 217.306 203.943 217.435 203.844 217.53C203.745 217.624 203.613 217.677 203.476 217.677V217.677ZM203.476 213.404C203.406 213.405 203.335 213.393 203.269 213.367C203.204 213.341 203.144 213.302 203.093 213.252C203.043 213.203 203.002 213.144 202.975 213.079C202.948 213.013 202.933 212.943 202.934 212.873V210.736C202.922 210.659 202.928 210.58 202.949 210.505C202.971 210.43 203.009 210.361 203.06 210.302C203.111 210.243 203.174 210.196 203.245 210.163C203.316 210.131 203.393 210.114 203.471 210.114C203.549 210.114 203.626 210.131 203.696 210.163C203.767 210.196 203.83 210.243 203.881 210.302C203.932 210.361 203.97 210.43 203.992 210.505C204.014 210.58 204.019 210.659 204.008 210.736V212.873C204.008 212.942 203.994 213.011 203.967 213.076C203.94 213.14 203.901 213.199 203.852 213.248C203.803 213.298 203.744 213.337 203.68 213.363C203.615 213.39 203.546 213.404 203.476 213.404V213.404ZM203.476 209.131C203.406 209.132 203.335 209.12 203.269 209.094C203.204 209.068 203.144 209.029 203.093 208.979C203.043 208.93 203.002 208.871 202.975 208.805C202.948 208.74 202.933 208.67 202.934 208.599V206.463C202.952 206.334 203.017 206.216 203.116 206.131C203.214 206.046 203.34 205.999 203.471 205.999C203.601 205.999 203.727 206.046 203.825 206.131C203.924 206.216 203.989 206.334 204.008 206.463V208.599C203.996 208.732 203.935 208.856 203.837 208.946C203.738 209.035 203.61 209.085 203.476 209.084V209.131ZM203.476 204.869C203.332 204.869 203.194 204.812 203.093 204.71C202.991 204.608 202.934 204.47 202.934 204.326V202.155C202.952 202.026 203.017 201.908 203.116 201.823C203.214 201.738 203.34 201.691 203.471 201.691C203.601 201.691 203.727 201.738 203.825 201.823C203.924 201.908 203.989 202.026 204.008 202.155V204.292C204.012 204.365 204.002 204.438 203.978 204.507C203.953 204.576 203.915 204.64 203.865 204.694C203.816 204.748 203.756 204.791 203.689 204.821C203.622 204.851 203.55 204.868 203.476 204.869V204.869ZM203.476 200.596C203.332 200.596 203.194 200.539 203.093 200.437C202.991 200.335 202.934 200.197 202.934 200.053V197.916C202.952 197.787 203.017 197.67 203.116 197.584C203.214 197.499 203.34 197.452 203.471 197.452C203.601 197.452 203.727 197.499 203.825 197.584C203.924 197.67 203.989 197.787 204.008 197.916V200.053C204.008 200.195 203.952 200.331 203.853 200.433C203.753 200.534 203.618 200.593 203.476 200.596V200.596ZM203.476 196.323C203.332 196.323 203.194 196.265 203.093 196.164C202.991 196.062 202.934 195.924 202.934 195.78V193.643C202.952 193.514 203.017 193.396 203.116 193.311C203.214 193.226 203.34 193.179 203.471 193.179C203.601 193.179 203.727 193.226 203.825 193.311C203.924 193.396 203.989 193.514 204.008 193.643V195.78C204.016 195.855 204.008 195.931 203.985 196.002C203.962 196.074 203.924 196.141 203.874 196.197C203.824 196.254 203.763 196.299 203.695 196.331C203.626 196.362 203.552 196.379 203.476 196.38V196.323ZM203.476 192.049C203.332 192.049 203.194 191.992 203.093 191.89C202.991 191.789 202.934 191.65 202.934 191.506V189.37C202.952 189.241 203.017 189.123 203.116 189.038C203.214 188.953 203.34 188.906 203.471 188.906C203.601 188.906 203.727 188.953 203.825 189.038C203.924 189.123 203.989 189.241 204.008 189.37V191.506C204.008 191.648 203.952 191.785 203.853 191.886C203.753 191.988 203.618 192.046 203.476 192.049V192.049ZM203.476 187.776C203.332 187.776 203.194 187.719 203.093 187.617C202.991 187.515 202.934 187.377 202.934 187.233V185.097C202.952 184.968 203.017 184.85 203.116 184.765C203.214 184.68 203.34 184.633 203.471 184.633C203.601 184.633 203.727 184.68 203.825 184.765C203.924 184.85 203.989 184.968 204.008 185.097V187.233C204.008 187.375 203.952 187.512 203.853 187.613C203.753 187.715 203.618 187.773 203.476 187.776V187.776Z" fill="#F5F5F5"/>
<path d="M203.475 250.8C203.404 250.8 203.333 250.786 203.267 250.759C203.201 250.731 203.142 250.691 203.091 250.641C203.041 250.591 203.001 250.531 202.973 250.465C202.946 250.399 202.932 250.328 202.932 250.257V249.183C202.951 249.054 203.016 248.936 203.114 248.851C203.213 248.766 203.339 248.719 203.469 248.719C203.599 248.719 203.725 248.766 203.824 248.851C203.923 248.936 203.987 249.054 204.006 249.183V250.257C204.006 250.399 203.951 250.536 203.851 250.637C203.752 250.738 203.617 250.797 203.475 250.8V250.8Z" fill="#F5F5F5"/>
<path d="M258.888 116.423C258.748 116.42 258.615 116.363 258.516 116.264C258.417 116.165 258.36 116.032 258.357 115.892V114.818C258.346 114.74 258.351 114.662 258.373 114.587C258.394 114.512 258.432 114.443 258.483 114.384C258.534 114.325 258.597 114.277 258.668 114.245C258.739 114.213 258.816 114.196 258.894 114.196C258.972 114.196 259.049 114.213 259.12 114.245C259.191 114.277 259.254 114.325 259.305 114.384C259.356 114.443 259.393 114.512 259.415 114.587C259.437 114.662 259.442 114.74 259.431 114.818V115.892C259.428 116.034 259.369 116.169 259.268 116.268C259.166 116.367 259.03 116.423 258.888 116.423V116.423Z" fill="#F5F5F5"/>
<path d="M258.888 216.603C258.746 216.6 258.611 216.541 258.512 216.44C258.412 216.338 258.357 216.202 258.357 216.06V213.888C258.346 213.811 258.351 213.733 258.373 213.658C258.394 213.583 258.432 213.514 258.483 213.455C258.534 213.396 258.597 213.348 258.668 213.316C258.739 213.284 258.816 213.267 258.894 213.267C258.972 213.267 259.049 213.284 259.12 213.316C259.191 213.348 259.254 213.396 259.305 213.455C259.356 213.514 259.393 213.583 259.415 213.658C259.437 213.733 259.442 213.811 259.431 213.888V216.014C259.437 216.089 259.428 216.164 259.404 216.235C259.379 216.307 259.34 216.372 259.289 216.428C259.238 216.483 259.176 216.527 259.107 216.557C259.038 216.587 258.963 216.603 258.888 216.603V216.603ZM258.888 212.249C258.746 212.245 258.611 212.187 258.512 212.085C258.412 211.984 258.357 211.848 258.357 211.706V209.523C258.376 209.394 258.44 209.276 258.539 209.191C258.638 209.106 258.764 209.059 258.894 209.059C259.024 209.059 259.15 209.106 259.249 209.191C259.347 209.276 259.412 209.394 259.431 209.523V211.706C259.431 211.777 259.417 211.848 259.39 211.913C259.362 211.979 259.322 212.039 259.272 212.09C259.222 212.14 259.162 212.18 259.096 212.207C259.03 212.234 258.959 212.249 258.888 212.249V212.249ZM258.888 207.883C258.747 207.883 258.612 207.827 258.512 207.727C258.413 207.628 258.357 207.493 258.357 207.352V205.169C258.376 205.04 258.44 204.922 258.539 204.837C258.638 204.752 258.764 204.705 258.894 204.705C259.024 204.705 259.15 204.752 259.249 204.837C259.347 204.922 259.412 205.04 259.431 205.169V207.352C259.437 207.426 259.428 207.501 259.404 207.572C259.379 207.643 259.34 207.707 259.289 207.762C259.238 207.816 259.175 207.859 259.106 207.888C259.037 207.917 258.963 207.931 258.888 207.929V207.883ZM258.888 203.529C258.748 203.526 258.615 203.469 258.516 203.37C258.417 203.271 258.36 203.138 258.357 202.998V200.815C258.376 200.686 258.44 200.568 258.539 200.483C258.638 200.398 258.764 200.351 258.894 200.351C259.024 200.351 259.15 200.398 259.249 200.483C259.347 200.568 259.412 200.686 259.431 200.815V202.998C259.428 203.14 259.369 203.275 259.268 203.374C259.166 203.473 259.03 203.529 258.888 203.529V203.529ZM258.888 199.175C258.748 199.172 258.615 199.115 258.516 199.016C258.417 198.917 258.36 198.783 258.357 198.643V196.461C258.376 196.332 258.44 196.214 258.539 196.129C258.638 196.044 258.764 195.997 258.894 195.997C259.024 195.997 259.15 196.044 259.249 196.129C259.347 196.214 259.412 196.332 259.431 196.461V198.69C259.417 198.823 259.353 198.947 259.253 199.037C259.153 199.126 259.023 199.176 258.888 199.175V199.175ZM258.888 194.821C258.748 194.818 258.615 194.761 258.516 194.662C258.417 194.563 258.36 194.429 258.357 194.289V192.107C258.376 191.978 258.44 191.86 258.539 191.775C258.638 191.69 258.764 191.643 258.894 191.643C259.024 191.643 259.15 191.69 259.249 191.775C259.347 191.86 259.412 191.978 259.431 192.107V194.289C259.428 194.431 259.369 194.567 259.268 194.666C259.166 194.765 259.03 194.821 258.888 194.821V194.821ZM258.888 190.467C258.746 190.464 258.611 190.405 258.512 190.304C258.412 190.202 258.357 190.066 258.357 189.924V187.753C258.346 187.675 258.351 187.597 258.373 187.522C258.394 187.447 258.432 187.378 258.483 187.319C258.534 187.26 258.597 187.212 258.668 187.18C258.739 187.148 258.816 187.131 258.894 187.131C258.972 187.131 259.049 187.148 259.12 187.18C259.191 187.212 259.254 187.26 259.305 187.319C259.356 187.378 259.393 187.447 259.415 187.522C259.437 187.597 259.442 187.675 259.431 187.753V189.924C259.431 189.995 259.417 190.066 259.39 190.132C259.362 190.197 259.322 190.257 259.272 190.308C259.222 190.358 259.162 190.398 259.096 190.425C259.03 190.453 258.959 190.467 258.888 190.467V190.467ZM258.888 186.113C258.746 186.11 258.611 186.051 258.512 185.95C258.412 185.848 258.357 185.712 258.357 185.57V183.398C258.346 183.321 258.351 183.243 258.373 183.168C258.394 183.093 258.432 183.024 258.483 182.965C258.534 182.906 258.597 182.858 258.668 182.826C258.739 182.793 258.816 182.777 258.894 182.777C258.972 182.777 259.049 182.793 259.12 182.826C259.191 182.858 259.254 182.906 259.305 182.965C259.356 183.024 259.393 183.093 259.415 183.168C259.437 183.243 259.442 183.321 259.431 183.398V185.57C259.431 185.641 259.417 185.712 259.39 185.777C259.362 185.843 259.322 185.903 259.272 185.954C259.222 186.004 259.162 186.044 259.096 186.071C259.03 186.099 258.959 186.113 258.888 186.113V186.113ZM258.888 181.758C258.746 181.755 258.611 181.697 258.512 181.595C258.412 181.494 258.357 181.358 258.357 181.216V179.056C258.346 178.979 258.351 178.9 258.373 178.825C258.394 178.75 258.432 178.681 258.483 178.622C258.534 178.563 258.597 178.516 258.668 178.483C258.739 178.451 258.816 178.434 258.894 178.434C258.972 178.434 259.049 178.451 259.12 178.483C259.191 178.516 259.254 178.563 259.305 178.622C259.356 178.681 259.393 178.75 259.415 178.825C259.437 178.9 259.442 178.979 259.431 179.056V181.227C259.428 181.369 259.369 181.504 259.268 181.604C259.166 181.703 259.03 181.759 258.888 181.758V181.758ZM258.888 177.404C258.746 177.401 258.611 177.343 258.512 177.241C258.412 177.14 258.357 177.004 258.357 176.862V174.69C258.346 174.613 258.351 174.535 258.373 174.46C258.394 174.385 258.432 174.316 258.483 174.257C258.534 174.198 258.597 174.15 258.668 174.118C258.739 174.085 258.816 174.069 258.894 174.069C258.972 174.069 259.049 174.085 259.12 174.118C259.191 174.15 259.254 174.198 259.305 174.257C259.356 174.316 259.393 174.385 259.415 174.46C259.437 174.535 259.442 174.613 259.431 174.69V176.862C259.431 176.933 259.417 177.003 259.39 177.069C259.362 177.135 259.322 177.195 259.272 177.245C259.222 177.296 259.162 177.336 259.096 177.363C259.03 177.39 258.959 177.404 258.888 177.404V177.404ZM258.888 173.05C258.746 173.047 258.611 172.989 258.512 172.887C258.412 172.786 258.357 172.65 258.357 172.508V170.336C258.346 170.259 258.351 170.181 258.373 170.106C258.394 170.031 258.432 169.962 258.483 169.903C258.534 169.844 258.597 169.796 258.668 169.764C258.739 169.731 258.816 169.715 258.894 169.715C258.972 169.715 259.049 169.731 259.12 169.764C259.191 169.796 259.254 169.844 259.305 169.903C259.356 169.962 259.393 170.031 259.415 170.106C259.437 170.181 259.442 170.259 259.431 170.336V172.508C259.431 172.579 259.417 172.649 259.39 172.715C259.362 172.781 259.322 172.841 259.272 172.891C259.222 172.942 259.162 172.982 259.096 173.009C259.03 173.036 258.959 173.05 258.888 173.05V173.05ZM258.888 168.685C258.747 168.685 258.612 168.629 258.512 168.529C258.413 168.43 258.357 168.294 258.357 168.153V165.971C258.376 165.842 258.44 165.724 258.539 165.639C258.638 165.554 258.764 165.507 258.894 165.507C259.024 165.507 259.15 165.554 259.249 165.639C259.347 165.724 259.412 165.842 259.431 165.971V168.153C259.425 168.292 259.365 168.423 259.263 168.518C259.162 168.613 259.027 168.665 258.888 168.662V168.685ZM258.888 164.331C258.747 164.331 258.612 164.275 258.512 164.175C258.413 164.075 258.357 163.94 258.357 163.799V161.617C258.376 161.488 258.44 161.37 258.539 161.285C258.638 161.2 258.764 161.153 258.894 161.153C259.024 161.153 259.15 161.2 259.249 161.285C259.347 161.37 259.412 161.488 259.431 161.617V163.799C259.431 163.87 259.417 163.94 259.389 164.005C259.362 164.071 259.322 164.13 259.271 164.179C259.221 164.229 259.161 164.268 259.095 164.294C259.029 164.32 258.959 164.332 258.888 164.331V164.331ZM258.888 159.977C258.748 159.974 258.615 159.917 258.516 159.818C258.417 159.719 258.36 159.585 258.357 159.445V157.263C258.376 157.134 258.44 157.016 258.539 156.931C258.638 156.846 258.764 156.799 258.894 156.799C259.024 156.799 259.15 156.846 259.249 156.931C259.347 157.016 259.412 157.134 259.431 157.263V159.422C259.432 159.495 259.42 159.566 259.393 159.634C259.366 159.701 259.327 159.762 259.276 159.814C259.226 159.865 259.165 159.906 259.099 159.934C259.032 159.962 258.96 159.977 258.888 159.977V159.977ZM258.888 155.623C258.748 155.62 258.615 155.563 258.516 155.464C258.417 155.365 258.36 155.231 258.357 155.091V152.908C258.376 152.78 258.44 152.662 258.539 152.577C258.638 152.491 258.764 152.445 258.894 152.445C259.024 152.445 259.15 152.491 259.249 152.577C259.347 152.662 259.412 152.78 259.431 152.908V155.091C259.428 155.233 259.369 155.368 259.268 155.468C259.166 155.567 259.03 155.623 258.888 155.623V155.623ZM258.888 151.269C258.748 151.266 258.615 151.209 258.516 151.11C258.417 151.011 258.36 150.877 258.357 150.737V148.554C258.376 148.426 258.44 148.308 258.539 148.223C258.638 148.137 258.764 148.091 258.894 148.091C259.024 148.091 259.15 148.137 259.249 148.223C259.347 148.308 259.412 148.426 259.431 148.554V150.737C259.428 150.879 259.369 151.014 259.268 151.114C259.166 151.213 259.03 151.269 258.888 151.269V151.269ZM258.888 146.914C258.746 146.911 258.611 146.853 258.512 146.751C258.412 146.65 258.357 146.514 258.357 146.372V144.2C258.346 144.123 258.351 144.045 258.373 143.97C258.394 143.895 258.432 143.826 258.483 143.767C258.534 143.708 258.597 143.66 258.668 143.628C258.739 143.595 258.816 143.579 258.894 143.579C258.972 143.579 259.049 143.595 259.12 143.628C259.191 143.66 259.254 143.708 259.305 143.767C259.356 143.826 259.393 143.895 259.415 143.97C259.437 144.045 259.442 144.123 259.431 144.2V146.372C259.431 146.443 259.417 146.513 259.39 146.579C259.362 146.645 259.322 146.705 259.272 146.755C259.222 146.806 259.162 146.846 259.096 146.873C259.03 146.9 258.959 146.914 258.888 146.914V146.914ZM258.888 142.56C258.746 142.557 258.611 142.499 258.512 142.397C258.412 142.296 258.357 142.16 258.357 142.018V139.846C258.346 139.769 258.351 139.691 258.373 139.616C258.394 139.541 258.432 139.472 258.483 139.413C258.534 139.354 258.597 139.306 258.668 139.274C258.739 139.241 258.816 139.225 258.894 139.225C258.972 139.225 259.049 139.241 259.12 139.274C259.191 139.306 259.254 139.354 259.305 139.413C259.356 139.472 259.393 139.541 259.415 139.616C259.437 139.691 259.442 139.769 259.431 139.846V142.018C259.431 142.089 259.417 142.159 259.39 142.225C259.362 142.291 259.322 142.351 259.272 142.401C259.222 142.452 259.162 142.492 259.096 142.519C259.03 142.546 258.959 142.56 258.888 142.56V142.56ZM258.888 138.206C258.746 138.203 258.611 138.145 258.512 138.043C258.412 137.942 258.357 137.805 258.357 137.663V135.492C258.346 135.415 258.351 135.336 258.373 135.262C258.394 135.187 258.432 135.117 258.483 135.058C258.534 134.999 258.597 134.952 258.668 134.92C258.739 134.887 258.816 134.87 258.894 134.87C258.972 134.87 259.049 134.887 259.12 134.92C259.191 134.952 259.254 134.999 259.305 135.058C259.356 135.117 259.393 135.187 259.415 135.262C259.437 135.336 259.442 135.415 259.431 135.492V137.663C259.431 137.735 259.417 137.805 259.39 137.871C259.362 137.937 259.322 137.997 259.272 138.047C259.222 138.098 259.162 138.138 259.096 138.165C259.03 138.192 258.959 138.206 258.888 138.206V138.206ZM258.888 133.852C258.746 133.849 258.611 133.791 258.512 133.689C258.412 133.588 258.357 133.451 258.357 133.309V131.138C258.346 131.061 258.351 130.982 258.373 130.908C258.394 130.833 258.432 130.763 258.483 130.704C258.534 130.645 258.597 130.598 258.668 130.566C258.739 130.533 258.816 130.516 258.894 130.516C258.972 130.516 259.049 130.533 259.12 130.566C259.191 130.598 259.254 130.645 259.305 130.704C259.356 130.763 259.393 130.833 259.415 130.908C259.437 130.982 259.442 131.061 259.431 131.138V133.309C259.431 133.381 259.417 133.451 259.39 133.517C259.362 133.583 259.322 133.643 259.272 133.693C259.222 133.744 259.162 133.784 259.096 133.811C259.03 133.838 258.959 133.852 258.888 133.852V133.852ZM258.888 129.498C258.746 129.495 258.611 129.437 258.512 129.335C258.412 129.234 258.357 129.097 258.357 128.955V126.773C258.376 126.644 258.44 126.526 258.539 126.441C258.638 126.356 258.764 126.309 258.894 126.309C259.024 126.309 259.15 126.356 259.249 126.441C259.347 126.526 259.412 126.644 259.431 126.773V128.955C259.431 129.027 259.417 129.097 259.39 129.163C259.362 129.229 259.322 129.289 259.272 129.339C259.222 129.39 259.162 129.43 259.096 129.457C259.03 129.484 258.959 129.498 258.888 129.498V129.498ZM258.888 125.133C258.747 125.133 258.612 125.077 258.512 124.977C258.413 124.877 258.357 124.742 258.357 124.601V122.465C258.376 122.336 258.44 122.218 258.539 122.133C258.638 122.048 258.764 122.001 258.894 122.001C259.024 122.001 259.15 122.048 259.249 122.133C259.347 122.218 259.412 122.336 259.431 122.465V124.647C259.419 124.782 259.357 124.907 259.256 124.998C259.155 125.088 259.023 125.136 258.888 125.133V125.133ZM258.888 120.778C258.747 120.778 258.612 120.723 258.512 120.623C258.413 120.523 258.357 120.388 258.357 120.247V118.064C258.376 117.936 258.44 117.818 258.539 117.733C258.638 117.647 258.764 117.601 258.894 117.601C259.024 117.601 259.15 117.647 259.249 117.733C259.347 117.818 259.412 117.936 259.431 118.064V120.247C259.431 120.318 259.417 120.388 259.389 120.453C259.362 120.518 259.322 120.578 259.271 120.627C259.221 120.677 259.161 120.715 259.095 120.741C259.029 120.767 258.959 120.78 258.888 120.778V120.778Z" fill="#F5F5F5"/>
<path d="M258.888 219.849C258.748 219.846 258.615 219.789 258.516 219.69C258.417 219.591 258.36 219.458 258.357 219.318V218.244C258.346 218.167 258.351 218.088 258.373 218.013C258.394 217.938 258.432 217.869 258.483 217.81C258.534 217.751 258.597 217.704 258.668 217.671C258.739 217.639 258.816 217.622 258.894 217.622C258.972 217.622 259.049 217.639 259.12 217.671C259.191 217.704 259.254 217.751 259.305 217.81C259.356 217.869 259.393 217.938 259.415 218.013C259.437 218.088 259.442 218.167 259.431 218.244V219.318C259.428 219.46 259.369 219.595 259.268 219.694C259.166 219.794 259.03 219.849 258.888 219.849V219.849Z" fill="#F5F5F5"/>
<path d="M301.239 131.035C301.097 131.032 300.962 130.974 300.863 130.872C300.764 130.771 300.708 130.635 300.708 130.493V129.395C300.727 129.267 300.792 129.149 300.89 129.064C300.989 128.978 301.115 128.932 301.245 128.932C301.375 128.932 301.501 128.978 301.6 129.064C301.698 129.149 301.763 129.267 301.782 129.395V130.55C301.768 130.684 301.704 130.808 301.604 130.897C301.504 130.987 301.374 131.036 301.239 131.035Z" fill="#F5F5F5"/>
<path d="M301.241 192.315C301.101 192.312 300.967 192.255 300.868 192.156C300.769 192.057 300.712 191.924 300.709 191.784V189.589C300.728 189.46 300.793 189.343 300.892 189.258C300.99 189.172 301.116 189.125 301.246 189.125C301.377 189.125 301.503 189.172 301.601 189.258C301.7 189.343 301.765 189.46 301.783 189.589V191.761C301.785 191.833 301.772 191.905 301.746 191.972C301.719 192.039 301.679 192.1 301.629 192.152C301.578 192.204 301.518 192.245 301.451 192.273C301.384 192.301 301.313 192.315 301.241 192.315V192.315ZM301.241 187.938C301.101 187.935 300.967 187.878 300.868 187.779C300.769 187.68 300.712 187.547 300.709 187.407V185.212C300.728 185.083 300.793 184.966 300.892 184.88C300.99 184.795 301.116 184.748 301.246 184.748C301.377 184.748 301.503 184.795 301.601 184.88C301.7 184.966 301.765 185.083 301.783 185.212V187.407C301.78 187.548 301.722 187.684 301.62 187.783C301.519 187.882 301.383 187.938 301.241 187.938V187.938ZM301.241 183.561C301.101 183.558 300.967 183.501 300.868 183.402C300.769 183.303 300.712 183.169 300.709 183.029V180.835C300.728 180.706 300.793 180.588 300.892 180.503C300.99 180.418 301.116 180.371 301.246 180.371C301.377 180.371 301.503 180.418 301.601 180.503C301.7 180.588 301.765 180.706 301.783 180.835V183.029C301.78 183.171 301.722 183.306 301.62 183.406C301.519 183.505 301.383 183.561 301.241 183.561V183.561ZM301.241 179.183C301.101 179.181 300.967 179.124 300.868 179.025C300.769 178.926 300.712 178.792 300.709 178.652V176.458C300.728 176.329 300.793 176.211 300.892 176.126C300.99 176.041 301.116 175.994 301.246 175.994C301.377 175.994 301.503 176.041 301.601 176.126C301.7 176.211 301.765 176.329 301.783 176.458V178.652C301.78 178.794 301.722 178.929 301.62 179.029C301.519 179.128 301.383 179.184 301.241 179.183V179.183ZM301.241 174.806C301.101 174.803 300.967 174.746 300.868 174.647C300.769 174.548 300.712 174.415 300.709 174.275V172.127C300.728 171.998 300.793 171.88 300.892 171.795C300.99 171.71 301.116 171.663 301.246 171.663C301.377 171.663 301.503 171.71 301.601 171.795C301.7 171.88 301.765 171.998 301.783 172.127V174.321C301.769 174.455 301.706 174.579 301.605 174.668C301.505 174.758 301.375 174.807 301.241 174.806V174.806ZM301.241 170.429C301.101 170.426 300.967 170.369 300.868 170.27C300.769 170.171 300.712 170.038 300.709 169.898V167.704C300.728 167.575 300.793 167.457 300.892 167.372C300.99 167.287 301.116 167.24 301.246 167.24C301.377 167.24 301.503 167.287 301.601 167.372C301.7 167.457 301.765 167.575 301.783 167.704V169.898C301.78 170.04 301.722 170.175 301.62 170.274C301.519 170.374 301.383 170.429 301.241 170.429V170.429ZM301.241 166.052C301.101 166.049 300.967 165.992 300.868 165.893C300.769 165.794 300.712 165.661 300.709 165.521V163.326C300.728 163.197 300.793 163.08 300.892 162.995C300.99 162.909 301.116 162.863 301.246 162.863C301.377 162.863 301.503 162.909 301.601 162.995C301.7 163.08 301.765 163.197 301.783 163.326V165.521C301.78 165.663 301.722 165.798 301.62 165.897C301.519 165.996 301.383 166.052 301.241 166.052V166.052ZM301.241 161.675C301.101 161.672 300.967 161.615 300.868 161.516C300.769 161.417 300.712 161.284 300.709 161.144V158.949C300.728 158.82 300.793 158.703 300.892 158.617C300.99 158.532 301.116 158.485 301.246 158.485C301.377 158.485 301.503 158.532 301.601 158.617C301.7 158.703 301.765 158.82 301.783 158.949V161.144C301.79 161.219 301.781 161.294 301.756 161.366C301.732 161.437 301.693 161.502 301.642 161.558C301.591 161.613 301.529 161.657 301.46 161.687C301.391 161.717 301.316 161.733 301.241 161.733V161.675ZM301.241 157.298C301.101 157.295 300.967 157.238 300.868 157.139C300.769 157.04 300.712 156.906 300.709 156.766V154.572C300.728 154.443 300.793 154.325 300.892 154.24C300.99 154.155 301.116 154.108 301.246 154.108C301.377 154.108 301.503 154.155 301.601 154.24C301.7 154.325 301.765 154.443 301.783 154.572V156.766C301.78 156.908 301.722 157.043 301.62 157.143C301.519 157.242 301.383 157.298 301.241 157.298V157.298ZM301.241 152.92C301.101 152.918 300.967 152.861 300.868 152.762C300.769 152.663 300.712 152.529 300.709 152.389V150.183C300.728 150.054 300.793 149.937 300.892 149.851C300.99 149.766 301.116 149.719 301.246 149.719C301.377 149.719 301.503 149.766 301.601 149.851C301.7 149.937 301.765 150.054 301.783 150.183V152.378C301.783 152.449 301.769 152.52 301.742 152.585C301.715 152.651 301.675 152.711 301.624 152.762C301.574 152.812 301.514 152.852 301.448 152.879C301.383 152.906 301.312 152.92 301.241 152.92V152.92ZM301.241 148.543C301.101 148.54 300.967 148.483 300.868 148.384C300.769 148.285 300.712 148.152 300.709 148.012V145.818C300.728 145.689 300.793 145.571 300.892 145.486C300.99 145.401 301.116 145.354 301.246 145.354C301.377 145.354 301.503 145.401 301.601 145.486C301.7 145.571 301.765 145.689 301.783 145.818V148.012C301.78 148.154 301.722 148.289 301.62 148.388C301.519 148.488 301.383 148.543 301.241 148.543V148.543ZM301.241 144.166C301.099 144.163 300.964 144.105 300.864 144.003C300.765 143.902 300.709 143.765 300.709 143.623V141.441C300.698 141.363 300.703 141.285 300.725 141.21C300.747 141.135 300.785 141.066 300.836 141.007C300.887 140.948 300.95 140.9 301.021 140.868C301.091 140.836 301.168 140.819 301.246 140.819C301.324 140.819 301.401 140.836 301.472 140.868C301.543 140.9 301.606 140.948 301.657 141.007C301.708 141.066 301.746 141.135 301.768 141.21C301.789 141.285 301.795 141.363 301.783 141.441V143.623C301.783 143.767 301.726 143.905 301.624 144.007C301.523 144.109 301.385 144.166 301.241 144.166V144.166ZM301.241 139.789C301.099 139.786 300.964 139.727 300.864 139.626C300.765 139.525 300.709 139.388 300.709 139.246V137.063C300.698 136.986 300.703 136.908 300.725 136.833C300.747 136.758 300.785 136.689 300.836 136.63C300.887 136.571 300.95 136.523 301.021 136.491C301.091 136.458 301.168 136.442 301.246 136.442C301.324 136.442 301.401 136.458 301.472 136.491C301.543 136.523 301.606 136.571 301.657 136.63C301.708 136.689 301.746 136.758 301.768 136.833C301.789 136.908 301.795 136.986 301.783 137.063V139.246C301.783 139.39 301.726 139.528 301.624 139.63C301.523 139.732 301.385 139.789 301.241 139.789V139.789ZM301.241 135.412C301.099 135.409 300.964 135.35 300.864 135.249C300.765 135.147 300.709 135.011 300.709 134.869V132.686C300.698 132.609 300.703 132.53 300.725 132.456C300.747 132.381 300.785 132.311 300.836 132.252C300.887 132.193 300.95 132.146 301.021 132.114C301.091 132.081 301.168 132.064 301.246 132.064C301.324 132.064 301.401 132.081 301.472 132.114C301.543 132.146 301.606 132.193 301.657 132.252C301.708 132.311 301.746 132.381 301.768 132.456C301.789 132.53 301.795 132.609 301.783 132.686V134.869C301.783 135.013 301.726 135.151 301.624 135.253C301.523 135.355 301.385 135.412 301.241 135.412V135.412Z" fill="#F5F5F5"/>
<path d="M301.239 195.584C301.097 195.581 300.962 195.522 300.863 195.421C300.764 195.319 300.708 195.183 300.708 195.041V193.967C300.727 193.838 300.792 193.72 300.89 193.635C300.989 193.55 301.115 193.503 301.245 193.503C301.375 193.503 301.501 193.55 301.6 193.635C301.698 193.72 301.763 193.838 301.782 193.967V195.041C301.782 195.112 301.768 195.183 301.741 195.249C301.713 195.314 301.673 195.374 301.623 195.425C301.573 195.475 301.513 195.515 301.447 195.542C301.381 195.57 301.311 195.584 301.239 195.584V195.584Z" fill="#F5F5F5"/>
<path d="M342.967 133.898C342.823 133.898 342.685 133.841 342.583 133.739C342.482 133.637 342.424 133.499 342.424 133.355V132.281C342.443 132.152 342.508 132.035 342.607 131.949C342.705 131.864 342.831 131.817 342.961 131.817C343.092 131.817 343.218 131.864 343.316 131.949C343.415 132.035 343.479 132.152 343.498 132.281V133.355C343.498 133.497 343.443 133.634 343.344 133.735C343.244 133.837 343.109 133.895 342.967 133.898V133.898Z" fill="#F5F5F5"/>
<path d="M342.966 168.188C342.822 168.188 342.684 168.131 342.582 168.029C342.48 167.927 342.423 167.789 342.423 167.645V165.508C342.412 165.431 342.417 165.353 342.439 165.278C342.461 165.203 342.499 165.134 342.55 165.075C342.6 165.016 342.664 164.968 342.734 164.936C342.805 164.903 342.882 164.887 342.96 164.887C343.038 164.887 343.115 164.903 343.186 164.936C343.257 164.968 343.32 165.016 343.371 165.075C343.422 165.134 343.46 165.203 343.481 165.278C343.503 165.353 343.509 165.431 343.497 165.508V167.645C343.497 167.787 343.442 167.923 343.342 168.025C343.243 168.126 343.108 168.185 342.966 168.188V168.188ZM342.966 163.903C342.822 163.903 342.684 163.846 342.582 163.744C342.48 163.642 342.423 163.504 342.423 163.36V161.224C342.412 161.146 342.417 161.068 342.439 160.993C342.461 160.918 342.499 160.849 342.55 160.79C342.6 160.731 342.664 160.683 342.734 160.651C342.805 160.619 342.882 160.602 342.96 160.602C343.038 160.602 343.115 160.619 343.186 160.651C343.257 160.683 343.32 160.731 343.371 160.79C343.422 160.849 343.46 160.918 343.481 160.993C343.503 161.068 343.509 161.146 343.497 161.224V163.36C343.497 163.502 343.442 163.639 343.342 163.74C343.243 163.841 343.108 163.9 342.966 163.903V163.903ZM342.966 159.618C342.822 159.618 342.684 159.561 342.582 159.459C342.48 159.357 342.423 159.219 342.423 159.075V156.939C342.412 156.862 342.417 156.783 342.439 156.708C342.461 156.633 342.499 156.564 342.55 156.505C342.6 156.446 342.664 156.399 342.734 156.366C342.805 156.334 342.882 156.317 342.96 156.317C343.038 156.317 343.115 156.334 343.186 156.366C343.257 156.399 343.32 156.446 343.371 156.505C343.422 156.564 343.46 156.633 343.481 156.708C343.503 156.783 343.509 156.862 343.497 156.939V159.075C343.497 159.217 343.442 159.354 343.342 159.455C343.243 159.557 343.108 159.615 342.966 159.618V159.618ZM342.966 155.333C342.822 155.333 342.684 155.276 342.582 155.174C342.48 155.073 342.423 154.935 342.423 154.791V152.642C342.442 152.514 342.507 152.396 342.605 152.311C342.704 152.225 342.83 152.179 342.96 152.179C343.091 152.179 343.217 152.225 343.315 152.311C343.414 152.396 343.478 152.514 343.497 152.642V154.802C343.494 154.942 343.437 155.076 343.338 155.175C343.239 155.274 343.106 155.331 342.966 155.333V155.333ZM342.966 151.037C342.895 151.039 342.825 151.026 342.759 151C342.693 150.974 342.633 150.935 342.583 150.886C342.532 150.836 342.492 150.777 342.465 150.712C342.437 150.647 342.423 150.577 342.423 150.506V148.358C342.442 148.229 342.507 148.111 342.605 148.026C342.704 147.941 342.83 147.894 342.96 147.894C343.091 147.894 343.217 147.941 343.315 148.026C343.414 148.111 343.478 148.229 343.497 148.358V150.506C343.497 150.647 343.441 150.782 343.342 150.882C343.242 150.981 343.107 151.037 342.966 151.037V151.037ZM342.966 146.752C342.824 146.752 342.688 146.697 342.586 146.597C342.485 146.498 342.426 146.363 342.423 146.221V144.073C342.442 143.944 342.507 143.826 342.605 143.741C342.704 143.656 342.83 143.609 342.96 143.609C343.091 143.609 343.217 143.656 343.315 143.741C343.414 143.826 343.478 143.944 343.497 144.073V146.221C343.486 146.355 343.425 146.48 343.327 146.572C343.229 146.663 343.1 146.715 342.966 146.718V146.752ZM342.966 142.468C342.824 142.468 342.688 142.412 342.586 142.313C342.485 142.213 342.426 142.078 342.423 141.936V139.788C342.442 139.659 342.507 139.541 342.605 139.456C342.704 139.371 342.83 139.324 342.96 139.324C343.091 139.324 343.217 139.371 343.315 139.456C343.414 139.541 343.478 139.659 343.497 139.788V141.936C343.494 142.076 343.437 142.21 343.338 142.309C343.239 142.408 343.106 142.465 342.966 142.468V142.468ZM342.966 138.183C342.824 138.183 342.688 138.127 342.586 138.028C342.485 137.929 342.426 137.794 342.423 137.652V135.503C342.442 135.375 342.507 135.257 342.605 135.172C342.704 135.086 342.83 135.04 342.96 135.04C343.091 135.04 343.217 135.086 343.315 135.172C343.414 135.257 343.478 135.375 343.497 135.503V137.652C343.494 137.792 343.437 137.925 343.338 138.024C343.239 138.123 343.106 138.18 342.966 138.183V138.183Z" fill="#F5F5F5"/>
<path d="M342.966 171.398C342.895 171.4 342.825 171.387 342.759 171.361C342.693 171.335 342.633 171.296 342.583 171.247C342.532 171.197 342.492 171.138 342.465 171.073C342.437 171.008 342.423 170.938 342.423 170.867V169.816C342.412 169.739 342.417 169.66 342.439 169.585C342.461 169.511 342.499 169.441 342.55 169.382C342.6 169.323 342.664 169.276 342.734 169.244C342.805 169.211 342.882 169.194 342.96 169.194C343.038 169.194 343.115 169.211 343.186 169.244C343.257 169.276 343.32 169.323 343.371 169.382C343.422 169.441 343.46 169.511 343.481 169.585C343.503 169.66 343.509 169.739 343.497 169.816V170.89C343.491 171.027 343.433 171.156 343.334 171.251C343.235 171.346 343.103 171.398 342.966 171.398V171.398Z" fill="#F5F5F5"/>
<path d="M309.96 96.1902C309.96 95.1392 309.221 94.7119 308.309 95.2432L293.098 103.986C292.617 104.302 292.216 104.727 291.929 105.227C291.643 105.726 291.477 106.286 291.447 106.862V119.173C291.447 120.224 292.186 120.652 293.098 120.12L298.746 116.863L301.114 120.975C301.149 121.034 301.2 121.081 301.261 121.112C301.322 121.142 301.391 121.155 301.459 121.147C301.527 121.14 301.592 121.113 301.645 121.071C301.698 121.028 301.738 120.97 301.76 120.906L304.266 113.676L308.309 111.366C308.791 111.054 309.193 110.631 309.48 110.133C309.767 109.635 309.932 109.076 309.96 108.502V96.1902Z" fill="#F5F5F5"/>
<path d="M296.724 109.09C296.572 109.102 296.419 109.079 296.277 109.023C296.134 108.967 296.007 108.879 295.904 108.767C295.682 108.481 295.575 108.123 295.604 107.762C295.604 107.291 295.707 106.826 295.904 106.399C296.106 105.93 296.383 105.498 296.724 105.117C297.052 104.731 297.442 104.404 297.879 104.147C298.226 103.93 298.624 103.807 299.034 103.789C299.187 103.78 299.34 103.806 299.482 103.864C299.624 103.922 299.751 104.01 299.854 104.124C300.079 104.408 300.191 104.767 300.166 105.129C300.158 105.596 300.051 106.056 299.854 106.48C299.644 106.948 299.368 107.384 299.034 107.773C298.703 108.15 298.313 108.47 297.879 108.72C297.534 108.944 297.135 109.072 296.724 109.09ZM296.354 115.315C296.357 115.242 296.377 115.171 296.412 115.107L303.018 101.675L303.191 101.375C303.263 101.299 303.345 101.233 303.434 101.179L304.785 100.405C304.811 100.394 304.838 100.389 304.866 100.389C304.894 100.389 304.921 100.394 304.947 100.405C304.969 100.411 304.989 100.424 305.002 100.444C305.015 100.463 305.02 100.486 305.016 100.509C305.015 100.587 304.991 100.664 304.947 100.728L298.283 114.172C298.283 114.287 298.168 114.368 298.133 114.426C298.071 114.493 297.996 114.548 297.913 114.587L296.551 115.384C296.435 115.535 296.354 115.454 296.354 115.315V115.315ZM298.664 106.792C298.871 106.492 298.987 106.139 298.999 105.775C299.019 105.644 298.997 105.511 298.937 105.393C298.877 105.275 298.782 105.178 298.664 105.117C298.523 105.075 298.375 105.067 298.23 105.093C298.086 105.119 297.95 105.179 297.833 105.267C297.494 105.465 297.208 105.743 297.001 106.076C296.792 106.383 296.676 106.744 296.666 107.115C296.648 107.243 296.671 107.373 296.731 107.487C296.791 107.601 296.885 107.693 297.001 107.75C297.141 107.792 297.289 107.801 297.433 107.777C297.577 107.753 297.714 107.697 297.833 107.612C298.189 107.416 298.49 107.134 298.71 106.792H298.664ZM302.337 111.966C302.182 111.977 302.026 111.953 301.882 111.895C301.738 111.837 301.609 111.747 301.505 111.631C301.279 111.351 301.168 110.996 301.193 110.638C301.201 110.174 301.307 109.717 301.505 109.298C301.713 108.826 301.994 108.39 302.337 108.004C302.665 107.622 303.055 107.297 303.492 107.046C303.837 106.822 304.236 106.694 304.647 106.676C304.8 106.668 304.954 106.693 305.097 106.749C305.241 106.804 305.37 106.89 305.478 107C305.706 107.283 305.817 107.642 305.79 108.004C305.784 108.472 305.677 108.933 305.478 109.356C305.265 109.825 304.985 110.26 304.647 110.649C304.316 111.029 303.926 111.353 303.492 111.608C303.157 111.816 302.776 111.939 302.383 111.966H302.337ZM304.312 109.656C304.524 109.355 304.641 108.997 304.647 108.628C304.647 108.293 304.543 108.085 304.312 107.993C304.171 107.95 304.022 107.941 303.878 107.967C303.733 107.993 303.597 108.054 303.48 108.143C303.139 108.337 302.853 108.616 302.649 108.951C302.443 109.252 302.327 109.604 302.314 109.968C302.314 110.314 302.429 110.534 302.649 110.615C302.79 110.651 302.937 110.657 303.081 110.631C303.225 110.605 303.361 110.548 303.48 110.464C303.831 110.276 304.132 110.007 304.358 109.679L304.312 109.656Z" fill="#E1A945"/>
<path opacity="0.4" d="M296.724 109.09C296.572 109.102 296.419 109.079 296.277 109.023C296.134 108.967 296.007 108.879 295.904 108.767C295.682 108.481 295.575 108.123 295.604 107.762C295.604 107.291 295.707 106.826 295.904 106.399C296.106 105.93 296.383 105.498 296.724 105.117C297.052 104.731 297.442 104.404 297.879 104.147C298.226 103.93 298.624 103.807 299.034 103.789C299.187 103.78 299.34 103.806 299.482 103.864C299.624 103.922 299.751 104.01 299.854 104.124C300.079 104.408 300.191 104.767 300.166 105.129C300.158 105.596 300.051 106.056 299.854 106.48C299.644 106.948 299.368 107.384 299.034 107.773C298.703 108.15 298.313 108.47 297.879 108.72C297.534 108.944 297.135 109.072 296.724 109.09ZM296.354 115.315C296.357 115.242 296.377 115.171 296.412 115.107L303.018 101.675L303.191 101.375C303.263 101.299 303.345 101.233 303.434 101.179L304.785 100.405C304.811 100.394 304.838 100.389 304.866 100.389C304.894 100.389 304.921 100.394 304.947 100.405C304.969 100.411 304.989 100.424 305.002 100.444C305.015 100.463 305.02 100.486 305.016 100.509C305.015 100.587 304.991 100.664 304.947 100.728L298.283 114.172C298.283 114.287 298.168 114.368 298.133 114.426C298.071 114.493 297.996 114.548 297.913 114.587L296.551 115.384C296.435 115.535 296.354 115.454 296.354 115.315V115.315ZM298.664 106.792C298.871 106.492 298.987 106.139 298.999 105.775C299.019 105.644 298.997 105.511 298.937 105.393C298.877 105.275 298.782 105.178 298.664 105.117C298.523 105.075 298.375 105.067 298.23 105.093C298.086 105.119 297.95 105.179 297.833 105.267C297.494 105.465 297.208 105.743 297.001 106.076C296.792 106.383 296.676 106.744 296.666 107.115C296.648 107.243 296.671 107.373 296.731 107.487C296.791 107.601 296.885 107.693 297.001 107.75C297.141 107.792 297.289 107.801 297.433 107.777C297.577 107.753 297.714 107.697 297.833 107.612C298.189 107.416 298.49 107.134 298.71 106.792H298.664ZM302.337 111.966C302.182 111.977 302.026 111.953 301.882 111.895C301.738 111.837 301.609 111.747 301.505 111.631C301.279 111.351 301.168 110.996 301.193 110.638C301.201 110.174 301.307 109.717 301.505 109.298C301.713 108.826 301.994 108.39 302.337 108.004C302.665 107.622 303.055 107.297 303.492 107.046C303.837 106.822 304.236 106.694 304.647 106.676C304.8 106.668 304.954 106.693 305.097 106.749C305.241 106.804 305.37 106.89 305.478 107C305.706 107.283 305.817 107.642 305.79 108.004C305.784 108.472 305.677 108.933 305.478 109.356C305.265 109.825 304.985 110.26 304.647 110.649C304.316 111.029 303.926 111.353 303.492 111.608C303.157 111.816 302.776 111.939 302.383 111.966H302.337ZM304.312 109.656C304.524 109.355 304.641 108.997 304.647 108.628C304.647 108.293 304.543 108.085 304.312 107.993C304.171 107.95 304.022 107.941 303.878 107.967C303.733 107.993 303.597 108.054 303.48 108.143C303.139 108.337 302.853 108.616 302.649 108.951C302.443 109.252 302.327 109.604 302.314 109.968C302.314 110.314 302.429 110.534 302.649 110.615C302.79 110.651 302.937 110.657 303.081 110.631C303.225 110.605 303.361 110.548 303.48 110.464C303.831 110.276 304.132 110.007 304.358 109.679L304.312 109.656Z" fill="black"/>
<path d="M351.029 98.3037C351.029 97.2527 350.29 96.8254 349.377 97.3451L334.167 106.146C333.687 106.461 333.288 106.884 333.001 107.381C332.714 107.879 332.548 108.437 332.516 109.01V121.31C332.516 122.372 333.255 122.8 334.167 122.268L339.861 119L342.24 123.111C342.267 123.173 342.311 123.226 342.368 123.263C342.424 123.3 342.49 123.319 342.558 123.319C342.625 123.319 342.691 123.3 342.747 123.263C342.804 123.226 342.848 123.173 342.875 123.111L345.381 115.87L349.435 113.56C349.915 113.245 350.315 112.822 350.602 112.325C350.888 111.827 351.055 111.269 351.087 110.696L351.029 98.3037Z" fill="#F5F5F5"/>
<path d="M337.794 111.205C337.639 111.215 337.484 111.19 337.34 111.132C337.197 111.074 337.067 110.984 336.963 110.87C336.744 110.587 336.637 110.234 336.662 109.877C336.669 109.407 336.771 108.943 336.963 108.514C337.169 108.041 337.45 107.605 337.794 107.22C338.125 106.841 338.515 106.517 338.949 106.262C339.295 106.042 339.694 105.919 340.104 105.904C340.259 105.892 340.415 105.917 340.559 105.975C340.703 106.033 340.832 106.123 340.936 106.239C341.164 106.521 341.276 106.881 341.247 107.244C341.24 107.707 341.133 108.164 340.936 108.583C340.728 109.055 340.447 109.492 340.104 109.877C339.776 110.26 339.386 110.584 338.949 110.835C338.604 111.059 338.205 111.187 337.794 111.205ZM337.413 117.43C337.416 117.352 337.44 117.276 337.482 117.211L344.089 103.779C344.133 103.672 344.192 103.571 344.262 103.479C344.325 103.399 344.404 103.332 344.493 103.282L345.856 102.497C345.925 102.497 345.971 102.439 346.017 102.497C346.063 102.555 346.075 102.497 346.075 102.601C346.076 102.678 346.056 102.754 346.017 102.82L339.376 116.321C339.335 116.411 339.285 116.496 339.226 116.575C339.168 116.642 339.098 116.697 339.018 116.737L337.644 117.534C337.552 117.58 337.413 117.557 337.413 117.43ZM339.723 108.907C339.928 108.606 340.044 108.254 340.058 107.89C340.078 107.759 340.056 107.626 339.996 107.508C339.936 107.389 339.84 107.293 339.723 107.232C339.582 107.19 339.434 107.182 339.289 107.208C339.145 107.234 339.008 107.294 338.891 107.382C338.556 107.58 338.274 107.858 338.071 108.191C337.858 108.495 337.741 108.858 337.736 109.23C337.716 109.358 337.738 109.489 337.798 109.603C337.859 109.718 337.955 109.81 338.071 109.865C338.21 109.907 338.357 109.915 338.499 109.889C338.642 109.863 338.776 109.804 338.891 109.715C339.25 109.527 339.552 109.248 339.769 108.907H339.723ZM343.396 114.081C343.241 114.09 343.086 114.064 342.942 114.006C342.799 113.948 342.669 113.859 342.564 113.746C342.349 113.461 342.243 113.109 342.264 112.753C342.272 112.287 342.374 111.827 342.564 111.401C342.778 110.932 343.058 110.497 343.396 110.108C343.727 109.732 344.117 109.412 344.55 109.161C344.897 108.94 345.295 108.813 345.705 108.791C345.859 108.781 346.013 108.804 346.157 108.86C346.301 108.916 346.431 109.003 346.537 109.115C346.764 109.394 346.875 109.749 346.849 110.108C346.844 110.579 346.737 111.044 346.537 111.471C346.326 111.937 346.046 112.37 345.705 112.753C345.376 113.134 344.986 113.458 344.55 113.711C344.216 113.922 343.836 114.049 343.442 114.081H343.396ZM345.382 111.771C345.591 111.464 345.707 111.103 345.717 110.731C345.733 110.604 345.71 110.475 345.65 110.361C345.59 110.247 345.497 110.155 345.382 110.096C345.238 110.059 345.088 110.055 344.942 110.083C344.797 110.11 344.659 110.17 344.539 110.258C344.203 110.451 343.921 110.725 343.719 111.055C343.505 111.356 343.385 111.714 343.372 112.083C343.372 112.429 343.488 112.637 343.719 112.729C343.858 112.766 344.004 112.772 344.146 112.746C344.287 112.72 344.422 112.663 344.539 112.579C344.893 112.391 345.198 112.122 345.428 111.794L345.382 111.771Z" fill="#E1A945"/>
<path opacity="0.4" d="M337.794 111.205C337.639 111.215 337.484 111.19 337.34 111.132C337.197 111.074 337.067 110.984 336.963 110.87C336.744 110.587 336.637 110.234 336.662 109.877C336.669 109.407 336.771 108.943 336.963 108.514C337.169 108.041 337.45 107.605 337.794 107.22C338.125 106.841 338.515 106.517 338.949 106.262C339.295 106.042 339.694 105.919 340.104 105.904C340.259 105.892 340.415 105.917 340.559 105.975C340.703 106.033 340.832 106.123 340.936 106.239C341.164 106.521 341.276 106.881 341.247 107.244C341.24 107.707 341.133 108.164 340.936 108.583C340.728 109.055 340.447 109.492 340.104 109.877C339.776 110.26 339.386 110.584 338.949 110.835C338.604 111.059 338.205 111.187 337.794 111.205ZM337.413 117.43C337.416 117.352 337.44 117.276 337.482 117.211L344.089 103.779C344.133 103.672 344.192 103.571 344.262 103.479C344.325 103.399 344.404 103.332 344.493 103.282L345.856 102.497C345.925 102.497 345.971 102.439 346.017 102.497C346.063 102.555 346.075 102.497 346.075 102.601C346.076 102.678 346.056 102.754 346.017 102.82L339.376 116.321C339.335 116.411 339.285 116.496 339.226 116.575C339.168 116.642 339.098 116.697 339.018 116.737L337.644 117.534C337.552 117.58 337.413 117.557 337.413 117.43ZM339.723 108.907C339.928 108.606 340.044 108.254 340.058 107.89C340.078 107.759 340.056 107.626 339.996 107.508C339.936 107.389 339.84 107.293 339.723 107.232C339.582 107.19 339.434 107.182 339.289 107.208C339.145 107.234 339.008 107.294 338.891 107.382C338.556 107.58 338.274 107.858 338.071 108.191C337.858 108.495 337.741 108.858 337.736 109.23C337.716 109.358 337.738 109.489 337.798 109.603C337.859 109.718 337.955 109.81 338.071 109.865C338.21 109.907 338.357 109.915 338.499 109.889C338.642 109.863 338.776 109.804 338.891 109.715C339.25 109.527 339.552 109.248 339.769 108.907H339.723ZM343.396 114.081C343.241 114.09 343.086 114.064 342.942 114.006C342.799 113.948 342.669 113.859 342.564 113.746C342.349 113.461 342.243 113.109 342.264 112.753C342.272 112.287 342.374 111.827 342.564 111.401C342.778 110.932 343.058 110.497 343.396 110.108C343.727 109.732 344.117 109.412 344.55 109.161C344.897 108.94 345.295 108.813 345.705 108.791C345.859 108.781 346.013 108.804 346.157 108.86C346.301 108.916 346.431 109.003 346.537 109.115C346.764 109.394 346.875 109.749 346.849 110.108C346.844 110.579 346.737 111.044 346.537 111.471C346.326 111.937 346.046 112.37 345.705 112.753C345.376 113.134 344.986 113.458 344.55 113.711C344.216 113.922 343.836 114.049 343.442 114.081H343.396ZM345.382 111.771C345.591 111.464 345.707 111.103 345.717 110.731C345.733 110.604 345.71 110.475 345.65 110.361C345.59 110.247 345.497 110.155 345.382 110.096C345.238 110.059 345.088 110.055 344.942 110.083C344.797 110.11 344.659 110.17 344.539 110.258C344.203 110.451 343.921 110.725 343.719 111.055C343.505 111.356 343.385 111.714 343.372 112.083C343.372 112.429 343.488 112.637 343.719 112.729C343.858 112.766 344.004 112.772 344.146 112.746C344.287 112.72 344.422 112.663 344.539 112.579C344.893 112.391 345.198 112.122 345.428 111.794L345.382 111.771Z" fill="black"/>
<path d="M266.775 81.8821C266.775 80.8311 266.036 80.4038 265.124 80.9351L249.913 89.724C249.432 90.0403 249.031 90.4653 248.744 90.9649C248.458 91.4645 248.292 92.0245 248.262 92.5998V104.911C248.262 105.962 249.001 106.39 249.913 105.858L255.549 102.601L257.928 106.701C257.955 106.763 258 106.816 258.056 106.853C258.113 106.89 258.179 106.909 258.246 106.909C258.313 106.909 258.379 106.89 258.436 106.853C258.492 106.816 258.537 106.763 258.564 106.701L261.07 99.4716L265.124 97.1618C265.606 96.8494 266.008 96.4268 266.295 95.9288C266.582 95.4308 266.747 94.8717 266.775 94.2975V81.8821Z" fill="#F5F5F5"/>
<path d="M253.531 94.7452C253.379 94.7555 253.226 94.7318 253.085 94.6759C252.943 94.62 252.815 94.5332 252.711 94.4219C252.494 94.1334 252.388 93.7771 252.411 93.4171C252.417 92.9471 252.52 92.4835 252.711 92.0543C252.918 91.5879 253.194 91.1556 253.531 90.7723C253.862 90.3893 254.252 90.0618 254.686 89.8022C255.034 89.5868 255.432 89.4636 255.841 89.4441C255.996 89.4327 256.151 89.4569 256.296 89.515C256.44 89.573 256.569 89.6634 256.672 89.7791C256.898 90.0634 257.009 90.4218 256.984 90.7839C256.976 91.2512 256.87 91.7116 256.672 92.1351C256.459 92.604 256.179 93.0397 255.841 93.4286C255.51 93.8049 255.12 94.1247 254.686 94.3757C254.341 94.5995 253.942 94.7271 253.531 94.7452ZM253.161 100.97C253.163 100.896 253.187 100.823 253.231 100.762L259.837 87.3191C259.884 87.2135 259.943 87.1128 260.01 87.0188C260.074 86.9392 260.152 86.8725 260.241 86.8225L261.604 86.0487C261.629 86.0372 261.657 86.0312 261.685 86.0313C261.713 86.0312 261.74 86.0372 261.766 86.0487C261.766 86.0487 261.823 86.0487 261.823 86.1526C261.826 86.2298 261.806 86.3062 261.766 86.372L255.125 99.8731C255.083 99.9626 255.033 100.048 254.975 100.127C254.92 100.197 254.848 100.253 254.767 100.289L253.392 101.086C253.242 101.167 253.161 101.144 253.161 101.005V100.97ZM255.471 92.4469C255.678 92.1474 255.795 91.7945 255.806 91.4306C255.826 91.2997 255.804 91.1658 255.744 91.0478C255.684 90.9297 255.589 90.8334 255.471 90.7723C255.331 90.7303 255.182 90.7221 255.038 90.7481C254.893 90.7742 254.757 90.8339 254.64 90.9224C254.305 91.1211 254.023 91.3986 253.82 91.7309C253.606 92.0357 253.489 92.398 253.485 92.7703C253.485 93.1052 253.589 93.3131 253.82 93.4055C253.959 93.4474 254.105 93.4557 254.248 93.4296C254.391 93.4035 254.525 93.3438 254.64 93.2554C255.012 93.0693 255.327 92.786 255.552 92.4354L255.471 92.4469ZM259.144 97.621C258.989 97.6325 258.833 97.6082 258.689 97.5502C258.545 97.4921 258.416 97.4018 258.312 97.2861C258.096 97.0021 257.989 96.6493 258.012 96.2928C258.022 95.8307 258.124 95.3752 258.312 94.9531C258.52 94.4812 258.801 94.0448 259.144 93.6596C259.472 93.2768 259.862 92.9526 260.299 92.701C260.644 92.4772 261.043 92.3496 261.454 92.3315C261.607 92.3234 261.761 92.348 261.904 92.4038C262.048 92.4595 262.178 92.5451 262.285 92.6548C262.509 92.9397 262.616 93.2988 262.586 93.6596C262.584 94.1263 262.481 94.5872 262.285 95.0109C262.072 95.4798 261.792 95.9154 261.454 96.3044C261.122 96.6834 260.732 97.007 260.299 97.263C259.967 97.4833 259.586 97.6182 259.19 97.6557L259.144 97.621ZM261.13 95.3112C261.338 95.0075 261.454 94.6508 261.465 94.2833C261.484 94.1556 261.461 94.0255 261.401 93.9114C261.341 93.7973 261.246 93.7052 261.13 93.6481C260.988 93.6051 260.837 93.5963 260.691 93.6224C260.544 93.6485 260.406 93.7087 260.287 93.7982C259.95 93.9941 259.668 94.2723 259.467 94.6067C259.254 94.9037 259.133 95.2574 259.121 95.623C259.121 95.9695 259.236 96.1889 259.467 96.2697C259.607 96.3064 259.752 96.312 259.894 96.286C260.036 96.2601 260.17 96.2033 260.287 96.1196C260.638 95.9412 260.942 95.6843 261.177 95.3689L261.13 95.3112Z" fill="#E1A945"/>
<path opacity="0.4" d="M253.531 94.7452C253.379 94.7555 253.226 94.7318 253.085 94.6759C252.943 94.62 252.815 94.5332 252.711 94.4219C252.494 94.1334 252.388 93.7771 252.411 93.4171C252.417 92.9471 252.52 92.4835 252.711 92.0543C252.918 91.5879 253.194 91.1556 253.531 90.7723C253.862 90.3893 254.252 90.0618 254.686 89.8022C255.034 89.5868 255.432 89.4636 255.841 89.4441C255.996 89.4327 256.151 89.4569 256.296 89.515C256.44 89.573 256.569 89.6634 256.672 89.7791C256.898 90.0634 257.009 90.4218 256.984 90.7839C256.976 91.2512 256.87 91.7116 256.672 92.1351C256.459 92.604 256.179 93.0397 255.841 93.4286C255.51 93.8049 255.12 94.1247 254.686 94.3757C254.341 94.5995 253.942 94.7271 253.531 94.7452ZM253.161 100.97C253.163 100.896 253.187 100.823 253.231 100.762L259.837 87.3191C259.884 87.2135 259.943 87.1128 260.01 87.0188C260.074 86.9392 260.152 86.8725 260.241 86.8225L261.604 86.0487C261.629 86.0372 261.657 86.0312 261.685 86.0313C261.713 86.0312 261.74 86.0372 261.766 86.0487C261.766 86.0487 261.823 86.0487 261.823 86.1526C261.826 86.2298 261.806 86.3062 261.766 86.372L255.125 99.8731C255.083 99.9626 255.033 100.048 254.975 100.127C254.92 100.197 254.848 100.253 254.767 100.289L253.392 101.086C253.242 101.167 253.161 101.144 253.161 101.005V100.97ZM255.471 92.4469C255.678 92.1474 255.795 91.7945 255.806 91.4306C255.826 91.2997 255.804 91.1658 255.744 91.0478C255.684 90.9297 255.589 90.8334 255.471 90.7723C255.331 90.7303 255.182 90.7221 255.038 90.7481C254.893 90.7742 254.757 90.8339 254.64 90.9224C254.305 91.1211 254.023 91.3986 253.82 91.7309C253.606 92.0357 253.489 92.398 253.485 92.7703C253.485 93.1052 253.589 93.3131 253.82 93.4055C253.959 93.4474 254.105 93.4557 254.248 93.4296C254.391 93.4035 254.525 93.3438 254.64 93.2554C255.012 93.0693 255.327 92.786 255.552 92.4354L255.471 92.4469ZM259.144 97.621C258.989 97.6325 258.833 97.6082 258.689 97.5502C258.545 97.4921 258.416 97.4018 258.312 97.2861C258.096 97.0021 257.989 96.6493 258.012 96.2928C258.022 95.8307 258.124 95.3752 258.312 94.9531C258.52 94.4812 258.801 94.0448 259.144 93.6596C259.472 93.2768 259.862 92.9526 260.299 92.701C260.644 92.4772 261.043 92.3496 261.454 92.3315C261.607 92.3234 261.761 92.348 261.904 92.4038C262.048 92.4595 262.178 92.5451 262.285 92.6548C262.509 92.9397 262.616 93.2988 262.586 93.6596C262.584 94.1263 262.481 94.5872 262.285 95.0109C262.072 95.4798 261.792 95.9154 261.454 96.3044C261.122 96.6834 260.732 97.007 260.299 97.263C259.967 97.4833 259.586 97.6182 259.19 97.6557L259.144 97.621ZM261.13 95.3112C261.338 95.0075 261.454 94.6508 261.465 94.2833C261.484 94.1556 261.461 94.0255 261.401 93.9114C261.341 93.7973 261.246 93.7052 261.13 93.6481C260.988 93.6051 260.837 93.5963 260.691 93.6224C260.544 93.6485 260.406 93.7087 260.287 93.7982C259.95 93.9941 259.668 94.2723 259.467 94.6067C259.254 94.9037 259.133 95.2574 259.121 95.623C259.121 95.9695 259.236 96.1889 259.467 96.2697C259.607 96.3064 259.752 96.312 259.894 96.286C260.036 96.2601 260.17 96.2033 260.287 96.1196C260.638 95.9412 260.942 95.6843 261.177 95.3689L261.13 95.3112Z" fill="black"/>
<path d="M211.559 147.435C211.559 146.384 210.82 145.956 209.907 146.476L194.697 155.277C194.215 155.593 193.815 156.018 193.528 156.517C193.241 157.017 193.076 157.577 193.045 158.152V170.452C193.045 171.515 193.785 171.942 194.697 171.411L200.345 168.154L202.712 172.254C202.746 172.313 202.797 172.361 202.857 172.392C202.918 172.424 202.986 172.437 203.054 172.431C203.122 172.425 203.187 172.4 203.241 172.358C203.295 172.317 203.336 172.26 203.359 172.196L205.865 164.955L209.907 162.645C210.389 162.331 210.789 161.908 211.076 161.411C211.363 160.913 211.528 160.354 211.559 159.781V147.435Z" fill="#F5F5F5"/>
<path d="M198.323 160.335C198.17 160.348 198.016 160.324 197.873 160.266C197.731 160.207 197.604 160.117 197.503 160C197.279 159.72 197.172 159.364 197.203 159.007C197.204 158.537 197.306 158.072 197.503 157.644C197.708 157.174 197.985 156.737 198.323 156.351C198.652 155.969 199.043 155.645 199.478 155.392C199.825 155.172 200.223 155.049 200.633 155.034C200.788 155.023 200.944 155.047 201.088 155.105C201.232 155.163 201.361 155.253 201.465 155.369C201.692 155.652 201.804 156.012 201.777 156.374C201.769 156.838 201.662 157.294 201.465 157.714C201.254 158.188 200.974 158.627 200.633 159.019C200.302 159.395 199.912 159.715 199.478 159.966C199.131 160.186 198.734 160.313 198.323 160.335ZM197.954 166.56C197.958 166.484 197.978 166.409 198.011 166.341L204.618 152.909C204.662 152.802 204.721 152.701 204.791 152.609C204.857 152.532 204.935 152.466 205.022 152.412L206.385 151.627C206.437 151.609 206.494 151.609 206.546 151.627C206.569 151.633 206.588 151.646 206.601 151.666C206.614 151.685 206.619 151.708 206.616 151.731C206.612 151.809 206.589 151.885 206.546 151.951L199.917 165.452C199.859 165.567 199.802 165.648 199.767 165.706C199.702 165.77 199.628 165.824 199.548 165.867L198.173 166.664C198.023 166.71 197.954 166.699 197.954 166.56V166.56ZM200.264 158.037C200.466 157.736 200.578 157.383 200.587 157.021C200.587 156.674 200.483 156.455 200.264 156.362C200.123 156.32 199.974 156.312 199.83 156.338C199.685 156.364 199.549 156.424 199.432 156.512C199.091 156.707 198.804 156.985 198.6 157.321C198.392 157.628 198.275 157.989 198.266 158.36C198.247 158.488 198.27 158.618 198.33 158.732C198.39 158.846 198.485 158.938 198.6 158.996C198.741 159.038 198.89 159.046 199.034 159.02C199.179 158.994 199.315 158.934 199.432 158.845C199.788 158.654 200.089 158.376 200.31 158.037H200.264ZM203.936 163.211C203.781 163.22 203.627 163.195 203.483 163.137C203.339 163.079 203.21 162.99 203.105 162.876C202.881 162.595 202.77 162.241 202.793 161.883C202.801 161.419 202.907 160.963 203.105 160.543C203.315 160.069 203.596 159.629 203.936 159.238C204.269 158.864 204.659 158.544 205.091 158.291C205.438 158.071 205.836 157.943 206.246 157.921C206.4 157.911 206.554 157.935 206.698 157.991C206.842 158.046 206.971 158.133 207.078 158.245C207.306 158.528 207.418 158.887 207.389 159.25C207.383 159.717 207.277 160.178 207.078 160.601C206.867 161.068 206.586 161.5 206.246 161.883C205.92 162.268 205.529 162.592 205.091 162.841C204.759 163.058 204.378 163.185 203.982 163.211H203.936ZM205.911 160.901C206.12 160.594 206.236 160.233 206.246 159.862C206.263 159.734 206.239 159.605 206.179 159.491C206.119 159.377 206.026 159.285 205.911 159.227C205.767 159.19 205.617 159.185 205.471 159.213C205.326 159.241 205.188 159.301 205.068 159.388C204.736 159.585 204.455 159.859 204.248 160.185C204.039 160.488 203.923 160.845 203.913 161.213C203.913 161.56 204.017 161.767 204.248 161.86C204.387 161.896 204.533 161.902 204.675 161.876C204.816 161.85 204.951 161.793 205.068 161.71C205.422 161.521 205.727 161.252 205.957 160.924L205.911 160.901Z" fill="#E1A945"/>
<path opacity="0.4" d="M198.323 160.335C198.17 160.348 198.016 160.324 197.873 160.266C197.731 160.207 197.604 160.117 197.503 160C197.279 159.72 197.172 159.364 197.203 159.007C197.204 158.537 197.306 158.072 197.503 157.644C197.708 157.174 197.985 156.737 198.323 156.351C198.652 155.969 199.043 155.645 199.478 155.392C199.825 155.172 200.223 155.049 200.633 155.034C200.788 155.023 200.944 155.047 201.088 155.105C201.232 155.163 201.361 155.253 201.465 155.369C201.692 155.652 201.804 156.012 201.777 156.374C201.769 156.838 201.662 157.294 201.465 157.714C201.254 158.188 200.974 158.627 200.633 159.019C200.302 159.395 199.912 159.715 199.478 159.966C199.131 160.186 198.734 160.313 198.323 160.335ZM197.954 166.56C197.958 166.484 197.978 166.409 198.011 166.341L204.618 152.909C204.662 152.802 204.721 152.701 204.791 152.609C204.857 152.532 204.935 152.466 205.022 152.412L206.385 151.627C206.437 151.609 206.494 151.609 206.546 151.627C206.569 151.633 206.588 151.646 206.601 151.666C206.614 151.685 206.619 151.708 206.616 151.731C206.612 151.809 206.589 151.885 206.546 151.951L199.917 165.452C199.859 165.567 199.802 165.648 199.767 165.706C199.702 165.77 199.628 165.824 199.548 165.867L198.173 166.664C198.023 166.71 197.954 166.699 197.954 166.56V166.56ZM200.264 158.037C200.466 157.736 200.578 157.383 200.587 157.021C200.587 156.674 200.483 156.455 200.264 156.362C200.123 156.32 199.974 156.312 199.83 156.338C199.685 156.364 199.549 156.424 199.432 156.512C199.091 156.707 198.804 156.985 198.6 157.321C198.392 157.628 198.275 157.989 198.266 158.36C198.247 158.488 198.27 158.618 198.33 158.732C198.39 158.846 198.485 158.938 198.6 158.996C198.741 159.038 198.89 159.046 199.034 159.02C199.179 158.994 199.315 158.934 199.432 158.845C199.788 158.654 200.089 158.376 200.31 158.037H200.264ZM203.936 163.211C203.781 163.22 203.627 163.195 203.483 163.137C203.339 163.079 203.21 162.99 203.105 162.876C202.881 162.595 202.77 162.241 202.793 161.883C202.801 161.419 202.907 160.963 203.105 160.543C203.315 160.069 203.596 159.629 203.936 159.238C204.269 158.864 204.659 158.544 205.091 158.291C205.438 158.071 205.836 157.943 206.246 157.921C206.4 157.911 206.554 157.935 206.698 157.991C206.842 158.046 206.971 158.133 207.078 158.245C207.306 158.528 207.418 158.887 207.389 159.25C207.383 159.717 207.277 160.178 207.078 160.601C206.867 161.068 206.586 161.5 206.246 161.883C205.92 162.268 205.529 162.592 205.091 162.841C204.759 163.058 204.378 163.185 203.982 163.211H203.936ZM205.911 160.901C206.12 160.594 206.236 160.233 206.246 159.862C206.263 159.734 206.239 159.605 206.179 159.491C206.119 159.377 206.026 159.285 205.911 159.227C205.767 159.19 205.617 159.185 205.471 159.213C205.326 159.241 205.188 159.301 205.068 159.388C204.736 159.585 204.455 159.859 204.248 160.185C204.039 160.488 203.923 160.845 203.913 161.213C203.913 161.56 204.017 161.767 204.248 161.86C204.387 161.896 204.533 161.902 204.675 161.876C204.816 161.85 204.951 161.793 205.068 161.71C205.422 161.521 205.727 161.252 205.957 160.924L205.911 160.901Z" fill="black"/>
<path d="M197.897 262.418L209.042 255.986C210.67 255.05 211.975 255.454 211.975 256.886C211.855 257.78 211.527 258.633 211.017 259.377C210.508 260.121 209.831 260.736 209.042 261.171L197.908 267.604C196.28 268.54 194.963 268.135 194.963 266.703C195.089 265.811 195.419 264.96 195.928 264.217C196.437 263.474 197.111 262.858 197.897 262.418V262.418Z" fill="#F5F5F5"/>
<path d="M253.321 230.416L264.466 223.983C266.083 223.047 267.399 223.451 267.399 224.883C267.274 225.775 266.943 226.626 266.435 227.37C265.926 228.113 265.252 228.728 264.466 229.168L253.321 235.647C251.704 236.583 250.387 236.179 250.387 234.746C250.508 233.847 250.836 232.988 251.345 232.236C251.854 231.484 252.53 230.861 253.321 230.416Z" fill="#F5F5F5"/>
<path d="M295.673 206L306.818 199.568C308.435 198.632 309.752 199.036 309.752 200.468C309.626 201.36 309.296 202.211 308.787 202.955C308.278 203.698 307.604 204.313 306.818 204.753L295.673 211.186C294.056 212.122 292.74 211.729 292.74 210.297C292.865 209.403 293.194 208.55 293.703 207.805C294.212 207.06 294.886 206.442 295.673 206V206Z" fill="#F5F5F5"/>
<path d="M337.39 181.885L348.535 175.452C350.163 174.516 351.48 174.909 351.468 176.341C351.349 177.237 351.022 178.092 350.513 178.838C350.003 179.585 349.326 180.201 348.535 180.638L337.401 187.07C335.773 188.006 334.456 187.602 334.456 186.17C334.582 185.278 334.912 184.427 335.421 183.684C335.93 182.94 336.603 182.325 337.39 181.885V181.885Z" fill="#F5F5F5"/>
<path d="M414.93 118.619C412.078 118.411 408.116 118.4 404.201 124.798C400.286 131.196 389.649 148.797 389.649 148.797L396.578 153.486L408.705 136.451C408.705 136.451 409.86 122.834 412.101 120.929C414.341 119.023 414.93 118.619 414.93 118.619Z" fill="#F28F8F"/>
<path d="M424.539 247.45L418.034 249.556L421.097 259.016L427.602 256.91L424.539 247.45Z" fill="#FFA8A7"/>
<path d="M419.792 254.9C419.833 255.676 419.636 256.446 419.227 257.106C418.191 258.828 416.972 260.431 415.589 261.888C413.637 263.978 410.715 266.507 408.659 268.274C407.504 269.291 407.446 270.827 409.109 271.358C412.205 272.119 415.474 271.664 418.245 270.088C420.324 268.933 423.28 263.828 425.001 263.043C426.988 262.153 428.108 261.703 428.778 260.733C429.285 260.212 429.601 259.534 429.674 258.811C429.747 258.088 429.574 257.361 429.182 256.748C428.246 255.004 426.872 252.325 426.26 252.625L426.433 253.168C425.983 254.589 422.114 256.24 420.127 255.847L419.792 254.9Z" fill="#263238"/>
<path d="M426.409 253.225C424.573 252.659 424.019 253.629 422.032 253.225L419.792 254.899C419.838 255.676 419.64 256.447 419.226 257.105C418.191 258.827 416.971 260.43 415.588 261.887C414.629 262.903 413.451 264.012 412.261 265.097C411.303 266.599 414.502 267.038 416.269 266.529C418.208 265.836 419.88 264.551 421.05 262.857C422.332 261.171 425.82 257.255 426.34 255.927C426.714 255.07 426.739 254.1 426.409 253.225V253.225Z" fill="#FFA8A7"/>
<path d="M448.26 157.574C447.313 150.645 445.188 142.56 442.393 130.122C441.388 125.629 440.083 121.575 436.873 120.328C436.873 120.328 428.061 123.955 428.061 130.468C428.061 136.982 435.186 140.32 435.186 140.32L439.252 154.341L445.696 162.159C446.629 161.868 447.414 161.23 447.891 160.377C448.367 159.524 448.5 158.522 448.26 157.574V157.574Z" fill="#FFA8A7"/>
<path d="M434.495 262.88H427.854V272.547H434.495V262.88Z" fill="#FFA8A7"/>
<path d="M439.496 164.343C442.129 175.615 439.565 190.825 438.664 200.307C437.786 209.546 436.701 220.345 436.701 220.345C436.701 220.345 439.53 230.104 439.392 237.669C439.253 245.661 434.576 264.902 434.576 264.902C433.56 265.556 432.377 265.904 431.169 265.904C429.96 265.904 428.778 265.556 427.762 264.902C427.762 264.902 426.607 248.733 425.452 239.586C424.297 230 423.927 223.024 422.946 217.423C421.71 210.493 419.643 180.951 419.643 180.951L416.085 210.239C418.219 213.748 419.881 217.523 421.029 221.465C422.484 227.136 425.648 249.645 425.648 249.645C423.668 251.419 421.122 252.43 418.465 252.498C418.465 252.498 404.236 218.693 402.296 215.321C400.217 211.729 399.905 172.393 403.22 162.541L439.496 164.343Z" fill="#455A64"/>
<path d="M427.334 118.769C427.334 118.769 435.742 119.82 436.874 120.328C428.062 126.53 435.188 140.32 435.188 140.32L430.926 152.066L439.484 164.308C437.024 167.149 421.375 177.012 404.582 166.202C404.922 160.499 405.581 154.819 406.557 149.19C404.132 137.641 403.878 133.956 404.582 131.242C406.557 123.608 411.073 118.735 416.259 118.446L427.334 118.769Z" fill="#E1A945"/>
<path opacity="0.7" d="M427.334 118.769C427.334 118.769 435.742 119.82 436.874 120.328C428.062 126.53 435.188 140.32 435.188 140.32L430.926 152.066L439.484 164.308C437.024 167.149 421.375 177.012 404.582 166.202C404.922 160.499 405.581 154.819 406.557 149.19C404.132 137.641 403.878 133.956 404.582 131.242C406.557 123.608 411.073 118.735 416.259 118.446L427.334 118.769Z" fill="white"/>
<path d="M384.74 139.432L413.382 146.985L421.836 182.533L394.603 174.622L384.74 139.432Z" fill="#E1A945"/>
<path d="M397.226 162.957C396.96 163.685 395.401 165.694 392.063 165.544L391.647 164.066L397.226 162.957Z" fill="#E1A945"/>
<path opacity="0.2" d="M397.226 162.957C396.96 163.685 395.401 165.694 392.063 165.544L391.647 164.066L397.226 162.957Z" fill="black"/>
<path d="M403.635 164.043C403.75 164.99 405.702 166.745 408.994 167.843C412.747 169.102 418.487 168.432 418.487 168.432L417.979 166.665L403.635 164.043Z" fill="#E1A945"/>
<path opacity="0.2" d="M403.635 164.043C403.75 164.99 405.702 166.745 408.994 167.843C412.747 169.102 418.487 168.432 418.487 168.432L417.979 166.665L403.635 164.043Z" fill="black"/>
<path d="M393.126 144.582L392.895 143.496C392.756 142.884 394.442 142.861 396.648 143.427L400.864 144.524C403.07 145.101 404.964 146.049 405.091 146.649L405.333 147.746L393.126 144.582Z" fill="#E1A945"/>
<path opacity="0.3" d="M393.126 144.582L392.895 143.496C392.756 142.884 394.442 142.861 396.648 143.427L400.864 144.524C403.07 145.101 404.964 146.049 405.091 146.649L405.333 147.746L393.126 144.582Z" fill="black"/>
<path d="M391.137 140.459C391.057 140.089 391.738 139.985 392.662 140.239L394.337 140.701C394.337 140.701 393.828 138.392 397.547 139.165C398.535 139.304 399.47 139.696 400.262 140.303C401.053 140.91 401.674 141.712 402.063 142.63L403.842 143.138C404.835 143.416 405.724 143.947 405.84 144.293L406.047 144.975L391.299 141.094C391.299 141.094 391.218 140.84 391.137 140.459Z" fill="#455A64"/>
<path d="M393.171 141.638C394.523 141.973 395.089 142.146 395.285 143.082C395.481 144.017 395.608 144.918 395.608 144.918L402.145 146.65C402.145 146.65 401.833 145.299 401.729 144.779C401.626 144.26 401.845 143.936 402.884 144.213L402.977 143.798L392.744 141.188L393.171 141.638Z" fill="#455A64"/>
<path d="M392.986 144.686C392.986 144.686 392.882 144.201 392.743 143.531C392.605 142.861 394.291 142.907 396.497 143.531L400.724 144.628C402.93 145.206 404.812 146.153 404.951 146.753L405.182 147.851L392.986 144.686Z" fill="#455A64"/>
<path d="M445.698 162.16L439.253 154.341C439.253 154.341 424.747 160.427 422.461 160.601C420.174 160.774 418.407 158.533 417.529 156.304C416.651 154.075 414.919 154.352 414.919 154.352C414.919 154.352 415.601 157.182 415.808 158.094C416.016 159.007 410.784 159.734 407.724 158.706C404.663 157.679 400.309 159.168 403.035 163.326C405.761 167.484 411.027 167.946 414.7 167.946C416.244 167.934 417.787 167.83 419.319 167.634C420.474 167.484 421.629 167.357 422.888 167.276C430.384 166.699 442.279 163.222 445.698 162.16Z" fill="#FFA8A7"/>
<path d="M387.652 149.825L388.922 154.364C389.176 155.23 392.502 156.824 394.604 157.401C396.706 157.979 399.016 158.66 398.069 161.605C397.145 164.319 393.68 164.943 391.913 164.862C390.146 164.781 387.744 163.106 386.785 160.381C385.63 156.916 386.231 153.22 385.746 151.141C385.261 149.063 386.601 148.624 387.652 149.825Z" fill="#FFA8A7"/>
<path d="M427.854 269.279V268.321C427.033 271.463 425.395 274.332 423.107 276.636C421.005 278.553 418.153 280.759 417.425 282.884C416.697 285.009 420.797 285.98 423.511 285.714C426.138 285.383 428.557 284.116 430.325 282.145C432.046 280.17 432.012 278.819 432.82 277.733C433.629 276.648 435.476 275.424 435.915 274.165C436.045 272.996 435.915 271.813 435.534 270.7C435.222 269.545 434.887 268.24 434.495 268.39V269.118C433.55 269.87 432.376 270.278 431.169 270.273C430.198 270.215 427.842 270.019 427.854 269.279Z" fill="#263238"/>
<path d="M434.495 269.048C434.01 269.579 433.768 268.274 432.266 268.32C431.296 268.32 429.668 269.059 429.668 268.32H427.854C427.033 271.462 425.396 274.331 423.108 276.635C422.6 277.097 422.057 277.571 421.502 278.056C420.347 279.303 420.706 280.366 423.327 280.608C425.949 280.851 428.247 279.257 430.257 276.82C431.934 274.382 433.354 271.778 434.495 269.048V269.048Z" fill="#FFA8A7"/>
<path d="M421.582 113.087H420.012C415.999 113.087 412.151 111.493 409.314 108.656C406.476 105.819 404.882 101.971 404.882 97.9579V96.4219C404.882 93.0127 406.237 89.7431 408.647 87.3325C411.058 84.9218 414.327 83.5675 417.737 83.5675H423.927C427.336 83.5675 430.606 84.9218 433.016 87.3325C435.427 89.7431 436.781 93.0127 436.781 96.4219V97.8771C436.781 101.909 435.18 105.776 432.33 108.628C429.48 111.48 425.614 113.084 421.582 113.087V113.087Z" fill="#263238"/>
<path d="M410.126 90.0229C408.44 91.0162 406.361 95.2548 406.569 104.136C406.742 111.666 409.179 113.526 410.403 114.068C411.627 114.611 413.995 114.276 416.293 113.895V118.411C416.293 118.411 413.117 122.107 413.325 124.186C413.533 126.264 417.945 126.75 420.878 124.717C423.026 123.054 424.877 121.039 426.352 118.757L426.295 108.363C426.295 108.363 427.646 109.68 429.944 107.67C431.838 106.019 432.474 103.224 430.995 101.734C430.614 101.377 430.153 101.116 429.651 100.973C429.149 100.83 428.619 100.808 428.107 100.909C427.595 101.011 427.114 101.233 426.705 101.557C426.295 101.881 425.968 102.298 425.752 102.773C422.736 102.651 419.798 101.778 417.205 100.232C415.308 99.204 413.679 97.7443 412.45 95.971C411.22 94.1976 410.424 92.1602 410.126 90.0229V90.0229Z" fill="#FFA8A7"/>
<path d="M414.93 102.255C414.921 102.381 414.937 102.507 414.976 102.627C415.016 102.747 415.079 102.858 415.161 102.953C415.244 103.049 415.345 103.127 415.458 103.184C415.571 103.24 415.694 103.274 415.82 103.283C416.078 103.289 416.329 103.193 416.517 103.016C416.705 102.838 416.815 102.594 416.825 102.336C416.835 102.084 416.746 101.839 416.576 101.654C416.492 101.562 416.39 101.488 416.277 101.436C416.164 101.383 416.042 101.353 415.918 101.348C415.667 101.337 415.422 101.427 415.236 101.597C415.051 101.767 414.941 102.003 414.93 102.255V102.255Z" fill="#263238"/>
<path d="M414.723 108.606L412.529 109.31C412.615 109.602 412.812 109.848 413.078 109.995C413.344 110.142 413.657 110.178 413.949 110.096C414.1 110.053 414.241 109.979 414.363 109.88C414.485 109.78 414.585 109.657 414.657 109.518C414.73 109.378 414.773 109.225 414.784 109.069C414.796 108.912 414.775 108.754 414.723 108.606V108.606Z" fill="#F28F8F"/>
<path d="M407.216 99.3674L409.133 98.0392C408.964 97.786 408.701 97.61 408.403 97.5494C408.104 97.4889 407.794 97.5487 407.539 97.7158C407.406 97.7997 407.291 97.9101 407.202 98.0401C407.112 98.1701 407.051 98.3169 407.021 98.4717C406.99 98.6264 406.992 98.7857 407.026 98.9397C407.059 99.0938 407.124 99.2393 407.216 99.3674V99.3674Z" fill="#263238"/>
<path d="M407.653 101.56C407.651 101.746 407.704 101.928 407.805 102.084C407.905 102.24 408.05 102.363 408.22 102.438C408.39 102.513 408.579 102.535 408.762 102.504C408.945 102.472 409.114 102.387 409.25 102.26C409.385 102.133 409.48 101.968 409.522 101.787C409.565 101.607 409.553 101.417 409.489 101.243C409.425 101.069 409.31 100.917 409.161 100.807C409.011 100.697 408.832 100.634 408.647 100.625C408.52 100.62 408.393 100.641 408.274 100.685C408.156 100.73 408.047 100.798 407.954 100.885C407.862 100.972 407.788 101.076 407.736 101.192C407.684 101.308 407.656 101.433 407.653 101.56V101.56Z" fill="#263238"/>
<path d="M412.124 101.029L411.974 106.723L408.971 105.787L412.124 101.029Z" fill="#F28F8F"/>
<path d="M416.294 113.896C418.719 113.572 423.697 112.14 424.471 110.177C424.162 111.175 423.553 112.054 422.727 112.694C421.237 113.965 416.294 115.397 416.294 115.397V113.896Z" fill="#F28F8F"/>
<path d="M433.444 145.126L426.814 154.111L430.926 152.067L433.444 145.126Z" fill="#E1A945"/>
<path opacity="0.3" d="M433.444 145.126L426.814 154.111L430.926 152.067L433.444 145.126Z" fill="white"/>
</svg>
