<svg width="117" height="84" viewBox="0 0 117 84" fill="none" xmlns="http://www.w3.org/2000/svg">
<path d="M42.1318 0C42.2405 0.367053 42.7299 0.489404 42.7571 0.92443C42.7571 8.65973 42.7571 16.395 42.7571 24.1032C42.526 24.5246 42.1454 24.4158 41.8055 24.4158C41.4113 24.0352 41.2617 23.5866 41.2617 23.0292C41.2753 15.6745 41.2753 8.31987 41.2753 0.978808C41.2753 0.638944 41.2481 0.285486 41.4928 0C41.6967 0 41.9143 0 42.1318 0Z" fill="#CBB894"/>
<path d="M57.4389 3.02916C57.7924 2.97478 58.1322 2.9204 58.4041 3.26027C58.6216 4.13032 58.309 4.9188 57.9963 5.70729C57.6428 6.59093 57.2622 7.47458 56.9359 8.37182C56.7184 8.95639 56.4057 9.50017 56.1746 10.0847C55.6988 11.2403 55.1414 12.3686 54.6928 13.5378C54.1626 14.9244 53.4149 16.2295 53.0751 17.6841C52.5993 18.1463 52.5585 18.826 52.2594 19.3834C51.9195 19.9816 51.6205 20.6477 51.4573 21.2867C51.2806 21.98 50.6688 22.483 50.7368 23.2443C50.2746 23.8968 49.9755 24.6445 49.7036 25.3786C49.5677 25.7457 49.2958 25.9088 49.0919 26.1399C48.82 25.8272 48.5617 25.5417 48.317 25.2427C48.0587 24.6581 48.5753 24.1279 48.7656 23.489C49.0647 22.483 49.5677 21.5314 49.8939 20.5254C50.0979 19.9 50.5057 19.3426 50.7096 18.7309C51.3486 16.8548 52.273 15.1011 52.9119 13.2115C53.1023 12.6269 53.4421 12.0831 53.6732 11.4986C54.2034 10.1799 54.9103 8.94279 55.2638 7.55615C55.8212 6.94439 55.9299 6.11512 56.2834 5.40821C56.6232 4.74207 56.8815 4.02156 57.1806 3.32824C57.2214 3.23308 57.3438 3.13792 57.4389 3.02916Z" fill="#CBB894"/>
<path d="M35.6583 25.6271C35.5496 25.7358 35.4816 25.8038 35.3728 25.9125C35.1553 25.9125 34.9106 25.9125 34.5979 25.9125C34.1085 24.9337 33.524 23.9549 33.1297 22.9081C32.885 22.2556 32.5723 21.6438 32.314 20.9913C31.5935 19.1832 30.6963 17.4431 30.003 15.6351C29.2553 13.691 28.3037 11.8422 27.7191 9.83018C27.4744 8.98732 27.0122 8.19883 26.6587 7.38316C26.2645 6.47232 26.1557 5.45273 25.5983 4.60987C25.476 4.43314 25.6799 3.73982 25.8974 3.23682C26.8762 3.34557 27.2569 4.14765 27.4744 4.88176C27.6783 5.60227 28.0997 6.20043 28.3172 6.89375C28.8067 8.47072 29.5544 9.95253 30.1525 11.4887C30.5604 12.5627 31.0633 13.6095 31.5528 14.6562C31.9334 15.4583 32.1917 16.3284 32.5588 17.1305C32.9258 17.9461 33.1841 18.8162 33.5783 19.5911C34.2037 20.801 34.5979 22.1061 35.1145 23.3568C35.4136 24.0773 35.8078 24.8114 35.6583 25.6271Z" fill="#CBB894"/>
<path d="M81.0129 57.561C80.9993 57.8873 81.0945 58.2407 80.6866 58.4718C80.0205 58.5942 79.3815 58.3359 78.7018 58.0912C76.3364 57.2211 74.1204 56.0248 71.7142 55.2907C70.8578 54.6925 69.8518 54.4206 68.9001 54.0536C67.0513 53.3467 65.2704 52.463 63.3807 51.8513C62.8234 51.6745 62.3204 51.3347 61.7494 51.1444C60.8522 50.8181 60.0229 50.3151 59.1392 49.9616C58.5955 49.7441 58.2284 49.4314 58.0381 48.8469C58.2012 48.4254 58.6498 48.3983 58.9489 48.1943C60.3084 48.7381 61.6271 49.2955 62.9593 49.7849C63.8566 50.1248 64.7674 50.4646 65.6374 50.8317C66.5755 51.2395 67.5135 51.6745 68.4651 52.028C70.314 52.7349 72.1085 53.605 73.9845 54.2439C74.6234 54.4614 75.2624 54.7741 75.8877 55.0868C77.1113 55.6849 78.3891 56.12 79.6126 56.7181C80.0749 56.9492 80.6051 57.058 81.0129 57.561Z" fill="#CBB894"/>
<path d="M48.6041 58.0762C49.8276 58.2121 49.9635 59.2181 50.2354 59.925C50.4937 60.6048 50.8608 61.2301 51.0647 61.937C51.2958 62.7255 51.69 63.4596 51.9891 64.2209C52.2882 64.9958 52.5601 65.7843 52.8999 66.5184C53.2534 67.2661 53.4981 68.0546 53.9059 68.7887C54.2322 69.3868 54.5585 70.0394 54.7352 70.6919C54.9119 71.3445 55.4829 71.8339 55.4285 72.5544C55.9995 73.1525 56.1219 73.9818 56.4617 74.7023C57.1414 76.1297 57.6716 77.6251 58.2018 79.1206C58.3106 79.4468 58.4737 79.7323 58.6368 80.1401C58.6368 80.3305 58.6368 80.6431 58.6368 81.0102C57.8348 81.0238 57.2774 80.8063 56.8967 80.0314C56.4345 79.0798 56.0131 78.1145 55.6324 77.1221C55.4285 76.5648 55.1294 76.0482 54.9119 75.4908C54.3274 73.9546 53.5661 72.4728 52.9815 70.9366C52.4513 69.55 51.8396 68.1905 51.2958 66.8175C50.9151 65.8387 50.4665 64.8735 50.0723 63.8946C49.5285 62.5488 48.9439 61.2165 48.4681 59.8435C48.3322 59.4492 48.237 59.0822 48.4273 58.7695C48.5769 58.5384 48.5089 58.2937 48.6041 58.0762Z" fill="#CBB894"/>
<path d="M72.1878 71.1268C72.1062 71.5482 72.1198 71.5618 71.6848 71.9697C71.1546 72.0784 70.706 71.9153 70.3117 71.5211C70.1894 71.3987 70.0534 71.2628 69.9311 71.1404C65.4585 66.6814 60.9859 62.2224 56.5133 57.7498C55.7656 57.0021 55.2218 56.0776 54.3789 55.4387C54.3789 55.0988 54.3789 54.7997 54.3789 54.4463C54.7731 54.4463 55.1674 54.4463 55.4665 54.4463C61.0674 60.0337 66.614 65.5666 72.1878 71.1268Z" fill="#CBB894"/>
<path d="M34.6543 58.1161C34.9942 58.0617 35.3476 57.9665 35.6467 58.388C35.7827 59.0541 35.5244 59.693 35.2661 60.3728C34.7631 61.705 34.2465 63.0237 33.7027 64.3288C33.3221 65.2668 32.8598 66.2048 32.5064 67.1565C31.949 68.679 31.1877 70.1065 30.6983 71.6562C30.5216 72.2 30.2089 72.7302 29.9778 73.274C29.434 74.5791 28.7815 75.857 28.2513 77.162C27.8842 78.0865 27.4628 78.9837 27.0957 79.8946C26.8918 80.3976 26.6607 80.7918 26.0626 80.9413C25.6275 80.4927 25.546 80.0169 25.7499 79.2828C26.1033 78.0593 26.4976 76.8902 27.055 75.7482C27.354 75.1229 27.6531 74.4703 27.857 73.8314C28.061 73.1652 28.5096 72.6079 28.6319 71.8874C28.7271 71.3708 29.0534 70.8542 29.2981 70.3512C29.9098 69.1005 30.3584 67.7818 30.9566 66.5447C31.4188 65.5931 31.7995 64.6007 32.2073 63.6355C32.6015 62.6974 32.9686 61.7322 33.3628 60.7942C33.7435 59.9106 33.9882 58.9046 34.6543 58.1161Z" fill="#CBB894"/>
<path d="M25.7772 34.5552C25.7772 34.9358 25.7772 35.3165 25.7772 35.7379C25.383 35.7379 25.0023 35.7379 24.5945 35.7379C24.0507 35.3573 23.3438 35.2349 22.7185 34.9222C22.1883 34.6639 21.6037 34.5008 21.0599 34.2697C19.4694 33.6172 17.9196 32.8967 16.2882 32.3257C15.2958 31.9722 14.3714 31.4284 13.379 31.075C12.2642 30.6671 11.1767 30.1641 10.0755 29.7427C9.43658 29.498 8.79763 29.1989 8.17228 28.9134C6.55453 28.1657 4.85521 27.5812 3.26465 26.6568C3.26465 26.4121 3.26465 26.0994 3.26465 25.8139C3.78124 25.2837 4.35221 25.5692 4.86881 25.7323C6.33702 26.2353 7.77804 26.8335 9.19188 27.4588C10.8776 28.2065 12.5633 28.9678 14.2626 29.7019C15.8668 30.3953 17.4846 31.075 19.0887 31.7547C20.2986 32.2713 21.5493 32.7063 22.7592 33.2365C23.7652 33.6715 24.9072 33.8075 25.7772 34.5552Z" fill="#CBB894"/>
<path d="M3.24969 58.1838C3.15452 57.1506 3.98379 56.7972 4.67711 56.6204C5.32965 56.4437 5.88703 56.0767 6.52597 55.8727C7.12414 55.6824 7.74949 55.3561 8.34765 55.1114C9.4488 54.6628 10.5228 54.1462 11.6647 53.7792C12.2901 53.5753 12.861 53.2082 13.4592 52.9363C14.7235 52.3653 16.015 51.8623 17.2929 51.2914C18.3125 50.8428 19.3864 50.4621 20.4196 50.0271C21.6975 49.4833 22.989 48.9803 24.3077 48.5453C24.7563 48.3957 25.2185 48.3142 25.7351 48.1782C25.7351 48.6268 25.7351 49.0211 25.7351 49.4697C25.1233 50.0951 24.2125 50.2038 23.4376 50.5437C22.7851 50.8428 22.1189 51.1418 21.4392 51.4137C19.7671 52.0527 18.1493 52.8004 16.5044 53.5073C15.0362 54.1055 13.5815 54.758 12.0997 55.329C9.9654 56.1446 7.91262 57.1506 5.73749 57.8711C5.39763 57.9799 5.05776 58.1566 4.74509 58.3198C4.17412 58.6053 3.7255 58.4693 3.24969 58.1838Z" fill="#CBB894"/>
<path d="M29.8422 29.1986C29.6655 29.4026 29.4888 29.6201 29.3936 29.7424C28.8906 29.9463 28.6731 29.3482 28.306 29.6201C25.4376 26.7652 22.5148 24.0191 19.8094 21.0827C17.308 18.3638 14.5755 15.8624 12.0605 13.1571C11.9382 12.722 12.1693 12.3686 12.3596 12.0151C12.7675 11.9336 13.0801 12.1783 13.3792 12.3822C13.5559 12.5045 13.6919 12.6813 13.8414 12.8308C18.8986 17.8744 23.9694 22.9316 29.0266 27.9751C29.3664 28.315 29.7607 28.6141 29.8422 29.1986Z" fill="#CBB894"/>
<path d="M70.8289 12.2344C71.1416 12.2344 71.4271 12.2344 71.6854 12.2344C71.7261 12.2752 71.7669 12.3023 71.7669 12.3295C71.7669 12.683 71.7669 13.0365 71.7669 13.3899C66.5738 18.5694 61.3807 23.749 56.2012 28.9149C55.8885 29.2276 55.603 29.5946 55.1544 29.7578C54.8417 29.7578 54.529 29.7578 54.2028 29.7578C54.0396 29.1868 54.2707 28.7518 54.6242 28.3575C54.6514 28.3303 54.6786 28.3031 54.7057 28.276C56.2691 26.8757 57.5198 25.19 59.0288 23.7354C60.5378 22.2672 61.9381 20.6766 63.5286 19.29C66.0708 17.0876 68.3003 14.5454 70.8289 12.2344Z" fill="#CBB894"/>
<path d="M58.0078 34.8824C58.47 34.1755 59.2449 33.9852 59.8975 33.6725C60.5772 33.3462 61.2977 33.0607 62.0046 32.8296C62.6979 32.5985 63.3641 32.313 64.0438 32.0412C65.58 31.4294 67.1026 30.7905 68.598 30.0835C69.468 29.6757 70.3653 29.3358 71.2353 28.9416C72.0782 28.5609 72.9482 28.2211 73.8047 27.9084C75.0146 27.4598 76.1701 26.8752 77.3936 26.4674C78.0326 26.2499 78.6036 25.9372 79.2153 25.6925C79.7727 25.475 80.2485 25.4478 80.7651 25.7877C80.7651 26.0052 80.7651 26.2499 80.7651 26.5218C80.099 26.9976 79.3241 27.3102 78.5628 27.6365C78.0734 27.854 77.584 28.0308 77.0946 28.2211C75.7759 28.7513 74.4708 29.3086 73.1521 29.8524C71.9014 30.369 70.6372 30.872 69.4272 31.4974C68.8155 31.81 68.1629 32.1227 67.524 32.313C66.8715 32.5034 66.3277 32.884 65.6751 33.0607C65.1042 33.2103 64.5332 33.5773 63.9622 33.822C62.4804 34.461 60.985 35.0863 59.4896 35.7117C58.8643 35.97 58.2253 35.6301 58.0078 34.8824Z" fill="#CBB894"/>
<path d="M13.0522 72.472C12.7667 72.1865 12.5356 71.9554 12.2773 71.7107C12.2773 71.3572 12.2773 70.9766 12.2773 70.5824C17.7424 65.1309 23.2074 59.6795 28.6588 54.2417C28.9986 54.2417 29.3113 54.2417 29.6376 54.2417C29.6376 54.6223 29.6376 54.9758 29.6376 55.4108C29.3657 55.6827 29.0394 56.009 28.7132 56.3353C23.7783 61.2565 18.8435 66.1777 13.9087 71.0989C13.5416 71.4796 13.161 71.8331 13.0522 72.472Z" fill="#CBB894"/>
<path d="M83.6369 41.353C84.1127 41.6385 83.9904 41.9784 84.0176 42.3318C83.8544 42.4678 83.6641 42.6309 83.4058 42.8348C75.7521 42.8348 68.0032 42.8348 60.3766 42.8348C59.8736 42.6445 59.5338 42.427 59.2891 42.0463C59.3434 41.7201 59.6561 41.5705 59.86 41.353C67.8128 41.353 75.7521 41.353 83.6369 41.353Z" fill="#CBB894"/>
<path d="M0.735492 42.8214C0.531573 42.6719 0.382033 42.3592 0.0421692 42.3456C-0.13456 41.8562 0.286871 41.6659 0.517979 41.3804C8.41642 41.3804 16.3149 41.3804 24.1453 41.3804C24.2949 41.5027 24.4036 41.5979 24.4988 41.6659C24.5532 42.1553 24.2405 42.4543 24.0909 42.8214C16.2877 42.8214 8.53877 42.8214 0.735492 42.8214Z" fill="#CBB894"/>
<path d="M42.768 83.2257C42.5097 83.4976 42.265 83.7423 42.0203 84.0006C41.7892 83.7695 41.5581 83.5384 41.2998 83.2801C41.2998 75.5719 41.2998 67.8366 41.2998 60.0877C41.4629 59.911 41.6397 59.7343 41.8028 59.5712C42.2106 59.544 42.4553 59.6391 42.5777 60.0877C42.7 60.5228 42.7816 60.9442 42.7816 61.3928C42.768 68.6795 42.768 75.9662 42.768 83.2257Z" fill="#CBB894"/>
<path d="M73.7119 48.5464C73.1817 49.0766 72.57 48.9135 72.0806 48.7911C71.7815 48.7096 71.4688 48.628 71.1833 48.6688C70.8299 48.7232 70.6395 48.4105 70.2997 48.4241C69.2665 48.4649 68.3013 48.0026 67.2681 48.0026C66.8874 47.5404 66.2213 48.0434 65.8407 47.5676C65.3377 47.6764 64.9026 47.3773 64.4268 47.3637C63.8966 47.3637 63.448 46.9695 62.9042 47.1326C62.2109 46.6704 61.3545 46.7655 60.5932 46.5208C59.5736 46.1946 59.5464 46.2761 59.0842 45.4333C59.0842 45.3925 59.0706 45.3517 59.0842 45.3245C59.2609 45.1478 59.4376 44.9711 59.6415 44.7943C60.6339 44.672 61.5584 45.0798 62.4964 45.3381C62.945 45.4605 63.4888 45.2294 63.8559 45.6508C64.9298 45.5692 65.9222 46.1674 66.9962 46.0858C67.5536 46.4801 68.2469 46.3033 68.8722 46.4665C69.4432 46.616 70.0686 46.7384 70.6939 46.7655C71.2649 46.7927 71.8495 47.0374 72.434 47.187C72.9506 47.3093 73.5488 47.6084 73.5216 48.3697C73.5352 48.4105 73.6303 48.4649 73.7119 48.5464Z" fill="#CBB894"/>
<path d="M24.4848 69.02C24.1993 68.6937 23.9546 68.4082 23.6963 68.1091C26.1977 64.3434 28.4544 60.3331 31.2685 56.581C31.4316 56.581 31.6355 56.581 31.8394 56.581C32.0298 56.5946 32.0705 56.3091 32.4104 56.4042C32.4376 56.4586 32.5192 56.6217 32.6823 56.948C32.5463 57.5326 32.1385 58.2667 31.6763 58.9464C29.5827 62.1139 27.4212 65.2407 25.3684 68.4354C25.1645 68.7345 24.9198 69.1151 24.4848 69.02Z" fill="#CBB894"/>
<path d="M26.456 32.5712C24.9606 31.5924 23.6691 30.6816 22.3096 29.8795C21.997 29.7028 21.793 29.2949 21.3716 29.3221C20.6239 28.5608 19.6451 28.1394 18.7615 27.5956C17.8778 27.0382 17.0893 26.3721 16.1377 25.9371C15.7707 25.7739 15.5803 25.4205 15.2812 25.203C15.2812 24.8223 15.2812 24.4689 15.2812 24.061C15.6619 24.061 16.0425 24.061 16.4912 24.061C16.8038 24.2921 17.1573 24.6592 17.5787 24.8495C18.5439 25.271 19.346 25.9371 20.2161 26.4945C22.2281 27.7723 24.1857 29.1454 26.1977 30.4233C26.8094 30.8175 27.1901 31.4157 27.7611 31.8099C27.7339 32.2178 27.3804 32.3265 27.2173 32.5848C26.9046 32.5712 26.6191 32.5712 26.456 32.5712Z" fill="#CBB894"/>
<path d="M59.8863 39.2189C59.6144 38.947 59.2201 38.7703 59.3153 38.2945C59.5464 37.7371 60.1445 37.6012 60.566 37.5332C61.9662 37.3293 63.2713 36.6767 64.6987 36.6359C65.1202 36.2825 65.6367 36.4864 66.1126 36.4184C66.8739 36.2961 67.6759 36.2281 68.3964 35.9698C69.2665 35.6571 70.1773 35.6435 71.0202 35.3309C71.6727 35.0998 72.3117 35.1677 72.9506 35.127C73.1545 35.426 73.6168 35.5348 73.4808 36.0106C73.2905 36.6495 72.6651 36.6903 72.1893 36.8263C71.5232 37.0302 70.8299 37.1933 70.1366 37.3157C69.5248 37.4244 68.8723 37.4924 68.2741 37.7099C67.7031 37.9138 67.0914 37.9818 66.5204 38.0906C65.963 38.1857 65.392 38.3489 64.7939 38.3896C64.2365 38.4304 63.6655 38.512 63.1218 38.7431C62.6867 38.9334 62.1294 38.5936 61.7351 39.0014C61.0826 38.8519 60.5116 39.2325 59.8863 39.2189Z" fill="#CBB894"/>
<path d="M10.2393 35.7646C10.919 35.0577 11.6667 35.0169 12.4688 35.248C13.2708 35.4791 14.0865 35.6694 14.9294 35.819C15.949 36.0093 17.0229 35.9821 18.0017 36.4171C18.9534 36.2676 19.8098 36.7434 20.7207 36.8794C21.8354 37.0425 22.923 37.4367 24.0241 37.695C24.3776 37.7766 24.4728 38.1029 24.7311 38.2252C24.6087 38.8098 24.6087 38.8098 23.7794 39.2312C23.3988 39.0817 22.9366 39.0681 22.5287 38.9593C21.5771 38.7282 20.5847 38.769 19.6603 38.3748C19.3068 38.2252 18.8582 38.2116 18.464 38.1708C17.1725 38.0349 15.9218 37.695 14.6575 37.4639C13.6651 37.2872 12.6727 37.0697 11.6939 36.8522C11.0957 36.7162 10.7015 36.2948 10.2393 35.7646Z" fill="#CBB894"/>
<path d="M23.6279 15.7695C23.8998 15.4976 24.1581 15.2529 24.43 14.9946C24.5524 14.9946 24.6883 14.9946 24.8243 14.9946C25.1777 15.5656 25.4632 16.1909 25.9118 16.6804C26.374 17.1969 26.7003 17.7815 27.1081 18.3389C27.883 19.3993 28.6443 20.4596 29.3105 21.6016C30.1125 22.961 31.0777 24.1981 31.8526 25.5712C32.1381 26.0878 32.3964 26.6316 32.7091 27.0122C32.6139 27.5424 32.3692 27.6784 32.0973 27.6512C30.6835 27.1074 30.2893 25.7615 29.5144 24.7691C28.454 23.4233 27.5432 21.9414 26.5779 20.5276C25.5176 19.0322 24.3756 17.5776 23.6279 15.7695Z" fill="#CBB894"/>
<path d="M69.1973 59.2599C68.8846 59.5862 68.6127 59.8581 68.2049 60.2659C67.7971 60.3611 67.2805 59.994 66.859 59.6678C65.5947 58.7025 64.2489 57.8597 62.9166 57.0032C61.4756 56.0788 60.0346 55.1544 58.6071 54.2163C58.4304 54.1076 58.2945 53.9309 58.1449 53.7813C57.8051 53.4414 57.4924 53.0744 57.003 52.9249C56.6087 52.8025 56.4048 52.5034 56.3232 52.3131C56.3368 51.7693 56.7175 51.7149 56.7855 51.4838C57.2205 51.2935 57.6147 51.4566 57.8866 51.6606C59.6267 52.8705 61.462 53.958 63.1749 55.1951C65.0645 56.5682 67.0765 57.7509 68.9526 59.1376C68.9934 59.1919 69.1293 59.1648 69.1973 59.2599Z" fill="#CBB894"/>
<path d="M59.8049 69.0041C58.8533 68.7594 58.3911 67.9573 57.8881 67.2368C56.8413 65.755 55.8489 64.2324 54.8565 62.7234C53.769 61.0785 52.695 59.4064 51.6074 57.7478C51.6074 57.3808 51.6074 57.0001 51.6074 56.5923C51.8793 56.5923 52.1104 56.5923 52.3551 56.5923C53.1708 57.34 53.769 58.2508 54.3807 59.1753C54.9789 60.0725 55.6722 60.9154 56.2839 61.8126C57.3579 63.3624 58.4183 64.9122 59.4515 66.4891C59.7777 66.9785 59.8457 67.6039 60.1448 68.1341C60.2943 68.406 60.24 68.8274 59.8049 69.0041Z" fill="#CBB894"/>
<path d="M68.1251 23.7485C68.4106 23.9253 68.6281 24.0612 68.8592 24.1972C69.0088 24.2923 69.1583 24.3739 69.2263 24.4147C69.1175 25.108 68.6009 25.1488 68.3018 25.3663C66.5481 26.617 64.7673 27.8269 62.9592 29.0096C61.2191 30.1516 59.4654 31.2799 57.7525 32.4762C57.5214 32.6394 57.2495 32.8433 56.8008 32.7481C56.6921 32.5986 56.529 32.3811 56.2979 32.0684C56.2979 32.0412 56.2979 31.8645 56.2979 31.6062C56.7737 30.9944 57.535 30.641 58.2011 30.2195C60.5665 28.7649 62.864 27.188 65.1887 25.6654C66.1539 25.0536 67.0647 24.3467 68.1251 23.7485Z" fill="#CBB894"/>
<path d="M52.6921 27.4179C52.2299 27.4179 51.9444 27.4179 51.6182 27.4179C51.6182 27.0372 51.6182 26.6566 51.6182 26.2759C52.1619 25.4602 52.7329 24.6174 53.2903 23.7745C54.5002 21.9664 55.7237 20.1448 56.9336 18.3231C57.2463 17.8473 57.5454 17.3715 57.8173 16.8821C58.1707 16.2567 58.6194 15.6722 59.2447 15.2099C59.7477 15.1012 59.9244 15.5226 60.1691 15.7809C60.2235 16.2975 59.938 16.6374 59.7341 16.9501C57.4502 20.4846 55.1663 24.0192 52.6921 27.4179Z" fill="#CBB894"/>
<path d="M47.5699 10.5088C47.9097 10.5088 48.1952 10.5088 48.4535 10.5088C48.6439 10.6991 48.8206 10.8758 48.9973 11.0526C49.0789 11.6371 48.6575 12.1673 48.7662 12.7655C48.3448 13.1597 48.7798 13.7987 48.3584 14.1929C48.372 14.8455 48.1001 15.4436 48.0185 16.0826C47.9369 16.7215 47.8146 17.3604 47.6786 17.9858C47.4883 18.8287 47.298 19.6715 47.0941 20.5144C46.8902 21.3572 46.7542 22.2137 46.4415 23.0294C46.3328 23.3013 46.4143 23.6003 46.2376 23.913C45.9385 24.4432 46.0065 24.484 45.5715 24.851C45.1365 24.7967 45.1908 24.3209 44.9189 24.1033C45.0005 23.7499 44.8102 23.3828 45.1093 23.0158C45.2996 22.7847 45.1093 22.3768 45.2452 22.0098C45.4491 21.4932 45.4491 20.8814 45.5307 20.3105C45.5987 19.8075 45.9385 19.3317 45.7754 18.8015C46.2376 18.4616 45.7346 17.8227 46.1832 17.4692C46.0881 16.871 46.4008 16.3409 46.4415 15.7563C46.4823 15.1989 46.6047 14.6415 46.7678 14.0842C46.9173 13.5676 46.9309 13.0102 47.0669 12.4936C47.2572 11.8682 47.2164 11.1749 47.5699 10.5088Z" fill="#CBB894"/>
<path d="M35.2516 72.9897C35.2109 72.0652 35.4012 71.2496 35.6187 70.4067C35.741 69.9581 35.8362 69.4823 35.877 69.02C35.9722 68.0684 36.3936 67.1712 36.312 66.206C36.7878 65.0776 36.6655 63.8133 37.1549 62.6986C37.0733 61.5838 37.6307 60.5642 37.6035 59.4087C38.0521 59.4087 38.5007 59.4087 39.0581 59.4087C39.3844 59.531 39.398 59.9389 39.2892 60.2516C38.8542 61.5702 38.7047 62.9433 38.4056 64.2755C38.2832 64.8193 38.1609 65.3903 38.0521 65.9341C37.9434 66.4915 37.6579 67.0488 37.7938 67.6606C37.3044 68.9385 37.2908 70.3523 36.7606 71.6166C36.6383 71.9021 36.7063 72.2012 36.5839 72.5002C36.4344 72.9081 36.244 73.2208 35.9314 73.4927C35.6187 73.4927 35.5235 73.1664 35.2516 72.9897Z" fill="#CBB894"/>
<path d="M15.294 59.9244C15.1444 59.571 15.7426 59.4078 15.4435 59.0816C16.3136 58.062 17.4555 57.491 18.5023 56.7841C20.3239 55.5606 22.1456 54.3506 23.9673 53.1271C24.7558 52.5969 25.5307 52.0396 26.4007 51.4414C26.6046 51.4414 26.9173 51.4414 27.1892 51.4414C27.5155 51.5909 27.4475 51.958 27.6786 52.1211C27.7194 52.1755 27.6786 52.2027 27.6242 52.2707C26.8221 53.1951 25.6938 53.6709 24.7558 54.4186C23.4507 55.4518 21.9825 56.2403 20.6638 57.2599C19.5762 58.1027 18.3799 58.8233 17.2244 59.5574C16.6398 59.9244 16.0009 60.1827 15.294 59.9244Z" fill="#CBB894"/>
<path d="M35.6335 10.4829C35.8918 10.6596 36.218 10.6868 36.5035 11.0131C36.6803 12.0327 36.9657 13.1338 37.2104 14.2486C37.4144 15.1187 37.5367 16.0159 37.7814 16.8995C37.931 17.4297 37.9989 18.0279 38.1213 18.5853C38.2436 19.1426 38.3116 19.7136 38.4747 20.2574C38.801 21.345 38.8962 22.4869 39.3176 23.5473C39.3856 23.6968 39.3312 23.9007 39.3312 23.9551C38.9913 24.2814 38.7194 24.5397 38.4068 24.8388C37.9989 24.7164 37.9038 24.227 37.6047 23.8464C37.7814 23.289 37.3328 22.7588 37.3872 22.1742C36.9114 21.8344 37.4416 21.1818 36.9657 20.842C37.0745 20.339 36.8162 19.8903 36.7074 19.4417C36.5035 18.5717 36.3404 17.6744 36.1637 16.7908C35.9733 15.9071 35.6743 15.0099 35.6879 14.0855C35.6879 13.732 35.3752 13.4873 35.4567 13.1067C35.5111 12.8076 35.348 12.5085 35.2936 12.223C35.1849 11.6656 35.1305 11.0403 35.6335 10.4829Z" fill="#CBB894"/>
<path d="M10.333 48.3152C10.333 48.1656 10.333 48.0297 10.333 47.8801C10.7001 47.5267 11.1351 47.4315 11.6109 47.3228C12.5897 47.0917 13.5957 46.9285 14.5881 46.7518C15.4853 46.5887 16.3962 46.4119 17.2934 46.2488C18.0683 46.0992 18.8704 45.9225 19.6453 45.7322C20.461 45.5419 21.2902 45.338 22.1195 45.1884C22.8128 45.0661 23.4654 44.7126 24.1451 44.7806C24.417 45.0525 24.6753 45.3108 24.9743 45.5962C24.6481 46.14 24.1995 46.5479 23.5197 46.4663C23.1935 46.4255 23.0167 46.6702 22.7448 46.6974C21.4262 46.8334 20.1347 47.1868 18.8296 47.3771C17.9867 47.4995 17.1031 47.6082 16.2738 47.9345C15.9068 48.0841 15.431 47.8394 15.0911 48.1928C14.2482 48.0976 13.5141 48.6142 12.6849 48.6414C12.4402 48.655 12.1819 48.9813 11.9236 48.8318C11.5021 48.5871 10.972 48.7366 10.5777 48.4239C10.5233 48.3831 10.3874 48.4103 10.333 48.3152Z" fill="#CBB894"/>
<path d="M48.7772 73.4774C48.3966 73.4774 48.0975 73.4774 47.7984 73.4774C47.4042 73.1919 47.309 72.7161 47.309 72.3762C47.3226 71.7645 47.1323 71.2071 47.0099 70.6497C46.9012 70.1059 46.9555 69.4942 46.6157 69.0048C46.6565 67.6181 46.0447 66.3946 45.6233 65.1303C45.5553 64.9128 45.5689 64.7225 45.5417 64.5186C45.4737 64.07 45.6777 63.5941 45.4058 63.1863C45.1747 62.8328 45.3786 62.4114 45.1611 61.99C44.9571 61.5957 45.0795 60.9976 44.9028 60.4946C44.7532 60.0867 45.2426 59.7741 45.1067 59.2847C45.9224 59.543 46.2758 59.9644 46.4254 60.7393C46.6157 61.7589 46.738 62.7921 47.0235 63.7981C47.2818 64.6681 47.4042 65.5654 47.7032 66.4082C47.8392 66.7889 47.7712 67.1831 47.9208 67.4958C48.0839 67.8356 48.0159 68.1755 48.1247 68.4882C48.4509 69.5214 48.247 70.6361 48.7092 71.6693C48.9539 72.1587 48.7772 72.8113 48.7772 73.4774Z" fill="#CBB894"/>
<path d="M108.425 50.0149C106.902 50.0149 105.393 50.0149 103.87 50.0149C103.775 49.4576 103.734 33.9462 103.83 32.2468C103.843 32.2332 103.87 32.2061 103.884 32.2061C107.69 32.2061 111.497 32.2061 115.317 32.2061C115.399 32.3964 115.358 32.6003 115.358 32.8042C115.399 34.0141 115.575 35.2105 115.494 36.4204C115.48 36.5563 115.534 36.6923 115.439 36.8282C115.276 36.5291 115.086 36.2572 114.977 35.9582C114.678 35.1425 114.134 34.4763 113.604 33.8102C113.074 33.1441 112.326 32.777 111.47 32.5867C111.143 32.5187 110.804 32.5459 110.504 32.4508C110.151 32.342 109.811 32.342 109.471 32.3284C109.131 32.3284 108.805 32.3284 108.438 32.3284C108.438 35.1425 108.438 37.9158 108.438 40.757C108.778 40.757 109.145 40.7162 109.485 40.7706C109.838 40.825 110.124 40.6619 110.45 40.5939C110.736 40.5395 111.035 40.3628 111.279 40.1453C111.81 39.6695 112.217 39.1121 112.489 38.4731C112.625 38.1605 112.707 37.8342 112.816 37.5351C112.829 37.6031 112.788 37.4536 112.856 37.5079C112.87 37.5215 112.897 37.5351 112.897 37.5623C112.951 38.9218 112.911 43.9654 112.843 44.5499C112.652 44.2916 112.571 43.9789 112.503 43.6935C112.381 43.1905 112.109 42.769 111.85 42.334C111.538 41.8038 111.062 41.5319 110.532 41.2736C110.233 41.1377 109.92 41.0833 109.621 41.0289C109.254 40.9745 108.86 41.0153 108.425 41.0153C108.425 43.9246 108.425 46.8202 108.425 49.7158C108.425 49.8246 108.425 49.9198 108.425 50.0149Z" fill="white"/>
<path d="M65.6 32.4779C65.6 32.8586 65.5184 33.2664 65.6136 33.6199C65.8311 34.422 65.6816 35.2105 65.736 36.0125C65.7224 36.2844 65.7767 36.5563 65.6816 36.869C65.5456 36.5971 65.4369 36.366 65.3281 36.1485C65.2601 35.931 65.1378 35.727 65.029 35.5367C64.5804 34.7754 64.1862 33.9598 63.4249 33.4296C63.3705 33.2121 63.1394 33.1849 62.9898 33.1033C62.5548 32.8178 62.079 32.5867 61.5216 32.6139C61.4401 32.3556 61.2226 32.5187 61.073 32.4779C60.4341 32.3148 59.3193 32.2876 58.6668 32.41C58.6668 32.7906 58.6668 33.1713 58.6668 33.5655C58.6668 34.1501 58.6668 34.7482 58.6668 35.3328C58.6668 36.1893 58.6668 37.0593 58.6668 37.9158C58.6668 38.1469 58.6668 38.3644 58.6668 38.5955C58.6668 39.316 58.6668 40.0365 58.6668 40.7706C59.1834 40.7706 59.6592 40.7706 60.1214 40.7706C60.2302 40.7706 60.3253 40.7434 60.4341 40.7163C61.209 40.4987 61.8207 40.0637 62.2421 39.4112C62.4597 39.0849 62.8131 38.7994 62.7316 38.3236C63.017 38.2013 62.9491 37.875 63.1394 37.6847C63.1394 37.8478 63.1394 38.0245 63.1394 38.1877C63.1394 40.2812 63.1394 42.3884 63.1394 44.4819C63.1394 44.4955 63.1258 44.5227 63.1122 44.5363C63.0986 44.5499 63.085 44.5499 63.0714 44.5635C62.8539 43.7071 62.5548 43.0545 62.0654 42.266C61.5896 41.5183 60.8555 41.2057 60.0398 41.0561C59.6048 40.9745 59.1426 41.0425 58.6668 41.0425C58.6668 42.2796 58.6668 43.5031 58.6668 44.713C58.6668 45.0801 58.6668 45.4336 58.6668 45.8006C58.6668 46.6163 58.6668 47.432 58.6668 48.2476C58.6668 48.7506 58.6668 49.24 58.6668 49.743C58.6668 49.7838 58.6668 49.8382 58.6668 49.879C57.1442 49.879 55.6352 49.879 54.1126 49.879C54.0038 49.2808 53.9631 34.7482 54.0582 32.2061C54.6428 32.2061 55.2138 32.2061 55.7983 32.2061C56.2062 32.2061 56.614 32.2061 57.0218 32.2061C58.8299 32.2061 60.6516 32.2061 62.4597 32.2061C63.4657 32.2061 64.4717 32.2061 65.4777 32.2061C65.4912 32.2061 65.5184 32.2197 65.532 32.2332C65.5456 32.2468 65.5592 32.2604 65.5728 32.274C65.6 32.342 65.6 32.41 65.6 32.4779Z" fill="white"/>
<path d="M37.8677 43.8981C37.5822 43.9253 37.7318 44.1836 37.6774 44.3195C37.2832 45.2983 36.9705 46.2907 36.5898 47.2695C36.4947 47.5006 36.5491 47.7045 36.5219 47.8269C36.9433 48.9688 37.9085 49.4175 38.9689 49.9884C36.9977 49.9884 35.2032 49.9884 33.3271 49.9884C33.4495 49.8797 33.5175 49.7573 33.599 49.7437C34.17 49.6758 34.6186 49.3223 35.0673 49.0368C35.5838 48.6969 35.8829 48.1396 36.0732 47.5686C36.2908 46.9568 36.5083 46.3451 36.7394 45.7333C36.9705 45.1488 37.2016 44.5642 37.3919 43.966C37.5958 43.3543 37.8269 42.7425 38.0445 42.1308C38.3028 41.3967 38.5746 40.6762 38.8601 39.9556C39.3088 38.8545 39.5942 37.6854 40.1516 36.6114C40.2196 35.9724 40.6818 35.4558 40.8042 34.8441C40.9265 34.2323 41.3479 33.7293 41.3751 33.104C41.6198 32.8049 41.647 32.3971 41.8373 32.0708C42.4491 32.0708 43.0473 32.0708 43.6862 32.0708C43.8629 32.5194 44.0668 32.9544 44.2164 33.4167C44.3387 33.7701 44.5291 34.11 44.6242 34.477C44.7194 34.8305 44.8689 35.1432 44.9913 35.483C45.2224 36.1628 45.4671 36.8289 45.7254 37.495C45.8613 37.8485 46.0245 38.1884 46.1332 38.5554C46.242 38.8953 46.3643 39.2351 46.4867 39.5614C46.7586 40.2411 46.9761 40.9481 47.2344 41.6278C47.4791 42.2939 47.751 42.96 47.9821 43.6262C48.2132 44.3195 48.4715 45.0128 48.7298 45.6926C48.9745 46.3451 49.192 46.9976 49.4367 47.6502C49.695 48.3571 49.9669 49.064 50.2252 49.7709C50.2524 49.8253 50.2252 49.8933 50.2116 49.9884C48.6074 49.9884 47.0033 49.9884 45.3719 49.9884C44.9913 49.6622 44.9505 49.132 44.801 48.6834C44.3116 47.1608 43.6862 45.6926 43.2784 44.1428C43.2376 44.0068 43.156 43.9117 43.0065 43.8845C43.0065 43.7893 43.0065 43.7077 43.0065 43.6126C43.0065 43.5038 43.0473 43.3679 43.0065 43.2727C42.5579 42.2939 42.3132 41.2471 41.9325 40.2547C41.5519 39.2487 41.3072 38.2019 40.9537 37.196C40.8585 36.9241 40.8585 36.5706 40.5866 36.3939C40.4643 36.4211 40.4507 36.4754 40.4235 36.5434C40.1244 37.2503 39.9069 37.998 39.635 38.7321C39.1728 39.9421 38.7514 41.1792 38.3299 42.4027C38.194 42.7969 37.9765 43.1776 37.9901 43.6126C37.7998 43.6398 37.8813 43.7893 37.8677 43.8981Z" fill="white"/>
<path d="M92.9247 49.8791C91.4021 49.8791 89.8931 49.8791 88.3706 49.8791C88.2482 49.2674 88.2074 37.3178 88.3026 32.2334C89.8252 32.2334 91.3478 32.2334 92.9111 32.2334C92.9111 38.0791 92.9111 43.9111 92.9111 49.7432C92.9247 49.784 92.9247 49.8248 92.9247 49.8791Z" fill="white"/>
<path d="M76.8847 50.153C76.5448 50.153 76.2049 50.1666 75.8651 50.153C74.9271 50.085 74.0434 49.8131 73.1462 49.5004C72.4664 49.2693 71.9363 48.8207 71.3109 48.5216C70.9439 47.9778 70.3865 47.6108 70.0194 47.0534C69.8699 46.8223 69.7883 46.5232 69.5436 46.3465C69.3805 45.7347 69.0406 45.2046 68.9183 44.5792C68.7959 44.0218 68.6192 43.4509 68.6192 42.8935C68.6192 41.602 68.456 40.3105 68.7143 39.0326C68.7959 38.6112 68.8639 38.2034 68.9862 37.7955C69.0542 37.578 69.2037 37.3605 69.1358 37.1158C69.163 37.1158 69.2037 37.1158 69.2037 37.1158C69.4484 36.5176 69.6388 35.9059 70.0874 35.4165C70.1146 35.3757 70.0874 35.2805 70.0874 35.2262C70.1826 35.0494 70.3593 34.9543 70.468 34.7911C70.5904 34.6008 70.7807 34.4649 70.9438 34.3017C71.6644 33.5812 72.48 33.0102 73.4317 32.6296C74.057 32.3713 74.6959 32.1946 75.3757 32.0858C75.933 31.9906 76.4632 31.9771 77.0206 31.9771C77.0206 32.0178 77.0206 32.0722 77.0206 32.113C76.2593 32.3033 75.5524 32.5888 75.0358 33.2142C74.7231 33.5948 74.4648 34.0026 74.2881 34.4649C74.1386 34.8591 73.989 35.2533 73.8939 35.6612C73.7987 36.0554 73.7851 36.4633 73.6084 36.8303C73.5948 36.8439 73.6084 36.8711 73.6084 36.8983C73.6899 37.5372 73.4317 38.1626 73.4588 38.8151C73.4996 39.9842 73.4996 41.167 73.4588 42.3361C73.4317 43.3013 73.4724 44.2529 73.622 45.191C73.7579 46.061 73.9075 46.9447 74.2881 47.7603C74.5328 48.2905 74.8319 48.7663 75.2533 49.2014C75.7019 49.6772 76.2593 49.9219 76.8711 50.0578C76.8847 50.0578 76.8847 50.0986 76.8847 50.153Z" fill="white"/>
<path d="M78.6523 49.8808C79.2641 49.6633 79.4 49.1603 79.4816 48.5757C79.7399 46.5366 79.5224 44.4974 79.6312 42.4038C80.3381 42.4038 81.045 42.4038 81.7655 42.4038C82.486 42.4038 83.2065 42.4038 83.9406 42.4038C83.9406 44.8916 83.9406 47.3522 83.9406 49.84C83.8047 49.976 83.7775 49.6225 83.6279 49.7449C83.3561 49.473 83.057 49.2827 82.6491 49.337C82.3093 49.3914 81.9558 49.3098 81.6024 49.4322C80.977 49.6361 80.3109 49.7041 79.6855 49.8944C79.3321 50.0032 79.0058 50.0168 78.6523 50.0168C78.6523 49.9624 78.6523 49.9216 78.6523 49.8808Z" fill="white"/>
<path d="M94.4209 49.7421C95.4949 49.6333 96.5009 49.3886 97.3709 48.6545C98.0506 48.07 98.5536 47.3631 99.043 46.6425C99.5053 45.9492 99.9403 45.2151 100.267 44.4402C100.307 44.3315 100.362 44.3179 100.457 44.3179C100.593 44.8073 100.566 45.6094 100.443 46.1259C100.294 46.7513 100.47 47.3902 100.307 48.0292C100.158 48.6002 100.375 49.2663 100.076 49.8916C98.2274 49.8916 96.3241 49.8916 94.4345 49.8916C94.4209 49.8237 94.4209 49.7829 94.4209 49.7421Z" fill="white"/>
<path d="M109.918 49.7432C110.842 49.7025 111.726 49.4849 112.555 49.0771C112.99 48.8596 113.425 48.6013 113.779 48.2614C114.255 47.7992 114.771 47.3506 115.125 46.7796C115.424 46.2766 115.709 45.76 115.9 45.2027C115.968 44.9987 116.036 44.8356 116.28 44.6045C116.348 45.1891 116.307 45.6785 116.307 46.1543C116.09 46.331 116.185 46.5757 116.185 46.7796C116.171 47.7992 116.185 48.8188 116.185 49.8112C116.117 49.8792 116.076 49.92 115.981 50.0151C113.996 50.0151 111.957 50.0151 109.932 50.0151C109.918 49.92 109.918 49.8248 109.918 49.7432Z" fill="white"/>
<path d="M63.1537 49.8792C62.2021 49.8792 61.2504 49.8792 60.2988 49.8792C60.2988 49.8385 60.2988 49.7841 60.2988 49.7433C60.7474 49.8113 61.1689 49.5666 61.6175 49.5802C61.6311 49.5802 61.6447 49.5122 61.6583 49.4714C61.971 49.4986 62.2293 49.3626 62.5011 49.2403C63.4664 48.7917 64.35 48.2343 64.921 47.2963C65.3016 46.9836 65.4919 46.5486 65.7502 46.1543C65.8182 46.032 65.8998 45.9504 65.8726 45.8009C66.1309 45.7057 65.9678 45.4202 66.1309 45.2571C66.2668 45.1347 66.2804 44.89 66.362 44.6997C66.43 44.7133 66.4708 44.7133 66.5523 44.7269C66.5523 45.1211 66.5523 45.5154 66.5523 45.9232C66.43 45.9096 66.4164 46.0048 66.4164 46.0999C66.4164 46.6301 66.4164 47.1603 66.4164 47.6905C66.4164 48.411 66.4164 49.1179 66.4164 49.8656C65.3968 49.8656 64.4044 49.8656 63.4256 49.8656C63.3304 49.8792 63.2353 49.8792 63.1537 49.8792Z" fill="white"/>
<path d="M78.6523 32.0732C79.468 32.0052 80.2293 32.2363 81.0178 32.4402C81.5344 32.5626 82.0782 32.7393 82.6491 32.6033C82.8123 32.549 82.8531 32.3043 83.1385 32.3586C83.1385 32.6305 83.1521 32.916 83.1385 33.2015C83.1114 34.425 83.3833 35.6485 83.2745 36.8856C83.2609 37.0352 83.2745 37.1983 83.2745 37.3342C83.1385 37.3886 83.0706 37.4022 83.0026 37.2527C82.4724 36.1379 81.7791 35.1183 81.0586 34.1123C80.542 33.3918 79.8758 32.9024 79.1825 32.3994C79.033 32.2907 78.8019 32.3586 78.6523 32.2091C78.6523 32.1547 78.6523 32.1139 78.6523 32.0732Z" fill="white"/>
<path d="M43.0341 43.6284C43.0341 43.7236 43.0341 43.8051 43.0341 43.9003C41.3076 43.9003 39.5947 43.9003 37.8682 43.9003C37.8954 43.7916 37.8002 43.642 38.0041 43.6284C39.6762 43.6284 41.3484 43.6284 43.0341 43.6284Z" fill="white"/>
<path d="M109.171 50.0706C109.756 50.0706 110.231 49.9854 110.231 49.8803C110.231 49.7752 109.756 49.6899 109.171 49.6899C108.585 49.6899 108.11 49.7752 108.11 49.8803C108.11 49.9854 108.585 50.0706 109.171 50.0706Z" fill="white"/>
<path d="M78.6511 49.8792C78.6511 49.92 78.6511 49.9744 78.6511 50.0151C78.6511 50.0423 78.6511 50.0831 78.6511 50.0831C78.0801 50.1511 77.5227 50.3686 76.9382 50.2598C76.911 50.2598 76.911 50.1919 76.8838 50.1511C76.8838 50.1103 76.8838 50.0559 76.8838 50.0151C77.0877 50.0151 77.2916 50.0151 77.4955 50.0151C77.6995 50.0151 77.9034 49.9879 78.1073 50.0151C78.3112 50.0559 78.4336 49.8112 78.6511 49.8792Z" fill="white"/>
<path d="M78.6519 32.0707C78.6519 32.1115 78.6519 32.1659 78.6519 32.2067C78.3528 32.2747 78.1217 32.03 77.8362 32.0571C77.5643 32.0979 77.2924 32.0707 77.0205 32.0707C77.0205 32.03 77.0205 31.9756 77.0205 31.9348C77.0613 31.6765 77.306 31.7717 77.3876 31.8124C77.741 31.9892 78.1081 31.9212 78.4751 31.9348C78.5703 31.9348 78.6519 31.9348 78.6519 32.0707Z" fill="white"/>
<path d="M60.2974 49.7432C60.2974 49.7839 60.2974 49.8383 60.2974 49.8791C60.0934 49.8111 59.9575 50.0558 59.7536 50.0151C59.5769 49.9879 59.4001 50.0151 59.2098 50.0151C59.169 50.0151 59.1146 50.0151 59.0739 50.0151C59.0739 49.9199 59.0331 49.8791 58.9379 49.8791C58.8427 49.8791 58.7612 49.8791 58.666 49.8791C58.666 49.8383 58.666 49.7839 58.666 49.7432C59.2098 49.7432 59.7536 49.7432 60.2974 49.7432Z" fill="white"/>
<path d="M93.6727 49.9091C94.2583 49.9091 94.7331 49.8665 94.7331 49.8139C94.7331 49.7614 94.2583 49.7188 93.6727 49.7188C93.087 49.7188 92.6123 49.7614 92.6123 49.8139C92.6123 49.8665 93.087 49.9091 93.6727 49.9091Z" fill="white"/>
<path d="M63.1543 49.8784C63.2495 49.8784 63.331 49.8784 63.4262 49.8784C63.4262 49.9192 63.4262 49.9736 63.4262 50.0144C63.3174 49.9872 63.1679 50.0823 63.1543 49.8784Z" fill="white"/>
<path d="M58.9405 49.8784C59.0357 49.8784 59.0765 49.9192 59.0765 50.0144C58.9813 50.0144 58.9269 49.9736 58.9405 49.8784Z" fill="white"/>
</svg>
